<?xml version="1.0" encoding="UTF-8" standalone="no"?><svg xmlns="http://www.w3.org/2000/svg" xmlns:xlink="http://www.w3.org/1999/xlink" contentStyleType="text/css" height="530px" preserveAspectRatio="none" style="width:950px;height:530px;background:#FFFFFF;" version="1.1" viewBox="0 0 950 530" width="950px" zoomAndPan="magnify"><defs/><g><rect fill="#FFFFFF" height="414.7734" style="stroke:#181818;stroke-width:1.0;" width="10" x="95" y="69.9609"/><rect fill="#FFFFFF" height="332.8125" style="stroke:#181818;stroke-width:1.0;" width="10" x="424" y="142.9219"/><rect fill="#FFFFFF" height="272.1094" style="stroke:#181818;stroke-width:1.0;" width="10" x="612" y="173.2734"/><rect fill="#FFFFFF" height="30.3516" style="stroke:#181818;stroke-width:1.0;" width="10" x="788" y="203.625"/><rect fill="#FFFFFF" height="30" style="stroke:#181818;stroke-width:1.0;" width="10" x="788" y="385.0313"/><rect fill="#FFFFFF" height="30" style="stroke:#181818;stroke-width:1.0;" width="10" x="909.5" y="264.3281"/><rect fill="#FFFFFF" height="30" style="stroke:#181818;stroke-width:1.0;" width="10" x="909.5" y="324.6797"/><line style="stroke:#181818;stroke-width:0.5;stroke-dasharray:5.0,5.0;" x1="99.5" x2="99.5" y1="37.6094" y2="493.7344"/><line style="stroke:#181818;stroke-width:0.5;stroke-dasharray:5.0,5.0;" x1="266" x2="266" y1="109.2656" y2="493.7344"/><line style="stroke:#181818;stroke-width:0.5;stroke-dasharray:5.0,5.0;" x1="429" x2="429" y1="37.6094" y2="493.7344"/><line style="stroke:#181818;stroke-width:0.5;stroke-dasharray:5.0,5.0;" x1="616.5" x2="616.5" y1="37.6094" y2="493.7344"/><line style="stroke:#181818;stroke-width:0.5;stroke-dasharray:5.0,5.0;" x1="793" x2="793" y1="37.6094" y2="493.7344"/><line style="stroke:#181818;stroke-width:0.5;stroke-dasharray:5.0,5.0;" x1="914" x2="914" y1="37.6094" y2="493.7344"/><rect fill="#E2E2F0" height="31.6094" rx="2.5" ry="2.5" style="stroke:#181818;stroke-width:0.5;" width="97" x="51.5" y="5"/><text fill="#000000" font-family="sans-serif" font-size="14" lengthAdjust="spacing" textLength="83" x="58.5" y="26.5332">RouteEdificio</text><rect fill="#E2E2F0" height="31.6094" rx="2.5" ry="2.5" style="stroke:#181818;stroke-width:0.5;" width="97" x="51.5" y="492.7344"/><text fill="#000000" font-family="sans-serif" font-size="14" lengthAdjust="spacing" textLength="83" x="58.5" y="514.2676">RouteEdificio</text><rect fill="#E2E2F0" height="31.6094" rx="2.5" ry="2.5" style="stroke:#181818;stroke-width:0.5;" width="117" x="208" y="492.7344"/><text fill="#000000" font-family="sans-serif" font-size="14" lengthAdjust="spacing" textLength="103" x="215" y="514.2676">dto: EdificioDTO</text><rect fill="#E2E2F0" height="31.6094" rx="2.5" ry="2.5" style="stroke:#181818;stroke-width:0.5;" width="188" x="335" y="5"/><text fill="#000000" font-family="sans-serif" font-size="14" lengthAdjust="spacing" textLength="174" x="342" y="26.5332">controller: EdificioController</text><rect fill="#E2E2F0" height="31.6094" rx="2.5" ry="2.5" style="stroke:#181818;stroke-width:0.5;" width="188" x="335" y="492.7344"/><text fill="#000000" font-family="sans-serif" font-size="14" lengthAdjust="spacing" textLength="174" x="342" y="514.2676">controller: EdificioController</text><rect fill="#E2E2F0" height="31.6094" rx="2.5" ry="2.5" style="stroke:#181818;stroke-width:0.5;" width="159" x="537.5" y="5"/><text fill="#000000" font-family="sans-serif" font-size="14" lengthAdjust="spacing" textLength="145" x="544.5" y="26.5332">service: EdificioService</text><rect fill="#E2E2F0" height="31.6094" rx="2.5" ry="2.5" style="stroke:#181818;stroke-width:0.5;" width="159" x="537.5" y="492.7344"/><text fill="#000000" font-family="sans-serif" font-size="14" lengthAdjust="spacing" textLength="145" x="544.5" y="514.2676">service: EdificioService</text><rect fill="#E2E2F0" height="31.6094" rx="2.5" ry="2.5" style="stroke:#181818;stroke-width:0.5;" width="164" x="711" y="5"/><text fill="#000000" font-family="sans-serif" font-size="14" lengthAdjust="spacing" textLength="150" x="718" y="26.5332">repository: EdificioRepo</text><rect fill="#E2E2F0" height="31.6094" rx="2.5" ry="2.5" style="stroke:#181818;stroke-width:0.5;" width="164" x="711" y="492.7344"/><text fill="#000000" font-family="sans-serif" font-size="14" lengthAdjust="spacing" textLength="150" x="718" y="514.2676">repository: EdificioRepo</text><rect fill="#E2E2F0" height="31.6094" rx="2.5" ry="2.5" style="stroke:#181818;stroke-width:0.5;" width="59" x="885" y="5"/><text fill="#000000" font-family="sans-serif" font-size="14" lengthAdjust="spacing" textLength="45" x="892" y="26.5332">Edificio</text><rect fill="#E2E2F0" height="31.6094" rx="2.5" ry="2.5" style="stroke:#181818;stroke-width:0.5;" width="59" x="885" y="492.7344"/><text fill="#000000" font-family="sans-serif" font-size="14" lengthAdjust="spacing" textLength="45" x="892" y="514.2676">Edificio</text><rect fill="#FFFFFF" height="414.7734" style="stroke:#181818;stroke-width:1.0;" width="10" x="95" y="69.9609"/><rect fill="#FFFFFF" height="332.8125" style="stroke:#181818;stroke-width:1.0;" width="10" x="424" y="142.9219"/><rect fill="#FFFFFF" height="272.1094" style="stroke:#181818;stroke-width:1.0;" width="10" x="612" y="173.2734"/><rect fill="#FFFFFF" height="30.3516" style="stroke:#181818;stroke-width:1.0;" width="10" x="788" y="203.625"/><rect fill="#FFFFFF" height="30" style="stroke:#181818;stroke-width:1.0;" width="10" x="788" y="385.0313"/><rect fill="#FFFFFF" height="30" style="stroke:#181818;stroke-width:1.0;" width="10" x="909.5" y="264.3281"/><rect fill="#FFFFFF" height="30" style="stroke:#181818;stroke-width:1.0;" width="10" x="909.5" y="324.6797"/><ellipse cx="7.5" cy="69.2109" fill="none" rx="4" ry="4" style="stroke:#181818;stroke-width:1.5;"/><polygon fill="#181818" points="83,65.9609,93,69.9609,83,73.9609,87,69.9609" style="stroke:#181818;stroke-width:1.0;"/><line style="stroke:#181818;stroke-width:1.0;" x1="12" x2="89" y1="69.9609" y2="69.9609"/><text fill="#000000" font-family="sans-serif" font-size="13" font-weight="bold" lengthAdjust="spacing" textLength="7" x="15" y="65.1045">1</text><text fill="#000000" font-family="sans-serif" font-size="13" lengthAdjust="spacing" textLength="57" x="26" y="65.1045">PUT(json)</text><polygon fill="#181818" points="196,96.3125,206,100.3125,196,104.3125,200,100.3125" style="stroke:#181818;stroke-width:1.0;"/><line style="stroke:#181818;stroke-width:1.0;" x1="105" x2="202" y1="100.3125" y2="100.3125"/><text fill="#000000" font-family="sans-serif" font-size="13" font-weight="bold" lengthAdjust="spacing" textLength="7" x="112" y="95.4561">2</text><text fill="#000000" font-family="sans-serif" font-size="13" lengthAdjust="spacing" textLength="68" x="123" y="95.4561">create(json)</text><rect fill="#E2E2F0" height="31.6094" rx="2.5" ry="2.5" style="stroke:#181818;stroke-width:0.5;" width="117" x="208" y="77.9609"/><text fill="#000000" font-family="sans-serif" font-size="14" lengthAdjust="spacing" textLength="103" x="215" y="99.4941">dto: EdificioDTO</text><polygon fill="#181818" points="412,138.9219,422,142.9219,412,146.9219,416,142.9219" style="stroke:#181818;stroke-width:1.0;"/><line style="stroke:#181818;stroke-width:1.0;" x1="105" x2="418" y1="142.9219" y2="142.9219"/><text fill="#000000" font-family="sans-serif" font-size="13" font-weight="bold" lengthAdjust="spacing" textLength="7" x="112" y="138.0654">3</text><text fill="#000000" font-family="sans-serif" font-size="13" lengthAdjust="spacing" textLength="148" x="123" y="138.0654">editarEdificio(edificioDTO)</text><polygon fill="#181818" points="600,169.2734,610,173.2734,600,177.2734,604,173.2734" style="stroke:#181818;stroke-width:1.0;"/><line style="stroke:#181818;stroke-width:1.0;" x1="434" x2="606" y1="173.2734" y2="173.2734"/><text fill="#000000" font-family="sans-serif" font-size="13" font-weight="bold" lengthAdjust="spacing" textLength="7" x="441" y="168.417">4</text><text fill="#000000" font-family="sans-serif" font-size="13" lengthAdjust="spacing" textLength="148" x="452" y="168.417">editarEdificio(edificioDTO)</text><polygon fill="#181818" points="776,199.625,786,203.625,776,207.625,780,203.625" style="stroke:#181818;stroke-width:1.0;"/><line style="stroke:#181818;stroke-width:1.0;" x1="622" x2="782" y1="203.625" y2="203.625"/><text fill="#000000" font-family="sans-serif" font-size="13" font-weight="bold" lengthAdjust="spacing" textLength="7" x="629" y="198.7686">5</text><text fill="#000000" font-family="sans-serif" font-size="13" lengthAdjust="spacing" textLength="136" x="640" y="198.7686">findByDomainId(codigo)</text><polygon fill="#181818" points="633,229.9766,623,233.9766,633,237.9766,629,233.9766" style="stroke:#181818;stroke-width:1.0;"/><line style="stroke:#181818;stroke-width:1.0;stroke-dasharray:2.0,2.0;" x1="627" x2="792" y1="233.9766" y2="233.9766"/><text fill="#000000" font-family="sans-serif" font-size="13" font-weight="bold" lengthAdjust="spacing" textLength="7" x="639" y="229.1201">6</text><text fill="#000000" font-family="sans-serif" font-size="13" lengthAdjust="spacing" textLength="40" x="650" y="229.1201">edificio</text><polygon fill="#181818" points="897.5,260.3281,907.5,264.3281,897.5,268.3281,901.5,264.3281" style="stroke:#181818;stroke-width:1.0;"/><line style="stroke:#181818;stroke-width:1.0;" x1="622" x2="903.5" y1="264.3281" y2="264.3281"/><text fill="#000000" font-family="sans-serif" font-size="13" font-weight="bold" lengthAdjust="spacing" textLength="7" x="629" y="259.4717">7</text><text fill="#000000" font-family="sans-serif" font-size="13" lengthAdjust="spacing" textLength="158" x="640" y="259.4717">alterarDescricao(descricao)</text><polygon fill="#181818" points="897.5,320.6797,907.5,324.6797,897.5,328.6797,901.5,324.6797" style="stroke:#181818;stroke-width:1.0;"/><line style="stroke:#181818;stroke-width:1.0;" x1="622" x2="903.5" y1="324.6797" y2="324.6797"/><text fill="#000000" font-family="sans-serif" font-size="13" font-weight="bold" lengthAdjust="spacing" textLength="7" x="629" y="319.8232">8</text><text fill="#000000" font-family="sans-serif" font-size="13" lengthAdjust="spacing" textLength="110" x="640" y="319.8232">alterarNome(nome)</text><polygon fill="#181818" points="776,381.0313,786,385.0313,776,389.0313,780,385.0313" style="stroke:#181818;stroke-width:1.0;"/><line style="stroke:#181818;stroke-width:1.0;" x1="622" x2="782" y1="385.0313" y2="385.0313"/><text fill="#000000" font-family="sans-serif" font-size="13" font-weight="bold" lengthAdjust="spacing" textLength="7" x="629" y="380.1748">9</text><text fill="#000000" font-family="sans-serif" font-size="13" lengthAdjust="spacing" textLength="74" x="640" y="380.1748">save(edificio)</text><polygon fill="#181818" points="445,441.3828,435,445.3828,445,449.3828,441,445.3828" style="stroke:#181818;stroke-width:1.0;"/><line style="stroke:#181818;stroke-width:1.0;stroke-dasharray:2.0,2.0;" x1="439" x2="616" y1="445.3828" y2="445.3828"/><text fill="#000000" font-family="sans-serif" font-size="13" font-weight="bold" lengthAdjust="spacing" textLength="14" x="451" y="440.5264">10</text><text fill="#000000" font-family="sans-serif" font-size="13" lengthAdjust="spacing" textLength="14" x="469" y="440.5264">ok</text><polygon fill="#181818" points="116,471.7344,106,475.7344,116,479.7344,112,475.7344" style="stroke:#181818;stroke-width:1.0;"/><line style="stroke:#181818;stroke-width:1.0;stroke-dasharray:2.0,2.0;" x1="110" x2="428" y1="475.7344" y2="475.7344"/><text fill="#000000" font-family="sans-serif" font-size="13" font-weight="bold" lengthAdjust="spacing" textLength="14" x="122" y="470.8779">11</text><text fill="#000000" font-family="sans-serif" font-size="13" lengthAdjust="spacing" textLength="14" x="140" y="470.8779">ok</text><!--MD5=[eb4e6f6a14993c888e1ad402d9d64c73]
@startuml
autonumber

participant RouteEdificio as route
participant "dto: EdificioDTO" as dto
participant "controller: EdificioController" as ctrl
participant "service: EdificioService" as service
participant "repository: EdificioRepo" as edRepo
participant "Edificio" as ed

[o-> route: PUT(json)
activate route
route -> dto ** : create(json)
route -> ctrl: editarEdificio(edificioDTO)
activate ctrl
ctrl -> service: editarEdificio(edificioDTO) 
activate service
service -> edRepo: findByDomainId(codigo)
activate edRepo
return edificio
service -> ed : alterarDescricao(descricao)
activate ed
deactivate ed
service -> ed : alterarNome(nome)
activate ed
deactivate ed
service -> edRepo: save(edificio)
activate edRepo
deactivate edRepo
return ok
return ok













@enduml

PlantUML version 1.2022.7(Mon Aug 22 18:01:30 BST 2022)
(GPL source distribution)
Java Runtime: Java(TM) SE Runtime Environment
JVM: Java HotSpot(TM) 64-Bit Server VM
Default Encoding: Cp1252
Language: en
Country: US
--></g></svg>