<?xml version="1.0" encoding="UTF-8" standalone="no"?><svg xmlns="http://www.w3.org/2000/svg" xmlns:xlink="http://www.w3.org/1999/xlink" contentStyleType="text/css" height="452px" preserveAspectRatio="none" style="width:1239px;height:452px;background:#FFFFFF;" version="1.1" viewBox="0 0 1239 452" width="1239px" zoomAndPan="magnify"><defs/><g><rect fill="#FFFFFF" height="336.6797" style="stroke:#181818;stroke-width:1.0;" width="10" x="105" y="69.9609"/><rect fill="#FFFFFF" height="254.7188" style="stroke:#181818;stroke-width:1.0;" width="10" x="510.5" y="142.9219"/><rect fill="#FFFFFF" height="194.0156" style="stroke:#181818;stroke-width:1.0;" width="10" x="778.5" y="173.2734"/><rect fill="#FFFFFF" height="30.3516" style="stroke:#181818;stroke-width:1.0;" width="10" x="1001" y="203.625"/><rect fill="#FFFFFF" height="30" style="stroke:#181818;stroke-width:1.0;" width="10" x="1001" y="306.9375"/><line style="stroke:#181818;stroke-width:0.5;stroke-dasharray:5.0,5.0;" x1="110" x2="110" y1="37.6094" y2="415.6406"/><line style="stroke:#181818;stroke-width:0.5;stroke-dasharray:5.0,5.0;" x1="302" x2="302" y1="109.2656" y2="415.6406"/><line style="stroke:#181818;stroke-width:0.5;stroke-dasharray:5.0,5.0;" x1="515" x2="515" y1="37.6094" y2="415.6406"/><line style="stroke:#181818;stroke-width:0.5;stroke-dasharray:5.0,5.0;" x1="783.5" x2="783.5" y1="37.6094" y2="415.6406"/><line style="stroke:#181818;stroke-width:0.5;stroke-dasharray:5.0,5.0;" x1="1005.5" x2="1005.5" y1="37.6094" y2="415.6406"/><line style="stroke:#181818;stroke-width:0.5;stroke-dasharray:5.0,5.0;" x1="1178.5" x2="1178.5" y1="273.2813" y2="415.6406"/><rect fill="#E2E2F0" height="31.6094" rx="2.5" ry="2.5" style="stroke:#181818;stroke-width:0.5;" width="148" x="36" y="5"/><text fill="#000000" font-family="sans-serif" font-size="14" lengthAdjust="spacing" textLength="134" x="43" y="26.5332">RouteTipoDispositivo</text><rect fill="#E2E2F0" height="31.6094" rx="2.5" ry="2.5" style="stroke:#181818;stroke-width:0.5;" width="148" x="36" y="414.6406"/><text fill="#000000" font-family="sans-serif" font-size="14" lengthAdjust="spacing" textLength="134" x="43" y="436.1738">RouteTipoDispositivo</text><rect fill="#E2E2F0" height="31.6094" rx="2.5" ry="2.5" style="stroke:#181818;stroke-width:0.5;" width="168" x="218" y="414.6406"/><text fill="#000000" font-family="sans-serif" font-size="14" lengthAdjust="spacing" textLength="154" x="225" y="436.1738">dto: TipoDispositivoDTO</text><rect fill="#E2E2F0" height="31.6094" rx="2.5" ry="2.5" style="stroke:#181818;stroke-width:0.5;" width="239" x="396" y="5"/><text fill="#000000" font-family="sans-serif" font-size="14" lengthAdjust="spacing" textLength="225" x="403" y="26.5332">controller: TipoDispositivoController</text><rect fill="#E2E2F0" height="31.6094" rx="2.5" ry="2.5" style="stroke:#181818;stroke-width:0.5;" width="239" x="396" y="414.6406"/><text fill="#000000" font-family="sans-serif" font-size="14" lengthAdjust="spacing" textLength="225" x="403" y="436.1738">controller: TipoDispositivoController</text><rect fill="#E2E2F0" height="31.6094" rx="2.5" ry="2.5" style="stroke:#181818;stroke-width:0.5;" width="210" x="678.5" y="5"/><text fill="#000000" font-family="sans-serif" font-size="14" lengthAdjust="spacing" textLength="196" x="685.5" y="26.5332">service: TipoDispositivoService</text><rect fill="#E2E2F0" height="31.6094" rx="2.5" ry="2.5" style="stroke:#181818;stroke-width:0.5;" width="210" x="678.5" y="414.6406"/><text fill="#000000" font-family="sans-serif" font-size="14" lengthAdjust="spacing" textLength="196" x="685.5" y="436.1738">service: TipoDispositivoService</text><rect fill="#E2E2F0" height="31.6094" rx="2.5" ry="2.5" style="stroke:#181818;stroke-width:0.5;" width="215" x="898.5" y="5"/><text fill="#000000" font-family="sans-serif" font-size="14" lengthAdjust="spacing" textLength="201" x="905.5" y="26.5332">repository: TipoDispositivoRepo</text><rect fill="#E2E2F0" height="31.6094" rx="2.5" ry="2.5" style="stroke:#181818;stroke-width:0.5;" width="215" x="898.5" y="414.6406"/><text fill="#000000" font-family="sans-serif" font-size="14" lengthAdjust="spacing" textLength="201" x="905.5" y="436.1738">repository: TipoDispositivoRepo</text><rect fill="#E2E2F0" height="31.6094" rx="2.5" ry="2.5" style="stroke:#181818;stroke-width:0.5;" width="110" x="1123.5" y="414.6406"/><text fill="#000000" font-family="sans-serif" font-size="14" lengthAdjust="spacing" textLength="96" x="1130.5" y="436.1738">TipoDispositivo</text><rect fill="#FFFFFF" height="336.6797" style="stroke:#181818;stroke-width:1.0;" width="10" x="105" y="69.9609"/><rect fill="#FFFFFF" height="254.7188" style="stroke:#181818;stroke-width:1.0;" width="10" x="510.5" y="142.9219"/><rect fill="#FFFFFF" height="194.0156" style="stroke:#181818;stroke-width:1.0;" width="10" x="778.5" y="173.2734"/><rect fill="#FFFFFF" height="30.3516" style="stroke:#181818;stroke-width:1.0;" width="10" x="1001" y="203.625"/><rect fill="#FFFFFF" height="30" style="stroke:#181818;stroke-width:1.0;" width="10" x="1001" y="306.9375"/><ellipse cx="7.5" cy="69.2109" fill="none" rx="4" ry="4" style="stroke:#181818;stroke-width:1.5;"/><polygon fill="#181818" points="93,65.9609,103,69.9609,93,73.9609,97,69.9609" style="stroke:#181818;stroke-width:1.0;"/><line style="stroke:#181818;stroke-width:1.0;" x1="12" x2="99" y1="69.9609" y2="69.9609"/><text fill="#000000" font-family="sans-serif" font-size="13" font-weight="bold" lengthAdjust="spacing" textLength="7" x="15" y="65.1045">1</text><text fill="#000000" font-family="sans-serif" font-size="13" lengthAdjust="spacing" textLength="67" x="26" y="65.1045">POST(json)</text><polygon fill="#181818" points="206,96.3125,216,100.3125,206,104.3125,210,100.3125" style="stroke:#181818;stroke-width:1.0;"/><line style="stroke:#181818;stroke-width:1.0;" x1="115" x2="212" y1="100.3125" y2="100.3125"/><text fill="#000000" font-family="sans-serif" font-size="13" font-weight="bold" lengthAdjust="spacing" textLength="7" x="122" y="95.4561">2</text><text fill="#000000" font-family="sans-serif" font-size="13" lengthAdjust="spacing" textLength="68" x="133" y="95.4561">create(json)</text><rect fill="#E2E2F0" height="31.6094" rx="2.5" ry="2.5" style="stroke:#181818;stroke-width:0.5;" width="168" x="218" y="77.9609"/><text fill="#000000" font-family="sans-serif" font-size="14" lengthAdjust="spacing" textLength="154" x="225" y="99.4941">dto: TipoDispositivoDTO</text><polygon fill="#181818" points="498.5,138.9219,508.5,142.9219,498.5,146.9219,502.5,142.9219" style="stroke:#181818;stroke-width:1.0;"/><line style="stroke:#181818;stroke-width:1.0;" x1="115" x2="504.5" y1="142.9219" y2="142.9219"/><text fill="#000000" font-family="sans-serif" font-size="13" font-weight="bold" lengthAdjust="spacing" textLength="7" x="122" y="138.0654">3</text><text fill="#000000" font-family="sans-serif" font-size="13" lengthAdjust="spacing" textLength="228" x="133" y="138.0654">criarTipoDispositivo(tipoDispositivoDTO)</text><polygon fill="#181818" points="766.5,169.2734,776.5,173.2734,766.5,177.2734,770.5,173.2734" style="stroke:#181818;stroke-width:1.0;"/><line style="stroke:#181818;stroke-width:1.0;" x1="520.5" x2="772.5" y1="173.2734" y2="173.2734"/><text fill="#000000" font-family="sans-serif" font-size="13" font-weight="bold" lengthAdjust="spacing" textLength="7" x="527.5" y="168.417">4</text><text fill="#000000" font-family="sans-serif" font-size="13" lengthAdjust="spacing" textLength="228" x="538.5" y="168.417">criarTipoDispositivo(tipoDispositivoDTO)</text><polygon fill="#181818" points="989,199.625,999,203.625,989,207.625,993,203.625" style="stroke:#181818;stroke-width:1.0;"/><line style="stroke:#181818;stroke-width:1.0;" x1="788.5" x2="995" y1="203.625" y2="203.625"/><text fill="#000000" font-family="sans-serif" font-size="13" font-weight="bold" lengthAdjust="spacing" textLength="7" x="795.5" y="198.7686">5</text><text fill="#000000" font-family="sans-serif" font-size="13" lengthAdjust="spacing" textLength="99" x="806.5" y="198.7686">getMaxId(codigo)</text><polygon fill="#181818" points="799.5,229.9766,789.5,233.9766,799.5,237.9766,795.5,233.9766" style="stroke:#181818;stroke-width:1.0;"/><line style="stroke:#181818;stroke-width:1.0;stroke-dasharray:2.0,2.0;" x1="793.5" x2="1005" y1="233.9766" y2="233.9766"/><text fill="#000000" font-family="sans-serif" font-size="13" font-weight="bold" lengthAdjust="spacing" textLength="7" x="805.5" y="229.1201">6</text><text fill="#000000" font-family="sans-serif" font-size="13" lengthAdjust="spacing" textLength="43" x="816.5" y="229.1201">number</text><polygon fill="#181818" points="1111.5,260.3281,1121.5,264.3281,1111.5,268.3281,1115.5,264.3281" style="stroke:#181818;stroke-width:1.0;"/><line style="stroke:#181818;stroke-width:1.0;" x1="788.5" x2="1117.5" y1="264.3281" y2="264.3281"/><text fill="#000000" font-family="sans-serif" font-size="13" font-weight="bold" lengthAdjust="spacing" textLength="7" x="795.5" y="259.4717">7</text><text fill="#000000" font-family="sans-serif" font-size="13" lengthAdjust="spacing" textLength="44" x="806.5" y="259.4717">create()</text><rect fill="#E2E2F0" height="31.6094" rx="2.5" ry="2.5" style="stroke:#181818;stroke-width:0.5;" width="110" x="1123.5" y="241.9766"/><text fill="#000000" font-family="sans-serif" font-size="14" lengthAdjust="spacing" textLength="96" x="1130.5" y="263.5098">TipoDispositivo</text><polygon fill="#181818" points="989,302.9375,999,306.9375,989,310.9375,993,306.9375" style="stroke:#181818;stroke-width:1.0;"/><line style="stroke:#181818;stroke-width:1.0;" x1="788.5" x2="995" y1="306.9375" y2="306.9375"/><text fill="#000000" font-family="sans-serif" font-size="13" font-weight="bold" lengthAdjust="spacing" textLength="7" x="795.5" y="302.0811">8</text><text fill="#000000" font-family="sans-serif" font-size="13" lengthAdjust="spacing" textLength="117" x="806.5" y="302.0811">save(tipoDispositivo)</text><polygon fill="#181818" points="531.5,363.2891,521.5,367.2891,531.5,371.2891,527.5,367.2891" style="stroke:#181818;stroke-width:1.0;"/><line style="stroke:#181818;stroke-width:1.0;stroke-dasharray:2.0,2.0;" x1="525.5" x2="782.5" y1="367.2891" y2="367.2891"/><text fill="#000000" font-family="sans-serif" font-size="13" font-weight="bold" lengthAdjust="spacing" textLength="7" x="537.5" y="362.4326">9</text><text fill="#000000" font-family="sans-serif" font-size="13" lengthAdjust="spacing" textLength="14" x="548.5" y="362.4326">ok</text><polygon fill="#181818" points="126,393.6406,116,397.6406,126,401.6406,122,397.6406" style="stroke:#181818;stroke-width:1.0;"/><line style="stroke:#181818;stroke-width:1.0;stroke-dasharray:2.0,2.0;" x1="120" x2="514.5" y1="397.6406" y2="397.6406"/><text fill="#000000" font-family="sans-serif" font-size="13" font-weight="bold" lengthAdjust="spacing" textLength="14" x="132" y="392.7842">10</text><text fill="#000000" font-family="sans-serif" font-size="13" lengthAdjust="spacing" textLength="14" x="150" y="392.7842">ok</text><!--MD5=[4a8097b9118601d72ef045c34a4705bb]
@startuml
autonumber

participant RouteTipoDispositivo as route
participant "dto: TipoDispositivoDTO" as dto
participant "controller: TipoDispositivoController" as ctrl
participant "service: TipoDispositivoService" as service
participant "repository: TipoDispositivoRepo" as repo
participant "TipoDispositivo" as td

[o-> route: POST(json)
activate route
route -> dto ** : create(json)
route -> ctrl: criarTipoDispositivo(tipoDispositivoDTO)
activate ctrl
ctrl -> service: criarTipoDispositivo(tipoDispositivoDTO) 
activate service
service -> repo: getMaxId(codigo)
activate repo
return number
service -> td** : create()
service -> repo: save(tipoDispositivo)
activate repo
deactivate repo
return ok
return ok













@enduml

PlantUML version 1.2022.7(Mon Aug 22 18:01:30 BST 2022)
(GPL source distribution)
Java Runtime: OpenJDK Runtime Environment
JVM: OpenJDK 64-Bit Server VM
Default Encoding: Cp1252
Language: en
Country: US
--></g></svg>