<?xml version="1.0" encoding="UTF-8" standalone="no"?><svg xmlns="http://www.w3.org/2000/svg" xmlns:xlink="http://www.w3.org/1999/xlink" contentStyleType="text/css" height="446px" preserveAspectRatio="none" style="width:995px;height:446px;background:#FFFFFF;" version="1.1" viewBox="0 0 995 446" width="995px" zoomAndPan="magnify"><defs/><g><rect fill="#FFFFFF" height="214.8125" style="stroke:#181818;stroke-width:1.0;" width="10" x="362.5" y="131.3125"/><rect fill="#FFFFFF" height="137.7578" style="stroke:#181818;stroke-width:1.0;" width="10" x="637.5" y="178.0156"/><line style="stroke:#181818;stroke-width:0.5;stroke-dasharray:5.0,5.0;" x1="67" x2="67" y1="82.6094" y2="364.125"/><line style="stroke:#181818;stroke-width:0.5;stroke-dasharray:5.0,5.0;" x1="367" x2="367" y1="82.6094" y2="364.125"/><line style="stroke:#181818;stroke-width:0.5;stroke-dasharray:5.0,5.0;" x1="642.5" x2="642.5" y1="82.6094" y2="364.125"/><line style="stroke:#181818;stroke-width:0.5;stroke-dasharray:5.0,5.0;" x1="943.5" x2="943.5" y1="219.3672" y2="364.125"/><text fill="#000000" font-family="sans-serif" font-size="14" lengthAdjust="spacing" textLength="119" x="5" y="79.5332">Gestor de Campus</text><ellipse cx="67.5" cy="13.5" fill="#E2E2F0" rx="8" ry="8" style="stroke:#181818;stroke-width:0.5;"/><path d="M67.5,21.5 L67.5,48.5 M54.5,29.5 L80.5,29.5 M67.5,48.5 L54.5,63.5 M67.5,48.5 L80.5,63.5 " fill="none" style="stroke:#181818;stroke-width:0.5;"/><text fill="#000000" font-family="sans-serif" font-size="14" lengthAdjust="spacing" textLength="119" x="5" y="377.6582">Gestor de Campus</text><ellipse cx="67.5" cy="389.2344" fill="#E2E2F0" rx="8" ry="8" style="stroke:#181818;stroke-width:0.5;"/><path d="M67.5,397.2344 L67.5,424.2344 M54.5,405.2344 L80.5,405.2344 M67.5,424.2344 L54.5,439.2344 M67.5,424.2344 L80.5,439.2344 " fill="none" style="stroke:#181818;stroke-width:0.5;"/><rect fill="#E2E2F0" height="31.6094" rx="2.5" ry="2.5" style="stroke:#181818;stroke-width:0.5;" width="87" x="324" y="50"/><text fill="#000000" font-family="sans-serif" font-size="14" lengthAdjust="spacing" textLength="73" x="331" y="71.5332">Component</text><rect fill="#E2E2F0" height="31.6094" rx="2.5" ry="2.5" style="stroke:#181818;stroke-width:0.5;" width="87" x="324" y="363.125"/><text fill="#000000" font-family="sans-serif" font-size="14" lengthAdjust="spacing" textLength="73" x="331" y="384.6582">Component</text><rect fill="#E2E2F0" height="31.6094" rx="2.5" ry="2.5" style="stroke:#181818;stroke-width:0.5;" width="84" x="600.5" y="50"/><text fill="#000000" font-family="sans-serif" font-size="14" lengthAdjust="spacing" textLength="70" x="607.5" y="71.5332">ServiceInfo</text><rect fill="#E2E2F0" height="31.6094" rx="2.5" ry="2.5" style="stroke:#181818;stroke-width:0.5;" width="84" x="600.5" y="363.125"/><text fill="#000000" font-family="sans-serif" font-size="14" lengthAdjust="spacing" textLength="70" x="607.5" y="384.6582">ServiceInfo</text><rect fill="#E2E2F0" height="31.6094" rx="2.5" ry="2.5" style="stroke:#181818;stroke-width:0.5;" width="82" x="902.5" y="363.125"/><text fill="#000000" font-family="sans-serif" font-size="14" lengthAdjust="spacing" textLength="68" x="909.5" y="384.6582">DataModel</text><rect fill="#FFFFFF" height="214.8125" style="stroke:#181818;stroke-width:1.0;" width="10" x="362.5" y="131.3125"/><rect fill="#FFFFFF" height="137.7578" style="stroke:#181818;stroke-width:1.0;" width="10" x="637.5" y="178.0156"/><polygon fill="#181818" points="350.5,127.3125,360.5,131.3125,350.5,135.3125,354.5,131.3125" style="stroke:#181818;stroke-width:1.0;"/><line style="stroke:#181818;stroke-width:1.0;" x1="67.5" x2="356.5" y1="131.3125" y2="131.3125"/><text fill="#000000" font-family="sans-serif" font-size="13" font-weight="bold" lengthAdjust="spacing" textLength="7" x="74.5" y="118.2803">1</text><text fill="#000000" font-family="sans-serif" font-size="13" lengthAdjust="spacing" textLength="261" x="85.5" y="110.1045">seleciona o edifício e introduz pisos servidos,</text><text fill="#000000" font-family="sans-serif" font-size="13" lengthAdjust="spacing" textLength="258" x="85.5" y="126.4561">marca, modelo, numero de série e descrição</text><polygon fill="#181818" points="625.5,174.0156,635.5,178.0156,625.5,182.0156,629.5,178.0156" style="stroke:#181818;stroke-width:1.0;"/><line style="stroke:#181818;stroke-width:1.0;" x1="372.5" x2="631.5" y1="178.0156" y2="178.0156"/><text fill="#000000" font-family="sans-serif" font-size="13" font-weight="bold" lengthAdjust="spacing" textLength="7" x="379.5" y="164.9834">2</text><text fill="#000000" font-family="sans-serif" font-size="13" lengthAdjust="spacing" textLength="210" x="390.5" y="156.8076">criarElevador(edificio, pisosServidos,</text><text fill="#000000" font-family="sans-serif" font-size="13" lengthAdjust="spacing" textLength="235" x="390.5" y="173.1592">marca, modelo, numeroSerie, descricao)</text><polygon fill="#181818" points="890.5,220.7188,900.5,224.7188,890.5,228.7188,894.5,224.7188" style="stroke:#181818;stroke-width:1.0;"/><line style="stroke:#181818;stroke-width:1.0;" x1="647.5" x2="896.5" y1="224.7188" y2="224.7188"/><text fill="#000000" font-family="sans-serif" font-size="13" font-weight="bold" lengthAdjust="spacing" textLength="7" x="654.5" y="211.6865">3</text><text fill="#000000" font-family="sans-serif" font-size="13" lengthAdjust="spacing" textLength="216" x="665.5" y="203.5107">create(edificio, pisosServidos, marca,</text><text fill="#000000" font-family="sans-serif" font-size="13" lengthAdjust="spacing" textLength="191" x="665.5" y="219.8623">modelo, numeroSerie, descricao)</text><rect fill="#E2E2F0" height="31.6094" rx="2.5" ry="2.5" style="stroke:#181818;stroke-width:0.5;" width="82" x="902.5" y="190.1094"/><text fill="#000000" font-family="sans-serif" font-size="14" lengthAdjust="spacing" textLength="68" x="909.5" y="211.6426">DataModel</text><ellipse cx="981" cy="254.3203" fill="none" rx="4" ry="4" style="stroke:#181818;stroke-width:1.5;"/><polygon fill="#181818" points="964,251.0703,974,255.0703,964,259.0703,968,255.0703" style="stroke:#181818;stroke-width:1.0;"/><line style="stroke:#181818;stroke-width:1.0;" x1="647.5" x2="970" y1="255.0703" y2="255.0703"/><text fill="#000000" font-family="sans-serif" font-size="13" font-weight="bold" lengthAdjust="spacing" textLength="7" x="654.5" y="250.2139">4</text><text fill="#000000" font-family="sans-serif" font-size="13" lengthAdjust="spacing" textLength="230" x="665.5" y="250.2139">POST criarElevador(elevadorDataModel)</text><polygon fill="#181818" points="658.5,281.4219,648.5,285.4219,658.5,289.4219,654.5,285.4219" style="stroke:#181818;stroke-width:1.0;"/><line style="stroke:#181818;stroke-width:1.0;stroke-dasharray:2.0,2.0;" x1="652.5" x2="988.5" y1="285.4219" y2="285.4219"/><text fill="#000000" font-family="sans-serif" font-size="13" font-weight="bold" lengthAdjust="spacing" textLength="7" x="664.5" y="280.5654">5</text><text fill="#000000" font-family="sans-serif" font-size="13" lengthAdjust="spacing" textLength="50" x="675.5" y="280.5654">resposta</text><polygon fill="#181818" points="383.5,311.7734,373.5,315.7734,383.5,319.7734,379.5,315.7734" style="stroke:#181818;stroke-width:1.0;"/><line style="stroke:#181818;stroke-width:1.0;stroke-dasharray:2.0,2.0;" x1="377.5" x2="641.5" y1="315.7734" y2="315.7734"/><text fill="#000000" font-family="sans-serif" font-size="13" font-weight="bold" lengthAdjust="spacing" textLength="7" x="389.5" y="310.917">6</text><text fill="#000000" font-family="sans-serif" font-size="13" lengthAdjust="spacing" textLength="50" x="400.5" y="310.917">resposta</text><polygon fill="#181818" points="78.5,342.125,68.5,346.125,78.5,350.125,74.5,346.125" style="stroke:#181818;stroke-width:1.0;"/><line style="stroke:#181818;stroke-width:1.0;stroke-dasharray:2.0,2.0;" x1="72.5" x2="366.5" y1="346.125" y2="346.125"/><text fill="#000000" font-family="sans-serif" font-size="13" font-weight="bold" lengthAdjust="spacing" textLength="7" x="84.5" y="341.2686">7</text><text fill="#000000" font-family="sans-serif" font-size="13" lengthAdjust="spacing" textLength="50" x="95.5" y="341.2686">resposta</text><!--MD5=[c391b0c6fa07c79d09a6911e92da9656]
@startuml
autonumber

actor "Gestor de Campus" as actor
participant Component as comp 
participant ServiceInfo as servInf
participant DataModel as dm


actor -> comp: seleciona o edifício e introduz pisos servidos, \nmarca, modelo, numero de série e descrição
activate comp
comp -> servInf: criarElevador(edificio, pisosServidos, \nmarca, modelo, numeroSerie, descricao)
activate servInf
servInf -> dm **: create(edificio, pisosServidos, marca, \nmodelo, numeroSerie, descricao)
servInf ->o] : POST criarElevador(elevadorDataModel)
servInf <- - : resposta
return resposta
return resposta


 
 
@enduml

PlantUML version 1.2022.7(Mon Aug 22 18:01:30 BST 2022)
(GPL source distribution)
Java Runtime: OpenJDK Runtime Environment
JVM: OpenJDK 64-Bit Server VM
Default Encoding: Cp1252
Language: pt
Country: PT
--></g></svg>