<?xml version="1.0" encoding="UTF-8" standalone="no"?><svg xmlns="http://www.w3.org/2000/svg" xmlns:xlink="http://www.w3.org/1999/xlink" contentStyleType="text/css" height="579px" preserveAspectRatio="none" style="width:1353px;height:579px;background:#FFFFFF;" version="1.1" viewBox="0 0 1353 579" width="1353px" zoomAndPan="magnify"><defs/><g><rect fill="#FFFFFF" height="464.0156" style="stroke:#181818;stroke-width:1.0;" width="10" x="103" y="69.9609"/><rect fill="#FFFFFF" height="315.7734" style="stroke:#181818;stroke-width:1.0;" width="10" x="458" y="100.3125"/><rect fill="#FFFFFF" height="212.4609" style="stroke:#181818;stroke-width:1.0;" width="10" x="869.5" y="173.2734"/><rect fill="#FFFFFF" height="30.3516" style="stroke:#181818;stroke-width:1.0;" width="10" x="1005.5" y="203.625"/><rect fill="#FFFFFF" height="30.3516" style="stroke:#181818;stroke-width:1.0;" width="10" x="1216.5" y="264.3281"/><rect fill="#FFFFFF" height="30.3516" style="stroke:#181818;stroke-width:1.0;" width="10" x="1299" y="325.0313"/><rect fill="none" height="94.8906" style="stroke:#000000;stroke-width:1.5;" width="163.5" x="3" y="431.0859"/><line style="stroke:#181818;stroke-width:0.5;stroke-dasharray:5.0,5.0;" x1="107.5" x2="107.5" y1="37.6094" y2="542.9766"/><line style="stroke:#181818;stroke-width:0.5;stroke-dasharray:5.0,5.0;" x1="463" x2="463" y1="37.6094" y2="542.9766"/><line style="stroke:#181818;stroke-width:0.5;stroke-dasharray:5.0,5.0;" x1="678" x2="678" y1="139.6172" y2="542.9766"/><line style="stroke:#181818;stroke-width:0.5;stroke-dasharray:5.0,5.0;" x1="874" x2="874" y1="37.6094" y2="542.9766"/><line style="stroke:#181818;stroke-width:0.5;stroke-dasharray:5.0,5.0;" x1="1010" x2="1010" y1="37.6094" y2="542.9766"/><line style="stroke:#181818;stroke-width:0.5;stroke-dasharray:5.0,5.0;" x1="1221" x2="1221" y1="37.6094" y2="542.9766"/><line style="stroke:#181818;stroke-width:0.5;stroke-dasharray:5.0,5.0;" x1="1304" x2="1304" y1="37.6094" y2="542.9766"/><rect fill="#E2E2F0" height="31.6094" rx="2.5" ry="2.5" style="stroke:#181818;stroke-width:0.5;" width="97" x="59.5" y="5"/><text fill="#000000" font-family="sans-serif" font-size="14" lengthAdjust="spacing" textLength="83" x="66.5" y="26.5332">EdificioRoute</text><rect fill="#E2E2F0" height="31.6094" rx="2.5" ry="2.5" style="stroke:#181818;stroke-width:0.5;" width="97" x="59.5" y="541.9766"/><text fill="#000000" font-family="sans-serif" font-size="14" lengthAdjust="spacing" textLength="83" x="66.5" y="563.5098">EdificioRoute</text><rect fill="#E2E2F0" height="31.6094" rx="2.5" ry="2.5" style="stroke:#181818;stroke-width:0.5;" width="188" x="369" y="5"/><text fill="#000000" font-family="sans-serif" font-size="14" lengthAdjust="spacing" textLength="174" x="376" y="26.5332">controller: EdificioController</text><rect fill="#E2E2F0" height="31.6094" rx="2.5" ry="2.5" style="stroke:#181818;stroke-width:0.5;" width="188" x="369" y="541.9766"/><text fill="#000000" font-family="sans-serif" font-size="14" lengthAdjust="spacing" textLength="174" x="376" y="563.5098">controller: EdificioController</text><rect fill="#E2E2F0" height="31.6094" rx="2.5" ry="2.5" style="stroke:#181818;stroke-width:0.5;" width="214" x="571" y="541.9766"/><text fill="#000000" font-family="sans-serif" font-size="14" lengthAdjust="spacing" textLength="200" x="578" y="563.5098">dto: ListarEdMinEMaxPisosDTO</text><rect fill="#E2E2F0" height="31.6094" rx="2.5" ry="2.5" style="stroke:#181818;stroke-width:0.5;" width="159" x="795" y="5"/><text fill="#000000" font-family="sans-serif" font-size="14" lengthAdjust="spacing" textLength="145" x="802" y="26.5332">service: EdificioService</text><rect fill="#E2E2F0" height="31.6094" rx="2.5" ry="2.5" style="stroke:#181818;stroke-width:0.5;" width="159" x="795" y="541.9766"/><text fill="#000000" font-family="sans-serif" font-size="14" lengthAdjust="spacing" textLength="145" x="802" y="563.5098">service: EdificioService</text><rect fill="#E2E2F0" height="31.6094" rx="2.5" ry="2.5" style="stroke:#181818;stroke-width:0.5;" width="93" x="964" y="5"/><text fill="#000000" font-family="sans-serif" font-size="14" lengthAdjust="spacing" textLength="79" x="971" y="26.5332">EdificioRepo</text><rect fill="#E2E2F0" height="31.6094" rx="2.5" ry="2.5" style="stroke:#181818;stroke-width:0.5;" width="93" x="964" y="541.9766"/><text fill="#000000" font-family="sans-serif" font-size="14" lengthAdjust="spacing" textLength="79" x="971" y="563.5098">EdificioRepo</text><rect fill="#E2E2F0" height="31.6094" rx="2.5" ry="2.5" style="stroke:#181818;stroke-width:0.5;" width="59" x="1192" y="5"/><text fill="#000000" font-family="sans-serif" font-size="14" lengthAdjust="spacing" textLength="45" x="1199" y="26.5332">Edificio</text><rect fill="#E2E2F0" height="31.6094" rx="2.5" ry="2.5" style="stroke:#181818;stroke-width:0.5;" width="59" x="1192" y="541.9766"/><text fill="#000000" font-family="sans-serif" font-size="14" lengthAdjust="spacing" textLength="45" x="1199" y="563.5098">Edificio</text><rect fill="#E2E2F0" height="31.6094" rx="2.5" ry="2.5" style="stroke:#181818;stroke-width:0.5;" width="86" x="1261" y="5"/><text fill="#000000" font-family="sans-serif" font-size="14" lengthAdjust="spacing" textLength="72" x="1268" y="26.5332">EdificioMap</text><rect fill="#E2E2F0" height="31.6094" rx="2.5" ry="2.5" style="stroke:#181818;stroke-width:0.5;" width="86" x="1261" y="541.9766"/><text fill="#000000" font-family="sans-serif" font-size="14" lengthAdjust="spacing" textLength="72" x="1268" y="563.5098">EdificioMap</text><rect fill="#FFFFFF" height="464.0156" style="stroke:#181818;stroke-width:1.0;" width="10" x="103" y="69.9609"/><rect fill="#FFFFFF" height="315.7734" style="stroke:#181818;stroke-width:1.0;" width="10" x="458" y="100.3125"/><rect fill="#FFFFFF" height="212.4609" style="stroke:#181818;stroke-width:1.0;" width="10" x="869.5" y="173.2734"/><rect fill="#FFFFFF" height="30.3516" style="stroke:#181818;stroke-width:1.0;" width="10" x="1005.5" y="203.625"/><rect fill="#FFFFFF" height="30.3516" style="stroke:#181818;stroke-width:1.0;" width="10" x="1216.5" y="264.3281"/><rect fill="#FFFFFF" height="30.3516" style="stroke:#181818;stroke-width:1.0;" width="10" x="1299" y="325.0313"/><ellipse cx="7.5" cy="69.2109" fill="none" rx="4" ry="4" style="stroke:#181818;stroke-width:1.5;"/><polygon fill="#181818" points="91,65.9609,101,69.9609,91,73.9609,95,69.9609" style="stroke:#181818;stroke-width:1.0;"/><line style="stroke:#181818;stroke-width:1.0;" x1="12" x2="97" y1="69.9609" y2="69.9609"/><text fill="#000000" font-family="sans-serif" font-size="13" font-weight="bold" lengthAdjust="spacing" textLength="7" x="15" y="65.1045">1</text><text fill="#000000" font-family="sans-serif" font-size="13" lengthAdjust="spacing" textLength="58" x="26" y="65.1045">GET(json)</text><polygon fill="#181818" points="446,96.3125,456,100.3125,446,104.3125,450,100.3125" style="stroke:#181818;stroke-width:1.0;"/><line style="stroke:#181818;stroke-width:1.0;" x1="113" x2="452" y1="100.3125" y2="100.3125"/><text fill="#000000" font-family="sans-serif" font-size="13" font-weight="bold" lengthAdjust="spacing" textLength="7" x="120" y="95.4561">2</text><text fill="#000000" font-family="sans-serif" font-size="13" lengthAdjust="spacing" textLength="315" x="131" y="95.4561">listarEdificioMinEMaxPisos(Request, Response, Next)</text><polygon fill="#181818" points="559,126.6641,569,130.6641,559,134.6641,563,130.6641" style="stroke:#181818;stroke-width:1.0;"/><line style="stroke:#181818;stroke-width:1.0;" x1="468" x2="565" y1="130.6641" y2="130.6641"/><text fill="#000000" font-family="sans-serif" font-size="13" font-weight="bold" lengthAdjust="spacing" textLength="7" x="475" y="125.8076">3</text><text fill="#000000" font-family="sans-serif" font-size="13" lengthAdjust="spacing" textLength="68" x="486" y="125.8076">create(json)</text><rect fill="#E2E2F0" height="31.6094" rx="2.5" ry="2.5" style="stroke:#181818;stroke-width:0.5;" width="214" x="571" y="108.3125"/><text fill="#000000" font-family="sans-serif" font-size="14" lengthAdjust="spacing" textLength="200" x="578" y="129.8457">dto: ListarEdMinEMaxPisosDTO</text><polygon fill="#181818" points="857.5,169.2734,867.5,173.2734,857.5,177.2734,861.5,173.2734" style="stroke:#181818;stroke-width:1.0;"/><line style="stroke:#181818;stroke-width:1.0;" x1="468" x2="863.5" y1="173.2734" y2="173.2734"/><text fill="#000000" font-family="sans-serif" font-size="13" font-weight="bold" lengthAdjust="spacing" textLength="7" x="475" y="168.417">4</text><text fill="#000000" font-family="sans-serif" font-size="13" lengthAdjust="spacing" textLength="324" x="486" y="168.417">listarEdificioMinEMaxPisos(listarEdMinEMaxPisosDTO)</text><polygon fill="#181818" points="993.5,199.625,1003.5,203.625,993.5,207.625,997.5,203.625" style="stroke:#181818;stroke-width:1.0;"/><line style="stroke:#181818;stroke-width:1.0;" x1="879.5" x2="999.5" y1="203.625" y2="203.625"/><text fill="#000000" font-family="sans-serif" font-size="13" font-weight="bold" lengthAdjust="spacing" textLength="7" x="886.5" y="198.7686">5</text><text fill="#000000" font-family="sans-serif" font-size="13" lengthAdjust="spacing" textLength="90" x="897.5" y="198.7686">getAllEdificios()</text><polygon fill="#181818" points="890.5,229.9766,880.5,233.9766,890.5,237.9766,886.5,233.9766" style="stroke:#181818;stroke-width:1.0;"/><line style="stroke:#181818;stroke-width:1.0;stroke-dasharray:2.0,2.0;" x1="884.5" x2="1009.5" y1="233.9766" y2="233.9766"/><text fill="#000000" font-family="sans-serif" font-size="13" font-weight="bold" lengthAdjust="spacing" textLength="7" x="896.5" y="229.1201">6</text><text fill="#000000" font-family="sans-serif" font-size="13" lengthAdjust="spacing" textLength="73" x="907.5" y="229.1201">listaEdificios</text><polygon fill="#181818" points="1204.5,260.3281,1214.5,264.3281,1204.5,268.3281,1208.5,264.3281" style="stroke:#181818;stroke-width:1.0;"/><line style="stroke:#181818;stroke-width:1.0;" x1="879.5" x2="1210.5" y1="264.3281" y2="264.3281"/><text fill="#000000" font-family="sans-serif" font-size="13" font-weight="bold" lengthAdjust="spacing" textLength="7" x="886.5" y="259.4717">7</text><text fill="#000000" font-family="sans-serif" font-size="13" lengthAdjust="spacing" textLength="307" x="897.5" y="259.4717">verificaNumeroDePisosEstaDentroDoLimite(min,max)</text><polygon fill="#181818" points="890.5,290.6797,880.5,294.6797,890.5,298.6797,886.5,294.6797" style="stroke:#181818;stroke-width:1.0;"/><line style="stroke:#181818;stroke-width:1.0;stroke-dasharray:2.0,2.0;" x1="884.5" x2="1220.5" y1="294.6797" y2="294.6797"/><text fill="#000000" font-family="sans-serif" font-size="13" font-weight="bold" lengthAdjust="spacing" textLength="7" x="896.5" y="289.8232">8</text><text fill="#000000" font-family="sans-serif" font-size="13" lengthAdjust="spacing" textLength="20" x="907.5" y="289.8232">flag</text><polygon fill="#181818" points="1287,321.0313,1297,325.0313,1287,329.0313,1291,325.0313" style="stroke:#181818;stroke-width:1.0;"/><line style="stroke:#181818;stroke-width:1.0;" x1="879.5" x2="1293" y1="325.0313" y2="325.0313"/><text fill="#000000" font-family="sans-serif" font-size="13" font-weight="bold" lengthAdjust="spacing" textLength="7" x="886.5" y="320.1748">9</text><text fill="#000000" font-family="sans-serif" font-size="13" lengthAdjust="spacing" textLength="85" x="897.5" y="320.1748">toDTO(edificio)</text><polygon fill="#181818" points="890.5,351.3828,880.5,355.3828,890.5,359.3828,886.5,355.3828" style="stroke:#181818;stroke-width:1.0;"/><line style="stroke:#181818;stroke-width:1.0;stroke-dasharray:2.0,2.0;" x1="884.5" x2="1303" y1="355.3828" y2="355.3828"/><text fill="#000000" font-family="sans-serif" font-size="13" font-weight="bold" lengthAdjust="spacing" textLength="14" x="896.5" y="350.5264">10</text><text fill="#000000" font-family="sans-serif" font-size="13" lengthAdjust="spacing" textLength="66" x="914.5" y="350.5264">edificioDTO</text><polygon fill="#181818" points="479,381.7344,469,385.7344,479,389.7344,475,385.7344" style="stroke:#181818;stroke-width:1.0;"/><line style="stroke:#181818;stroke-width:1.0;stroke-dasharray:2.0,2.0;" x1="473" x2="873.5" y1="385.7344" y2="385.7344"/><text fill="#000000" font-family="sans-serif" font-size="13" font-weight="bold" lengthAdjust="spacing" textLength="14" x="485" y="380.8779">11</text><text fill="#000000" font-family="sans-serif" font-size="13" lengthAdjust="spacing" textLength="50" x="503" y="380.8779">resposta</text><polygon fill="#181818" points="124,412.0859,114,416.0859,124,420.0859,120,416.0859" style="stroke:#181818;stroke-width:1.0;"/><line style="stroke:#181818;stroke-width:1.0;stroke-dasharray:2.0,2.0;" x1="118" x2="462" y1="416.0859" y2="416.0859"/><text fill="#000000" font-family="sans-serif" font-size="13" font-weight="bold" lengthAdjust="spacing" textLength="14" x="130" y="411.2295">12</text><text fill="#000000" font-family="sans-serif" font-size="13" lengthAdjust="spacing" textLength="50" x="148" y="411.2295">resposta</text><path d="M3,431.0859 L64,431.0859 L64,439.4375 L54,449.4375 L3,449.4375 L3,431.0859 " fill="#EEEEEE" style="stroke:#000000;stroke-width:1.5;"/><rect fill="none" height="94.8906" style="stroke:#000000;stroke-width:1.5;" width="163.5" x="3" y="431.0859"/><text fill="#000000" font-family="sans-serif" font-size="13" font-weight="bold" lengthAdjust="spacing" textLength="16" x="18" y="445.5811">alt</text><polygon fill="#181818" points="11,467.7891,1,471.7891,11,475.7891,7,471.7891" style="stroke:#181818;stroke-width:1.0;"/><line style="stroke:#181818;stroke-width:1.0;stroke-dasharray:2.0,2.0;" x1="5" x2="102" y1="471.7891" y2="471.7891"/><text fill="#000000" font-family="sans-serif" font-size="13" font-weight="bold" lengthAdjust="spacing" textLength="14" x="17" y="466.9326">13</text><text fill="#000000" font-family="sans-serif" font-size="13" lengthAdjust="spacing" textLength="17" x="35" y="466.9326">Ok</text><line style="stroke:#000000;stroke-width:1.0;stroke-dasharray:2.0,2.0;" x1="3" x2="166.5" y1="480.7891" y2="480.7891"/><text fill="#000000" font-family="sans-serif" font-size="11" font-weight="bold" lengthAdjust="spacing" textLength="41" x="8" y="492.208">["Erro"]</text><polygon fill="#181818" points="11,513.9766,1,517.9766,11,521.9766,7,517.9766" style="stroke:#181818;stroke-width:1.0;"/><line style="stroke:#181818;stroke-width:1.0;stroke-dasharray:2.0,2.0;" x1="5" x2="102" y1="517.9766" y2="517.9766"/><text fill="#000000" font-family="sans-serif" font-size="13" font-weight="bold" lengthAdjust="spacing" textLength="14" x="17" y="513.1201">14</text><text fill="#000000" font-family="sans-serif" font-size="13" lengthAdjust="spacing" textLength="24" x="35" y="513.1201">Erro</text><!--MD5=[f7b516367e5ddcd10fa69d1dc92a745b]
@startuml
autonumber

participant EdificioRoute as route
participant "controller: EdificioController" as ctrl
participant "dto: ListarEdMinEMaxPisosDTO" as dto
participant "service: EdificioService" as service
participant "EdificioRepo" as edRepo
participant "Edificio" as edificio
participant "EdificioMap" as edificioMap



[o-> route: GET(json)
activate route
route -> ctrl: listarEdificioMinEMaxPisos(Request, Response, Next)
activate ctrl
ctrl -> dto ** : create(json)
ctrl -> service: listarEdificioMinEMaxPisos(listarEdMinEMaxPisosDTO) 
activate service
service -> edRepo: getAllEdificios()
activate edRepo
return listaEdificios
service -> edificio :  verificaNumeroDePisosEstaDentroDoLimite(min,max)
activate edificio
return flag
service -> edificioMap: toDTO(edificio)
activate edificioMap
return edificioDTO
return resposta
return resposta
alt
<- - route: Ok
else "Erro"
<- - route: Erro
end alt














@enduml

PlantUML version 1.2022.7(Mon Aug 22 18:01:30 WEST 2022)
(GPL source distribution)
Java Runtime: Java(TM) SE Runtime Environment
JVM: Java HotSpot(TM) 64-Bit Server VM
Default Encoding: UTF-8
Language: pt
Country: PT
--></g></svg>