<?xml version="1.0" encoding="UTF-8" standalone="no"?><svg xmlns="http://www.w3.org/2000/svg" xmlns:xlink="http://www.w3.org/1999/xlink" contentStyleType="text/css" height="4720px" preserveAspectRatio="none" style="width:908px;height:4720px;background:#FFFFFF;" version="1.1" viewBox="0 0 908 4720" width="908px" zoomAndPan="magnify"><defs/><g><!--MD5=[e0395be555c61418dbb8f16cffc82765]
entity frota--><g id="elem_frota"><ellipse cx="94.5" cy="4447.92" fill="#F1F1F1" rx="8" ry="8" style="stroke:#181818;stroke-width:0.5;"/><path d="M94.5,4455.92 L94.5,4482.92 M81.5,4463.92 L107.5,4463.92 M94.5,4482.92 L81.5,4497.92 M94.5,4482.92 L107.5,4497.92 " fill="none" style="stroke:#181818;stroke-width:0.5;"/><text fill="#000000" font-family="sans-serif" font-size="14" lengthAdjust="spacing" textLength="106" x="41.5" y="4512.9552">Gestor de Frota</text></g><!--MD5=[592d3444d354cda923ca8734cab94937]
entity campus--><g id="elem_campus"><ellipse cx="94.5" cy="3433.92" fill="#F1F1F1" rx="8" ry="8" style="stroke:#181818;stroke-width:0.5;"/><path d="M94.5,3441.92 L94.5,3468.92 M81.5,3449.92 L107.5,3449.92 M94.5,3468.92 L81.5,3483.92 M94.5,3468.92 L107.5,3483.92 " fill="none" style="stroke:#181818;stroke-width:0.5;"/><text fill="#000000" font-family="sans-serif" font-size="14" lengthAdjust="spacing" textLength="126" x="31.5" y="3498.9552">Gestor de Campus</text></g><!--MD5=[79a439086b036a57b90a01d7b2f8bbd1]
entity admin--><g id="elem_admin"><ellipse cx="94.5" cy="2321.92" fill="#F1F1F1" rx="8" ry="8" style="stroke:#181818;stroke-width:0.5;"/><path d="M94.5,2329.92 L94.5,2356.92 M81.5,2337.92 L107.5,2337.92 M94.5,2356.92 L81.5,2371.92 M94.5,2356.92 L107.5,2371.92 " fill="none" style="stroke:#181818;stroke-width:0.5;"/><text fill="#000000" font-family="sans-serif" font-size="14" lengthAdjust="spacing" textLength="177" x="6" y="2386.9552">Administrador de Sistema</text></g><!--MD5=[e17099c48b5761d5a439ffacb1317c01]
entity tarefa--><g id="elem_tarefa"><ellipse cx="94.5" cy="1720.92" fill="#F1F1F1" rx="8" ry="8" style="stroke:#181818;stroke-width:0.5;"/><path d="M94.5,1728.92 L94.5,1755.92 M81.5,1736.92 L107.5,1736.92 M94.5,1755.92 L81.5,1770.92 M94.5,1755.92 L107.5,1770.92 " fill="none" style="stroke:#181818;stroke-width:0.5;"/><text fill="#000000" font-family="sans-serif" font-size="14" lengthAdjust="spacing" textLength="117" x="36" y="1785.9552">Gestor de tarefas</text></g><!--MD5=[00215306fccc713fea5009867920006c]
entity ator--><g id="elem_ator"><ellipse cx="94.5" cy="664.92" fill="#F1F1F1" rx="8" ry="8" style="stroke:#181818;stroke-width:0.5;"/><path d="M94.5,672.92 L94.5,699.92 M81.5,680.92 L107.5,680.92 M94.5,699.92 L81.5,714.92 M94.5,699.92 L107.5,714.92 " fill="none" style="stroke:#181818;stroke-width:0.5;"/><text fill="#000000" font-family="sans-serif" font-size="14" lengthAdjust="spacing" textLength="30" x="79.5" y="729.9552">Ator</text></g><g id="elem_US130"><ellipse cx="572.6107" cy="2756.6701" fill="#F1F1F1" rx="102.9007" ry="22.9801" style="stroke:#181818;stroke-width:0.5;"/><text fill="#000000" font-family="sans-serif" font-size="14" lengthAdjust="spacing" textLength="170" x="487.6107" y="2759.9612">Upload mapa do campus</text></g><g id="elem_UC150"><ellipse cx="572.608" cy="2830.6736" fill="#F1F1F1" rx="67.968" ry="15.9936" style="stroke:#181818;stroke-width:0.5;"/><text fill="#000000" font-family="sans-serif" font-size="14" lengthAdjust="spacing" textLength="88" x="525.6452" y="2834.6834">Criar Edificio</text></g><g id="elem_UC160"><ellipse cx="572.609" cy="2897.6698" fill="#F1F1F1" rx="70.199" ry="16.4398" style="stroke:#181818;stroke-width:0.5;"/><text fill="#000000" font-family="sans-serif" font-size="14" lengthAdjust="spacing" textLength="94" x="523.9215" y="2901.3947">Editar Edifício</text></g><g id="elem_UC170"><ellipse cx="572.6096" cy="2971.6739" fill="#F1F1F1" rx="98.8196" ry="22.1639" style="stroke:#181818;stroke-width:0.5;"/><text fill="#000000" font-family="sans-serif" font-size="14" lengthAdjust="spacing" textLength="161" x="492.1096" y="2974.9649">Listar todos os Edifícios</text></g><g id="elem_UC180"><ellipse cx="572.6123" cy="3060.6685" fill="#F1F1F1" rx="148.9423" ry="32.1885" style="stroke:#181818;stroke-width:0.5;"/><text fill="#000000" font-family="sans-serif" font-size="14" lengthAdjust="spacing" textLength="268" x="438.6123" y="3063.9595">Listar Edifícios com min e max de pisos</text></g><g id="elem_UC190"><ellipse cx="572.6063" cy="3150.6673" fill="#F1F1F1" rx="101.5363" ry="22.7073" style="stroke:#181818;stroke-width:0.5;"/><text fill="#000000" font-family="sans-serif" font-size="14" lengthAdjust="spacing" textLength="167" x="489.1063" y="3153.9583">Criar Piso de um Edificio</text></g><g id="elem_UC200"><ellipse cx="572.6077" cy="3223.6675" fill="#F1F1F1" rx="62.4377" ry="14.8875" style="stroke:#181818;stroke-width:0.5;"/><text fill="#000000" font-family="sans-serif" font-size="14" lengthAdjust="spacing" textLength="72" x="533.6077" y="3227.6851">Editar Piso</text></g><g id="elem_UC210"><ellipse cx="572.6113" cy="3302.6743" fill="#F1F1F1" rx="135.5713" ry="29.5143" style="stroke:#181818;stroke-width:0.5;"/><text fill="#000000" font-family="sans-serif" font-size="14" lengthAdjust="spacing" textLength="240" x="452.6113" y="3305.9653">Listar todos os Pisos de um Edificio</text></g><g id="elem_UC220"><ellipse cx="572.6056" cy="3412.6671" fill="#F1F1F1" rx="215.5356" ry="45.5071" style="stroke:#181818;stroke-width:0.5;"/><text fill="#000000" font-family="sans-serif" font-size="14" lengthAdjust="spacing" textLength="405" x="370.1056" y="3415.9581">Listar Pisos de Edifício com passagens para outros edifícios</text></g><g id="elem_UC230"><ellipse cx="572.6103" cy="3514.6741" fill="#F1F1F1" rx="96.1203" ry="21.6241" style="stroke:#181818;stroke-width:0.5;"/><text fill="#000000" font-family="sans-serif" font-size="14" lengthAdjust="spacing" textLength="155" x="495.1103" y="3517.9651">Carregar Mapa de Piso</text></g><g id="elem_UC240"><ellipse cx="572.6117" cy="3597.6703" fill="#F1F1F1" rx="120.0017" ry="26.4003" style="stroke:#181818;stroke-width:0.5;"/><text fill="#000000" font-family="sans-serif" font-size="14" lengthAdjust="spacing" textLength="207" x="469.1117" y="3600.9614">Criar Passagem entre Edifícios</text></g><g id="elem_UC250"><ellipse cx="572.6144" cy="3686.6729" fill="#F1F1F1" rx="125.1644" ry="27.4329" style="stroke:#181818;stroke-width:0.5;"/><text fill="#000000" font-family="sans-serif" font-size="14" lengthAdjust="spacing" textLength="218" x="463.6144" y="3689.9639">Editar passagem entre ediifícios</text></g><g id="elem_UC260"><ellipse cx="572.6096" cy="3777.6719" fill="#F1F1F1" rx="129.4096" ry="28.2819" style="stroke:#181818;stroke-width:0.5;"/><text fill="#000000" font-family="sans-serif" font-size="14" lengthAdjust="spacing" textLength="227" x="459.1096" y="3780.9629">Listar passagens entre 2 edifícios</text></g><g id="elem_UC270"><ellipse cx="572.6114" cy="3866.6703" fill="#F1F1F1" rx="115.8014" ry="25.5603" style="stroke:#181818;stroke-width:0.5;"/><text fill="#000000" font-family="sans-serif" font-size="14" lengthAdjust="spacing" textLength="198" x="473.6114" y="3869.9613">Criar Elevador de um Edifício</text></g><g id="elem_UC280"><ellipse cx="572.6091" cy="3953.6698" fill="#F1F1F1" rx="118.5991" ry="26.1198" style="stroke:#181818;stroke-width:0.5;"/><text fill="#000000" font-family="sans-serif" font-size="14" lengthAdjust="spacing" textLength="204" x="470.6091" y="3956.9608">Editar Elevador de um Edifício</text></g><g id="elem_UC290"><ellipse cx="572.6135" cy="4041.6747" fill="#F1F1F1" rx="124.2235" ry="27.2447" style="stroke:#181818;stroke-width:0.5;"/><text fill="#000000" font-family="sans-serif" font-size="14" lengthAdjust="spacing" textLength="216" x="464.6135" y="4044.9657">Listar Elevadores de um Edifício</text></g><g id="elem_UC300"><ellipse cx="572.6075" cy="4140.6655" fill="#F1F1F1" rx="169.6775" ry="36.3355" style="stroke:#181818;stroke-width:0.5;"/><text fill="#000000" font-family="sans-serif" font-size="14" lengthAdjust="spacing" textLength="311" x="417.1075" y="4143.9565">Listar pisos de edifícios servidos por elevador</text></g><g id="elem_UC310"><ellipse cx="572.6145" cy="4232.6729" fill="#F1F1F1" rx="91.6645" ry="20.7329" style="stroke:#181818;stroke-width:0.5;"/><text fill="#000000" font-family="sans-serif" font-size="14" lengthAdjust="spacing" textLength="145" x="500.1145" y="4235.9639">Criar Sala de um Piso</text></g><g id="elem_UC350"><ellipse cx="572.6114" cy="4313.6703" fill="#F1F1F1" rx="115.8014" ry="25.5603" style="stroke:#181818;stroke-width:0.5;"/><text fill="#000000" font-family="sans-serif" font-size="14" lengthAdjust="spacing" textLength="198" x="473.6114" y="4316.9613">Adicionar novo tipo de robot</text></g><g id="elem_UC360"><ellipse cx="572.6064" cy="4399.6713" fill="#F1F1F1" rx="114.4064" ry="25.2813" style="stroke:#181818;stroke-width:0.5;"/><text fill="#000000" font-family="sans-serif" font-size="14" lengthAdjust="spacing" textLength="195" x="475.1064" y="4402.9623">Adicionar novo robot à frota</text></g><g id="elem_UC370"><ellipse cx="572.6058" cy="4477.6712" fill="#F1F1F1" rx="74.1558" ry="17.2312" style="stroke:#181818;stroke-width:0.5;"/><text fill="#000000" font-family="sans-serif" font-size="14" lengthAdjust="spacing" textLength="104" x="520.6058" y="4480.9622">Inibir um robot</text></g><g id="elem_UC380"><ellipse cx="572.6065" cy="4558.6693" fill="#F1F1F1" rx="134.1465" ry="29.2293" style="stroke:#181818;stroke-width:0.5;"/><text fill="#000000" font-family="sans-serif" font-size="14" lengthAdjust="spacing" textLength="237" x="454.1065" y="4561.9603">Consultar todos os robots de frota</text></g><g id="elem_UC390"><ellipse cx="572.6102" cy="4668.674" fill="#F1F1F1" rx="218.9702" ry="46.194" style="stroke:#181818;stroke-width:0.5;"/><text fill="#000000" font-family="sans-serif" font-size="14" lengthAdjust="spacing" textLength="412" x="366.6102" y="4671.9651">Pesquisar todos os robots da frota por designação ou tarefa</text></g><g id="elem_UC640"><ellipse cx="572.6122" cy="1947.6684" fill="#F1F1F1" rx="151.3422" ry="32.6684" style="stroke:#181818;stroke-width:0.5;"/><text fill="#000000" font-family="sans-serif" font-size="14" lengthAdjust="spacing" textLength="273" x="436.1122" y="1950.9594">Deployment de um dos módulos do RFP</text></g><g id="elem_UC650"><ellipse cx="572.613" cy="2059.6746" fill="#F1F1F1" rx="208.673" ry="44.1346" style="stroke:#181818;stroke-width:0.5;"/><text fill="#000000" font-family="sans-serif" font-size="14" lengthAdjust="spacing" textLength="391" x="377.113" y="2062.9656">Apenas os clientes da rede interna do DEI possam aceder</text></g><g id="elem_UC660"><ellipse cx="572.6128" cy="2182.6706" fill="#F1F1F1" rx="209.6528" ry="44.3306" style="stroke:#181818;stroke-width:0.5;"/><text fill="#000000" font-family="sans-serif" font-size="14" lengthAdjust="spacing" textLength="393" x="376.1128" y="2185.9616">Apenas os clientes definidos num ficheiro possam aceder</text></g><g id="elem_UC670"><ellipse cx="572.6092" cy="2304.6718" fill="#F1F1F1" rx="202.3092" ry="42.8618" style="stroke:#181818;stroke-width:0.5;"/><text fill="#000000" font-family="sans-serif" font-size="14" lengthAdjust="spacing" textLength="378" x="383.6092" y="2307.9629">Identificar e quantificar os riscos envolvidos da solução</text></g><g id="elem_UC800"><ellipse cx="572.609" cy="2398.6738" fill="#F1F1F1" rx="69.069" ry="16.2138" style="stroke:#181818;stroke-width:0.5;"/><text fill="#000000" font-family="sans-serif" font-size="14" lengthAdjust="spacing" textLength="91" x="524.795" y="2402.543">Definir MBCO</text></g><g id="elem_UC810"><ellipse cx="572.6097" cy="2469.6739" fill="#F1F1F1" rx="89.0197" ry="20.2039" style="stroke:#181818;stroke-width:0.5;"/><text fill="#000000" font-family="sans-serif" font-size="14" lengthAdjust="spacing" textLength="139" x="503.1097" y="2472.965">Proposta RPO e WRT</text></g><g id="elem_UC820"><ellipse cx="572.6132" cy="2548.6666" fill="#F1F1F1" rx="105.1832" ry="23.4366" style="stroke:#181818;stroke-width:0.5;"/><text fill="#000000" font-family="sans-serif" font-size="14" lengthAdjust="spacing" textLength="175" x="485.1132" y="2551.9576">Definir uma pasta pública</text></g><g id="elem_UC830"><ellipse cx="572.608" cy="2652.6696" fill="#F1F1F1" rx="217.498" ry="45.8996" style="stroke:#181818;stroke-width:0.5;"/><text fill="#000000" font-family="sans-serif" font-size="14" lengthAdjust="spacing" textLength="409" x="368.108" y="2655.9606">Obter os utilizadores com mais do que 3 acessos incorretos</text></g><g id="elem_UC1220"><ellipse cx="572.6119" cy="1638.6744" fill="#F1F1F1" rx="133.6719" ry="29.1344" style="stroke:#181818;stroke-width:0.5;"/><text fill="#000000" font-family="sans-serif" font-size="14" lengthAdjust="spacing" textLength="236" x="454.6119" y="1641.9654">Obter caminho entre dois edifícios</text></g><g id="elem_UC510"><ellipse cx="572.6099" cy="1750.674" fill="#F1F1F1" rx="227.3199" ry="47.864" style="stroke:#181818;stroke-width:0.5;"/><text fill="#000000" font-family="sans-serif" font-size="14" lengthAdjust="spacing" textLength="429" x="358.1099" y="1753.965">Obter caminho entre dois edifício otimizando um dado critério</text></g><g id="elem_UC515"><ellipse cx="572.6124" cy="1856.6725" fill="#F1F1F1" rx="103.8124" ry="23.1625" style="stroke:#181818;stroke-width:0.5;"/><text fill="#000000" font-family="sans-serif" font-size="14" lengthAdjust="spacing" textLength="172" x="486.6124" y="1859.9635">Análise de complexidade</text></g><g id="elem_UC90"><ellipse cx="572.6088" cy="35.6698" fill="#F1F1F1" rx="73.7488" ry="17.1498" style="stroke:#181818;stroke-width:0.5;"/><text fill="#000000" font-family="sans-serif" font-size="14" lengthAdjust="spacing" textLength="103" x="521.1088" y="38.9608">Relatório RGPD</text></g><g id="elem_UC610"><ellipse cx="572.6063" cy="111.6733" fill="#F1F1F1" rx="107.0163" ry="23.8033" style="stroke:#181818;stroke-width:0.5;"/><text fill="#000000" font-family="sans-serif" font-size="14" lengthAdjust="spacing" textLength="179" x="483.1063" y="114.9643">Pipeline de build contínuo</text></g><g id="elem_UC620"><ellipse cx="572.6071" cy="198.6674" fill="#F1F1F1" rx="128.9371" ry="28.1874" style="stroke:#181818;stroke-width:0.5;"/><text fill="#000000" font-family="sans-serif" font-size="14" lengthAdjust="spacing" textLength="226" x="459.6071" y="201.9584">Deployment automático na cloud</text></g><g id="elem_UC630"><ellipse cx="572.6096" cy="289.6719" fill="#F1F1F1" rx="129.4096" ry="28.2819" style="stroke:#181818;stroke-width:0.5;"/><text fill="#000000" font-family="sans-serif" font-size="14" lengthAdjust="spacing" textLength="227" x="459.1096" y="292.9629">Deployment num ambiente cloud</text></g><g id="elem_UC535"><ellipse cx="572.6063" cy="377.6733" fill="#F1F1F1" rx="109.3163" ry="24.2633" style="stroke:#181818;stroke-width:0.5;"/><text fill="#000000" font-family="sans-serif" font-size="14" lengthAdjust="spacing" textLength="184" x="480.6063" y="380.9643">Menu com funcionalidades</text></g><g id="elem_UC700"><ellipse cx="572.6087" cy="477.6697" fill="#F1F1F1" rx="192.0487" ry="40.8097" style="stroke:#181818;stroke-width:0.5;"/><text fill="#000000" font-family="sans-serif" font-size="14" lengthAdjust="spacing" textLength="357" x="394.1087" y="480.9607">Partilha de informação dos robots entre os módulos</text></g><g id="elem_UC710"><ellipse cx="572.6116" cy="621.6723" fill="#F1F1F1" rx="329.6116" ry="68.3223" style="stroke:#181818;stroke-width:0.5;"/><text fill="#000000" font-family="sans-serif" font-size="14" lengthAdjust="spacing" textLength="636" x="254.6116" y="624.9633">Partilha de informação dos edificios, pisos, passagens, elevadores e mapas entre os módulos</text></g><g id="elem_UC730"><ellipse cx="572.6077" cy="767.6675" fill="#F1F1F1" rx="203.2877" ry="43.0575" style="stroke:#181818;stroke-width:0.5;"/><text fill="#000000" font-family="sans-serif" font-size="14" lengthAdjust="spacing" textLength="380" x="382.6077" y="770.9585">Partilha de informação dos percursos entre os módulos</text></g><g id="elem_UC601"><ellipse cx="572.615" cy="906.667" fill="#F1F1F1" rx="293.935" ry="61.187" style="stroke:#181818;stroke-width:0.5;"/><text fill="#000000" font-family="sans-serif" font-size="14" lengthAdjust="spacing" textLength="564" x="290.615" y="909.958">Informação do mapa do piso complementado com o módulo de gestão de campus</text></g><g id="elem_UC602"><ellipse cx="572.6128" cy="1055.6746" fill="#F1F1F1" rx="252.9228" ry="52.9846" style="stroke:#181818;stroke-width:0.5;"/><text fill="#000000" font-family="sans-serif" font-size="14" lengthAdjust="spacing" textLength="481" x="332.1128" y="1058.9656">Informação do mapa do piso complementado com texturas e modelos</text></g><g id="elem_UC603"><ellipse cx="572.6147" cy="1171.6729" fill="#F1F1F1" rx="128.4647" ry="28.0929" style="stroke:#181818;stroke-width:0.5;"/><text fill="#000000" font-family="sans-serif" font-size="14" lengthAdjust="spacing" textLength="225" x="460.1147" y="1174.964">Visualizar em 3D o mapa do piso</text></g><g id="elem_UC604"><ellipse cx="572.6144" cy="1278.6749" fill="#F1F1F1" rx="206.2244" ry="43.6449" style="stroke:#181818;stroke-width:0.5;"/><text fill="#000000" font-family="sans-serif" font-size="14" lengthAdjust="spacing" textLength="386" x="379.6144" y="1281.9659">Visualizar uma interface para selecionar o edifício e piso</text></g><g id="elem_UC605"><ellipse cx="572.6081" cy="1407.6736" fill="#F1F1F1" rx="239.6181" ry="50.3236" style="stroke:#181818;stroke-width:0.5;"/><text fill="#000000" font-family="sans-serif" font-size="14" lengthAdjust="spacing" textLength="454" x="345.6081" y="1410.9646">Importar um modelo 3D de um robot e visualizar no mapa do piso</text></g><g id="elem_UC606"><ellipse cx="572.605" cy="1533.667" fill="#F1F1F1" rx="190.585" ry="40.517" style="stroke:#181818;stroke-width:0.5;"/><text fill="#000000" font-family="sans-serif" font-size="14" lengthAdjust="spacing" textLength="354" x="395.605" y="1536.958">Permitir a navegação 3D interativo no mapa do piso</text></g><!--MD5=[90a263586456bcf98c9e87bfa65a5ab5]
link campus to US130--><g id="link_campus_US130"><path d="M98.36,3424.93 C108.71,3295.83 148.75,2883.47 243,2797.67 C307.1,2739.32 409.67,2735.47 483.17,2742.17 " fill="none" id="campus-to-US130" style="stroke:#181818;stroke-width:1.0;"/><polygon fill="#181818" points="487.79,2742.62,479.2216,2737.7638,482.8137,2742.1338,478.4437,2745.7259,487.79,2742.62" style="stroke:#181818;stroke-width:1.0;"/></g><!--MD5=[4509ad53d6fea44502cee04bec41b17f]
link campus to UC150--><g id="link_campus_UC150"><path d="M99.24,3425.33 C111.8,3305.05 156.63,2938.64 243,2863.67 C318.44,2798.17 443.42,2806.55 515.55,2818.57 " fill="none" id="campus-to-UC150" style="stroke:#181818;stroke-width:1.0;"/><polygon fill="#181818" points="520.45,2819.41,512.2531,2813.9501,515.5215,2818.5672,510.9045,2821.8357,520.45,2819.41" style="stroke:#181818;stroke-width:1.0;"/></g><!--MD5=[99a37e1b02ac9d4f74b1fe188ce39b92]
link campus to UC160--><g id="link_campus_UC160"><path d="M100.58,3425 C116,3313.76 166.05,2996.71 243,2931.67 C318.26,2868.05 440.52,2874.51 512.79,2885.64 " fill="none" id="campus-to-UC160" style="stroke:#181818;stroke-width:1.0;"/><polygon fill="#181818" points="517.7,2886.42,509.442,2881.053,512.7624,2885.6328,508.1825,2888.9532,517.7,2886.42" style="stroke:#181818;stroke-width:1.0;"/></g><!--MD5=[9dec3cde39fb49de78e01d7db4e61b5e]
link campus to UC170--><g id="link_campus_UC170"><path d="M95.19,3425.19 C96.76,3336.33 114.15,3116.37 243,3010.67 C310.07,2955.64 412.35,2951.96 484.97,2958.2 " fill="none" id="campus-to-UC170" style="stroke:#181818;stroke-width:1.0;"/><polygon fill="#181818" points="489.52,2958.61,480.9104,2953.8272,484.5397,2958.1664,480.2006,2961.7957,489.52,2958.61" style="stroke:#181818;stroke-width:1.0;"/></g><!--MD5=[1c800424f1fa5f257a082004aef477c2]
link campus to UC180--><g id="link_campus_UC180"><path d="M99.47,3424.96 C109.27,3350.97 141.71,3189.77 243,3110.67 C293.13,3071.52 361,3056.81 422.05,3052.76 " fill="none" id="campus-to-UC180" style="stroke:#181818;stroke-width:1.0;"/><polygon fill="#181818" points="426.8,3052.47,417.576,3049.0178,421.809,3052.7703,418.0565,3057.0033,426.8,3052.47" style="stroke:#181818;stroke-width:1.0;"/></g><!--MD5=[94710f46fbe07930cd6b0702d8d476bc]
link campus to UC190--><g id="link_campus_UC190"><path d="M104.44,3424.94 C120.66,3364.16 161.15,3247.55 243,3191.67 C310.52,3145.57 404.43,3138.03 474.57,3140.44 " fill="none" id="campus-to-UC190" style="stroke:#181818;stroke-width:1.0;"/><polygon fill="#181818" points="479.35,3140.63,470.5171,3136.2735,474.354,3140.4302,470.1973,3144.2671,479.35,3140.63" style="stroke:#181818;stroke-width:1.0;"/></g><!--MD5=[a22398aa66e33adb5dbac9f2e899ea43]
link campus to UC200--><g id="link_campus_UC200"><path d="M110.7,3425.21 C132.17,3376.51 176.37,3294.31 243,3255.67 C326.63,3207.17 442.7,3208.68 512.16,3215.36 " fill="none" id="campus-to-UC200" style="stroke:#181818;stroke-width:1.0;"/><polygon fill="#181818" points="516.82,3215.83,508.2655,3210.9494,511.8451,3215.3297,507.4649,3218.9093,516.82,3215.83" style="stroke:#181818;stroke-width:1.0;"/></g><!--MD5=[3740a41acbad350e6b6c5755944f6b7f]
link campus to UC210--><g id="link_campus_UC210"><path d="M133.8,3424.97 C161.64,3399.29 201.56,3367.19 243,3349.67 C302.02,3324.71 371.75,3312.57 431.77,3306.81 " fill="none" id="campus-to-UC210" style="stroke:#181818;stroke-width:1.0;"/><polygon fill="#181818" points="436.41,3306.38,427.0824,3303.2185,431.4309,3306.8365,427.8128,3311.1851,436.41,3306.38" style="stroke:#181818;stroke-width:1.0;"/></g><!--MD5=[c8cf72546fabdf8b25ba0a95314ab816]
link campus to UC220--><g id="link_campus_UC220"><path d="M157.74,3457 C212.77,3451.1 296.12,3442.18 373.63,3433.87 " fill="none" id="campus-to-UC220" style="stroke:#181818;stroke-width:1.0;"/><polygon fill="#181818" points="378.17,3433.39,368.7975,3430.364,373.198,3433.9186,369.6433,3438.3191,378.17,3433.39" style="stroke:#181818;stroke-width:1.0;"/></g><!--MD5=[95092147ccb33982fb1c9c1c0d997824]
link campus to UC230--><g id="link_campus_UC230"><path d="M157.74,3470.33 C239.55,3479.1 383.94,3494.56 478.7,3504.71 " fill="none" id="campus-to-UC230" style="stroke:#181818;stroke-width:1.0;"/><polygon fill="#181818" points="483.64,3505.24,475.1133,3500.3109,478.668,3504.7114,474.2675,3508.266,483.64,3505.24" style="stroke:#181818;stroke-width:1.0;"/></g><!--MD5=[a5d74e85720715cbe16b9260e554bef1]
link campus to UC240--><g id="link_campus_UC240"><path d="M146.75,3502.24 C173.96,3520.78 208.79,3541.54 243,3553.67 C308.17,3576.76 384.54,3587.86 447.24,3593.15 " fill="none" id="campus-to-UC240" style="stroke:#181818;stroke-width:1.0;"/><polygon fill="#181818" points="452.14,3593.55,443.4887,3588.8431,447.156,3593.1501,442.8489,3596.8174,452.14,3593.55" style="stroke:#181818;stroke-width:1.0;"/></g><!--MD5=[c8bd7157d62e8544dfe8ff23762c256f]
link campus to UC250--><g id="link_campus_UC250"><path d="M115.78,3502.19 C140.04,3544.06 184.77,3609.29 243,3641.67 C303.09,3675.08 378.61,3687.11 442.1,3690.44 " fill="none" id="campus-to-UC250" style="stroke:#181818;stroke-width:1.0;"/><polygon fill="#181818" points="447.08,3690.68,438.2847,3686.2481,442.0859,3690.4374,437.8965,3694.2387,447.08,3690.68" style="stroke:#181818;stroke-width:1.0;"/></g><!--MD5=[a146c0d33746b7deb921f877abd82d60]
link campus to UC260--><g id="link_campus_UC260"><path d="M104.84,3502.18 C121.54,3562.03 162.53,3676.22 243,3731.67 C300.56,3771.33 377.37,3783.73 442.26,3785.8 " fill="none" id="campus-to-UC260" style="stroke:#181818;stroke-width:1.0;"/><polygon fill="#181818" points="446.99,3785.92,438.0958,3781.69,441.9917,3785.7915,437.8902,3789.6873,446.99,3785.92" style="stroke:#181818;stroke-width:1.0;"/></g><!--MD5=[f5ebfdd3713e3f268c5b007ca1941217]
link campus to UC270--><g id="link_campus_UC270"><path d="M98.92,3502.14 C107.84,3577.36 138.9,3743.53 243,3823.67 C304.85,3871.28 393.43,3880.5 463.03,3878.66 " fill="none" id="campus-to-UC270" style="stroke:#181818;stroke-width:1.0;"/><polygon fill="#181818" points="467.77,3878.51,458.6485,3874.7955,462.7725,3878.6675,458.9005,3882.7915,467.77,3878.51" style="stroke:#181818;stroke-width:1.0;"/></g><!--MD5=[f53fdd8e0a922ce80e5d1426c9059e99]
link campus to UC280--><g id="link_campus_UC280"><path d="M95.53,3502.09 C97.85,3589.76 116.81,3805.04 243,3909.67 C303.11,3959.5 391.79,3968.88 461.88,3966.68 " fill="none" id="campus-to-UC280" style="stroke:#181818;stroke-width:1.0;"/><polygon fill="#181818" points="466.66,3966.5,457.5177,3962.8368,461.6634,3966.6856,457.8147,3970.8313,466.66,3966.5" style="stroke:#181818;stroke-width:1.0;"/></g><!--MD5=[ff8f85e11674d5d5c4f7a32cfae70fc6]
link campus to UC290--><g id="link_campus_UC290"><path d="M100.65,3502.37 C116.27,3613.72 166.8,3931.21 243,3997.67 C301.11,4048.35 388.38,4058.03 458.39,4055.75 " fill="none" id="campus-to-UC290" style="stroke:#181818;stroke-width:1.0;"/><polygon fill="#181818" points="463.17,4055.57,454.0173,4051.9329,458.174,4055.7698,454.3371,4059.9265,463.17,4055.57" style="stroke:#181818;stroke-width:1.0;"/></g><!--MD5=[41848286fc8cea20823c835ddaf6b289]
link campus to UC300--><g id="link_campus_UC300"><path d="M99.13,3502.35 C111.5,3625.59 156.13,4005.64 243,4086.67 C285.32,4126.14 344.79,4143 401.53,4148.9 " fill="none" id="campus-to-UC300" style="stroke:#181818;stroke-width:1.0;"/><polygon fill="#181818" points="406.21,4149.35,397.6278,4144.5182,401.2323,4148.878,396.8726,4152.4825,406.21,4149.35" style="stroke:#181818;stroke-width:1.0;"/></g><!--MD5=[eb872d4a52f48bce890b7f7ab4fea263]
link campus to UC310--><g id="link_campus_UC310"><path d="M97.5,3502.3 C105.43,3639.4 139.47,4099.48 243,4194.67 C310.44,4256.67 421.42,4256.16 495.5,4246.96 " fill="none" id="campus-to-UC310" style="stroke:#181818;stroke-width:1.0;"/><polygon fill="#181818" points="500.16,4246.36,490.7283,4243.5239,495.1997,4246.989,491.7347,4251.4604,500.16,4246.36" style="stroke:#181818;stroke-width:1.0;"/></g><!--MD5=[8f7569fe17f7f048e572d7801c8bd196]
link frota to UC350--><g id="link_frota_UC350"><path d="M130.65,4439.04 C158.32,4411.28 199.38,4375.55 243,4356.67 C307.96,4328.54 386.38,4317.52 450.32,4313.65 " fill="none" id="frota-to-UC350" style="stroke:#181818;stroke-width:1.0;"/><polygon fill="#181818" points="454.95,4313.39,445.7359,4309.9115,449.9582,4313.6761,446.1936,4317.8984,454.95,4313.39" style="stroke:#181818;stroke-width:1.0;"/></g><!--MD5=[3a8923b1ca3c4c38b1c9b66c480b0839]
link frota to UC360--><g id="link_frota_UC360"><path d="M147.79,4463.87 C175.87,4456.82 211.16,4448.51 243,4442.67 C315.64,4429.33 398.05,4418.56 462.17,4411.13 " fill="none" id="frota-to-UC360" style="stroke:#181818;stroke-width:1.0;"/><polygon fill="#181818" points="466.82,4410.6,457.4221,4407.6539,461.8527,4411.171,458.3356,4415.6016,466.82,4410.6" style="stroke:#181818;stroke-width:1.0;"/></g><!--MD5=[cf8f8b4ccd949797d8e3b6bccdcd7c31]
link frota to UC370--><g id="link_frota_UC370"><path d="M147.81,4477.67 C231.02,4477.67 394.07,4477.67 491.88,4477.67 " fill="none" id="frota-to-UC370" style="stroke:#181818;stroke-width:1.0;"/><polygon fill="#181818" points="496.72,4477.67,487.72,4473.67,491.72,4477.67,487.72,4481.67,496.72,4477.67" style="stroke:#181818;stroke-width:1.0;"/></g><!--MD5=[1555c764bd853e34ffe4347953615b7d]
link frota to UC380--><g id="link_frota_UC380"><path d="M147.81,4491.34 C175.89,4498.36 211.19,4506.68 243,4512.67 C310.19,4525.31 385.7,4536.12 447.38,4544.07 " fill="none" id="frota-to-UC380" style="stroke:#181818;stroke-width:1.0;"/><polygon fill="#181818" points="452.18,4544.69,443.7692,4539.5658,447.2215,4544.047,442.7403,4547.4993,452.18,4544.69" style="stroke:#181818;stroke-width:1.0;"/></g><!--MD5=[9f89008bb06702c14d1037b816fd9a4e]
link frota to UC390--><g id="link_frota_UC390"><path d="M129.13,4516.28 C156.76,4545.45 198.47,4584.04 243,4605.67 C281.85,4624.53 325.85,4637.75 368.73,4647.02 " fill="none" id="frota-to-UC390" style="stroke:#181818;stroke-width:1.0;"/><polygon fill="#181818" points="373.56,4648.04,365.5737,4642.2764,368.6666,4647.0128,363.9302,4650.1058,373.56,4648.04" style="stroke:#181818;stroke-width:1.0;"/></g><!--MD5=[3c0cffd1a31459c46544354899812082]
link admin to UC640--><g id="link_admin_UC640"><path d="M99.4,2313.14 C109.09,2239.07 141.37,2077.11 243,1997.67 C292.45,1959.01 359.2,1944.18 419.62,1939.9 " fill="none" id="admin-to-UC640" style="stroke:#181818;stroke-width:1.0;"/><polygon fill="#181818" points="424.31,1939.59,415.0762,1936.1641,419.3199,1939.9046,415.5795,1944.1483,424.31,1939.59" style="stroke:#181818;stroke-width:1.0;"/></g><!--MD5=[9af18e0a3f51f352e9e60dbada9e755a]
link admin to UC650--><g id="link_admin_UC650"><path d="M108.85,2313.14 C129.14,2260.67 172.96,2167.87 243,2120.67 C278.66,2096.63 321.21,2081.4 363.67,2071.89 " fill="none" id="admin-to-UC650" style="stroke:#181818;stroke-width:1.0;"/><polygon fill="#181818" points="368.46,2070.85,358.8176,2068.8438,363.5731,2071.9074,360.5095,2076.6629,368.46,2070.85" style="stroke:#181818;stroke-width:1.0;"/></g><!--MD5=[08f28a49cfeded8f95deaeb64531fe88]
link admin to UC660--><g id="link_admin_UC660"><path d="M137.86,2313.1 C165.77,2289.77 204.22,2261.39 243,2244.67 C285.6,2226.3 333.63,2213.36 379.54,2204.24 " fill="none" id="admin-to-UC660" style="stroke:#181818;stroke-width:1.0;"/><polygon fill="#181818" points="384.23,2203.33,374.624,2201.1566,379.3255,2204.3023,376.1797,2209.0038,384.23,2203.33" style="stroke:#181818;stroke-width:1.0;"/></g><!--MD5=[44c2ed59b862ced16e8b47582a04da22]
link admin to UC670--><g id="link_admin_UC670"><path d="M183.38,2342.99 C239.2,2337.48 313.63,2330.13 382.38,2323.35 " fill="none" id="admin-to-UC670" style="stroke:#181818;stroke-width:1.0;"/><polygon fill="#181818" points="387.08,2322.88,377.7337,2319.7741,382.1037,2323.3662,378.5116,2327.7362,387.08,2322.88" style="stroke:#181818;stroke-width:1.0;"/></g><!--MD5=[1cd37c3baac52a9f4ae521a3910174b1]
link admin to UC800--><g id="link_admin_UC800"><path d="M183.38,2360.34 C275.17,2369.4 417.29,2383.43 501.73,2391.77 " fill="none" id="admin-to-UC800" style="stroke:#181818;stroke-width:1.0;"/><polygon fill="#181818" points="506.7,2392.26,498.1455,2387.3794,501.7251,2391.7597,497.3449,2395.3393,506.7,2392.26" style="stroke:#181818;stroke-width:1.0;"/></g><!--MD5=[5c2498323f9977a9bd1e419d90815177]
link admin to UC810--><g id="link_admin_UC810"><path d="M153.4,2390.33 C179.68,2406.03 211.81,2422.77 243,2432.67 C319.34,2456.88 410.06,2465.69 476.82,2468.7 " fill="none" id="admin-to-UC810" style="stroke:#181818;stroke-width:1.0;"/><polygon fill="#181818" points="481.69,2468.91,472.8695,2464.5283,476.6946,2468.6959,472.527,2472.521,481.69,2468.91" style="stroke:#181818;stroke-width:1.0;"/></g><!--MD5=[29c884cb1fd4aa3e85d3cfc5aeb7a342]
link admin to UC820--><g id="link_admin_UC820"><path d="M120.21,2390.35 C146.03,2427.2 190.13,2480.89 243,2507.67 C310.7,2541.95 395.95,2551.78 462.65,2553.26 " fill="none" id="admin-to-UC820" style="stroke:#181818;stroke-width:1.0;"/><polygon fill="#181818" points="467.53,2553.35,458.5999,2549.1963,462.5307,2553.2643,458.4628,2557.1951,467.53,2553.35" style="stroke:#181818;stroke-width:1.0;"/></g><!--MD5=[eb06547a8ae91cbee93894e03e132893]
link admin to UC830--><g id="link_admin_UC830"><path d="M108.22,2390.37 C128.01,2444.17 171.52,2540.48 243,2589.67 C276.98,2613.05 317.39,2628.31 358.05,2638.15 " fill="none" id="admin-to-UC830" style="stroke:#181818;stroke-width:1.0;"/><polygon fill="#181818" points="362.58,2639.21,354.7481,2633.2383,357.7154,2638.0545,352.8992,2641.0218,362.58,2639.21" style="stroke:#181818;stroke-width:1.0;"/></g><!--MD5=[7a34eab1e34e8657387e9a3a046ecb39]
link tarefa to UC1220--><g id="link_tarefa_UC1220"><path d="M153.34,1720.79 C180.01,1708.17 212.46,1694.4 243,1685.67 C306.61,1667.47 379.26,1656.14 440.05,1649.18 " fill="none" id="tarefa-to-UC1220" style="stroke:#181818;stroke-width:1.0;"/><polygon fill="#181818" points="444.76,1648.65,435.3705,1645.6772,439.7911,1649.2069,436.2615,1653.6275,444.76,1648.65" style="stroke:#181818;stroke-width:1.0;"/></g><!--MD5=[e6aa25c0a65d015539a53a3c8ad33245]
link tarefa to UC510--><g id="link_tarefa_UC510"><path d="M153.4,1750.67 C200.37,1750.67 269.88,1750.67 338.79,1750.67 " fill="none" id="tarefa-to-UC510" style="stroke:#181818;stroke-width:1.0;"/><polygon fill="#181818" points="343.52,1750.67,334.52,1746.67,338.52,1750.67,334.52,1754.67,343.52,1750.67" style="stroke:#181818;stroke-width:1.0;"/></g><!--MD5=[4c98a36b9626b78ec1b65896d50c9aa0]
link tarefa to UC515--><g id="link_tarefa_UC515"><path d="M153.27,1780.8 C179.92,1793.47 212.39,1807.21 243,1815.67 C315.47,1835.69 399.66,1845.96 464.68,1851.21 " fill="none" id="tarefa-to-UC515" style="stroke:#181818;stroke-width:1.0;"/><polygon fill="#181818" points="469.4,1851.58,460.7353,1846.8977,464.4149,1851.1943,460.1183,1854.8739,469.4,1851.58" style="stroke:#181818;stroke-width:1.0;"/></g><!--MD5=[14fc5d991de99b59e09080b04d9997d8]
link ator to UC90--><g id="link_ator_UC90"><path d="M98.89,656.15 C110.61,532.55 153.64,149.42 243,70.67 C316.37,6 437.73,11.94 510.64,23.12 " fill="none" id="ator-to-UC90" style="stroke:#181818;stroke-width:1.0;"/><polygon fill="#181818" points="515.17,23.84,506.912,18.473,510.2324,23.0528,505.6525,26.3732,515.17,23.84" style="stroke:#181818;stroke-width:1.0;"/></g><!--MD5=[f20e192baec4074126c879379c68558a]
link ator to UC610--><g id="link_ator_UC610"><path d="M100.42,656.16 C115.6,543.8 165.38,220.01 243,152.67 C306.68,97.42 405.21,92.01 477.79,97.47 " fill="none" id="ator-to-UC610" style="stroke:#181818;stroke-width:1.0;"/><polygon fill="#181818" points="482.34,97.84,473.6887,93.1331,477.356,97.4401,473.0489,101.1074,482.34,97.84" style="stroke:#181818;stroke-width:1.0;"/></g><!--MD5=[eda31e4b5d1bd8ea307ea361c57e9606]
link ator to UC620--><g id="link_ator_UC620"><path d="M95.39,656.18 C97.4,567.82 115.71,349.89 243,243.67 C299.86,196.21 382.54,185.08 450.73,185.76 " fill="none" id="ator-to-UC620" style="stroke:#181818;stroke-width:1.0;"/><polygon fill="#181818" points="455.35,185.83,446.4081,181.7018,450.3505,185.7586,446.2938,189.701,455.35,185.83" style="stroke:#181818;stroke-width:1.0;"/></g><!--MD5=[dbc2717ff47c2be40fd9067f53aae104]
link ator to UC630--><g id="link_ator_UC630"><path d="M99.06,656.09 C108.19,581.08 139.6,415.92 243,335.67 C299.87,291.53 379.53,279.52 446.17,278.79 " fill="none" id="ator-to-UC630" style="stroke:#181818;stroke-width:1.0;"/><polygon fill="#181818" points="451.06,278.76,442.0373,274.8115,446.0601,278.7886,442.083,282.8114,451.06,278.76" style="stroke:#181818;stroke-width:1.0;"/></g><!--MD5=[2e3a9b551acc1c0eb024cfccea35edf3]
link ator to UC535--><g id="link_ator_UC535"><path d="M104.19,656.05 C120.17,594.8 160.44,476.49 243,419.67 C307.73,375.11 396.97,366.15 466.12,367.48 " fill="none" id="ator-to-UC535" style="stroke:#181818;stroke-width:1.0;"/><polygon fill="#181818" points="470.81,367.6,461.9038,363.3954,465.8113,367.4857,461.7209,371.3933,470.81,367.6" style="stroke:#181818;stroke-width:1.0;"/></g><!--MD5=[cfb7faf3337b9ebc9cabfc9e0cd406c6]
link ator to UC700--><g id="link_ator_UC700"><path d="M109.88,671.29 C133.12,635.71 182.49,568.63 243,535.67 C284.99,512.79 334.07,498.64 381.3,489.96 " fill="none" id="ator-to-UC700" style="stroke:#181818;stroke-width:1.0;"/><polygon fill="#181818" points="386.16,489.09,376.5998,486.7229,381.2368,489.963,377.9967,494.6,386.16,489.09" style="stroke:#181818;stroke-width:1.0;"/></g><!--MD5=[a15ebf3de8f50089d48ba0b33b852cc9]
link ator to UC710--><g id="link_ator_UC710"><path d="M109.75,692.48 C140.69,687.74 217.9,675.9 300.53,663.23 " fill="none" id="ator-to-UC710" style="stroke:#181818;stroke-width:1.0;"/><polygon fill="#181818" points="304.99,662.55,295.4881,659.9588,300.0476,663.3071,296.6994,667.8666,304.99,662.55" style="stroke:#181818;stroke-width:1.0;"/></g><!--MD5=[54397bc51a834c881054782de69c7936]
link ator to UC730--><g id="link_ator_UC730"><path d="M109.75,696.85 C153.18,703.51 287.81,724.15 400.58,741.44 " fill="none" id="ator-to-UC730" style="stroke:#181818;stroke-width:1.0;"/><polygon fill="#181818" points="405.46,742.19,397.1694,736.8734,400.5176,741.4329,395.9581,744.7812,405.46,742.19" style="stroke:#181818;stroke-width:1.0;"/></g><!--MD5=[2d51b6e3c6803212f6bd71ebdeb3e5d3]
link ator to UC601--><g id="link_ator_UC601"><path d="M109.79,712.51 C134.01,741.51 186.08,798.65 243,828.67 C272.17,844.05 304.39,856.44 336.91,866.41 " fill="none" id="ator-to-UC601" style="stroke:#181818;stroke-width:1.0;"/><polygon fill="#181818" points="341.53,867.8,334.0677,861.3723,336.7428,866.3567,331.7585,869.0318,341.53,867.8" style="stroke:#181818;stroke-width:1.0;"/></g><!--MD5=[b424aafd2b9a54f768b3d13fc826ccf3]
link ator to UC602--><g id="link_ator_UC602"><path d="M103.76,733.38 C119.36,796.58 159.39,921.34 243,985.67 C270.09,1006.51 302,1021.48 335.1,1032.17 " fill="none" id="ator-to-UC602" style="stroke:#181818;stroke-width:1.0;"/><polygon fill="#181818" points="339.85,1033.66,332.4639,1027.145,335.0801,1032.1605,330.0647,1034.7768,339.85,1033.66" style="stroke:#181818;stroke-width:1.0;"/></g><!--MD5=[76af9acebecc44b2cb3b50ea7457fdce]
link ator to UC603--><g id="link_ator_UC603"><path d="M96.09,733.38 C99.66,819.07 121.17,1025.1 243,1125.67 C299.82,1172.57 381.88,1184.09 449.78,1183.87 " fill="none" id="ator-to-UC603" style="stroke:#181818;stroke-width:1.0;"/><polygon fill="#181818" points="454.38,1183.83,445.346,1179.9073,449.3802,1183.8729,445.4146,1187.907,454.38,1183.83" style="stroke:#181818;stroke-width:1.0;"/></g><!--MD5=[fa223a1006e8563271641b8ad1919db5]
link ator to UC604--><g id="link_ator_UC604"><path d="M101.05,733.18 C117.57,842.47 169.92,1150.97 243,1217.67 C275.37,1247.21 317.25,1264.63 360.21,1274.51 " fill="none" id="ator-to-UC604" style="stroke:#181818;stroke-width:1.0;"/><polygon fill="#181818" points="365.08,1275.59,357.1457,1269.755,360.1961,1274.519,355.4321,1277.5693,365.08,1275.59" style="stroke:#181818;stroke-width:1.0;"/></g><!--MD5=[67382b5da03ba2e76aa72e13cca0585d]
link ator to UC605--><g id="link_ator_UC605"><path d="M98.93,733.22 C110.91,858.89 154.99,1253.46 243,1339.67 C268.48,1364.62 300.56,1381.53 334.62,1392.81 " fill="none" id="ator-to-UC605" style="stroke:#181818;stroke-width:1.0;"/><polygon fill="#181818" points="339.11,1394.25,331.7651,1387.6885,334.3497,1392.7204,329.3178,1395.305,339.11,1394.25" style="stroke:#181818;stroke-width:1.0;"/></g><!--MD5=[a3ac2f786f1e0d8082ef3f03f1671fb5]
link ator to UC606--><g id="link_ator_UC606"><path d="M97.16,733.21 C104.13,875.67 135.77,1369.71 243,1475.67 C278.57,1510.81 327.5,1528.85 376.75,1537.32 " fill="none" id="ator-to-UC606" style="stroke:#181818;stroke-width:1.0;"/><polygon fill="#181818" points="381.58,1538.11,373.3524,1532.6964,376.6469,1537.295,372.0483,1540.5894,381.58,1538.11" style="stroke:#181818;stroke-width:1.0;"/></g><!--MD5=[13f30116f422fd20b8640dd6e393da69]
@startuml
left to right direction
actor "Gestor de Frota" as frota
actor "Gestor de Campus" as campus
actor "Administrador de Sistema" as admin
actor "Gestor de tarefas" as tarefa
actor "Ator" as ator
usecase "Upload mapa do campus" as US130
usecase "Criar Edificio" as UC150
usecase "Editar Edifício" as UC160
usecase "Listar todos os Edifícios" as UC170
usecase "Listar Edifícios com min e max de pisos" as UC180
usecase "Criar Piso de um Edificio" as UC190
usecase "Editar Piso" as UC200
usecase "Listar todos os Pisos de um Edificio" as UC210
usecase "Listar Pisos de Edifício com passagens para outros edifícios"  as UC220
usecase "Carregar Mapa de Piso" as UC230
usecase "Criar Passagem entre Edifícios" as UC240
usecase "Editar passagem entre ediifícios" as UC250
usecase "Listar passagens entre 2 edifícios" as UC260
usecase "Criar Elevador de um Edifício" as UC270
usecase "Editar Elevador de um Edifício" as UC280
usecase "Listar Elevadores de um Edifício" as UC290
usecase "Listar pisos de edifícios servidos por elevador" as UC300
usecase "Criar Sala de um Piso" as UC310

usecase "Adicionar novo tipo de robot" as UC350
usecase "Adicionar novo robot à frota" as UC360
usecase "Inibir um robot" as UC370
usecase "Consultar todos os robots de frota" as UC380
usecase "Pesquisar todos os robots da frota por designação ou tarefa" as UC390

usecase "Deployment de um dos módulos do RFP" as UC640
usecase "Apenas os clientes da rede interna do DEI possam aceder" as UC650
usecase "Apenas os clientes definidos num ficheiro possam aceder" as UC660
usecase "Identificar e quantificar os riscos envolvidos da solução" as UC670
usecase "Definir MBCO" as UC800
usecase "Proposta RPO e WRT" as UC810
usecase "Definir uma pasta pública" as UC820
usecase "Obter os utilizadores com mais do que 3 acessos incorretos" as UC830

usecase "Obter caminho entre dois edifícios" as UC1220
usecase "Obter caminho entre dois edifício otimizando um dado critério" as UC510
usecase "Análise de complexidade" as UC515

usecase "Relatório RGPD" as UC90

usecase "Pipeline de build contínuo" as UC610
usecase "Deployment automático na cloud" as UC620
usecase "Deployment num ambiente cloud" as UC630

usecase "Menu com funcionalidades" as UC535
usecase "Partilha de informação dos robots entre os módulos" as UC700
usecase "Partilha de informação dos edificios, pisos, passagens, elevadores e mapas entre os módulos" as UC710
usecase "Partilha de informação dos percursos entre os módulos" as UC730

usecase "Informação do mapa do piso complementado com o módulo de gestão de campus" as UC601
usecase "Informação do mapa do piso complementado com texturas e modelos" as UC602
usecase "Visualizar em 3D o mapa do piso" as UC603
usecase "Visualizar uma interface para selecionar o edifício e piso" as UC604
usecase "Importar um modelo 3D de um robot e visualizar no mapa do piso" as UC605
usecase "Permitir a navegação 3D interativo no mapa do piso" as UC606

campus - -> US130
campus - -> UC150
campus - -> UC160
campus - -> UC170
campus - -> UC180
campus - -> UC190
campus - -> UC200
campus - -> UC210
campus - -> UC220
campus - -> UC230
campus - -> UC240
campus - -> UC250
campus - -> UC260
campus - -> UC270
campus - -> UC280
campus - -> UC290
campus - -> UC300
campus - -> UC310

frota - -> UC350
frota - -> UC360
frota - -> UC370
frota - -> UC380
frota - -> UC390

admin - -> UC640
admin - -> UC650
admin - -> UC660
admin - -> UC670
admin - -> UC800
admin - -> UC810
admin - -> UC820
admin - -> UC830

tarefa - -> UC1220
tarefa - -> UC510
tarefa - -> UC515

ator - -> UC90
ator - -> UC610
ator - -> UC620
ator - -> UC630
ator - -> UC535
ator - -> UC700
ator - -> UC710
ator - -> UC730
ator - -> UC601
ator - -> UC602
ator - -> UC603
ator - -> UC604
ator - -> UC605
ator - -> UC606
@enduml

PlantUML version 1.2022.7(Mon Aug 22 18:01:30 WEST 2022)
(GPL source distribution)
Java Runtime: OpenJDK Runtime Environment
JVM: OpenJDK 64-Bit Server VM
Default Encoding: UTF-8
Language: en
Country: PT
--></g></svg>