<?xml version="1.0" encoding="UTF-8" standalone="no"?><svg xmlns="http://www.w3.org/2000/svg" xmlns:xlink="http://www.w3.org/1999/xlink" contentStyleType="text/css" height="10213px" preserveAspectRatio="none" style="width:2511px;height:10213px;background:#FFFFFF;" version="1.1" viewBox="0 0 2511 10213" width="2511px" zoomAndPan="magnify"><defs/><g><!--MD5=[79a439086b036a57b90a01d7b2f8bbd1]
entity admin--><g id="elem_admin"><ellipse cx="86.5" cy="8531.17" fill="#F1F1F1" rx="8" ry="8" style="stroke:#181818;stroke-width:0.5;"/><path d="M86.5,8539.17 L86.5,8566.17 M73.5,8547.17 L99.5,8547.17 M86.5,8566.17 L73.5,8581.17 M86.5,8566.17 L99.5,8581.17 " fill="none" style="stroke:#181818;stroke-width:0.5;"/><text fill="#000000" font-family="sans-serif" font-size="14" lengthAdjust="spacing" textLength="161" x="6" y="8597.2032">Administrador de Sistema</text></g><!--MD5=[caed0a0171eceed252334cdedead97cf]
entity administrador--><g id="elem_administrador"><ellipse cx="86.5" cy="6283.17" fill="#F1F1F1" rx="8" ry="8" style="stroke:#181818;stroke-width:0.5;"/><path d="M86.5,6291.17 L86.5,6318.17 M73.5,6299.17 L99.5,6299.17 M86.5,6318.17 L73.5,6333.17 M86.5,6318.17 L99.5,6333.17 " fill="none" style="stroke:#181818;stroke-width:0.5;"/><text fill="#000000" font-family="sans-serif" font-size="14" lengthAdjust="spacing" textLength="87" x="43" y="6349.2032">Administrador</text></g><!--MD5=[e17099c48b5761d5a439ffacb1317c01]
entity tarefa--><g id="elem_tarefa"><ellipse cx="86.5" cy="5787.17" fill="#F1F1F1" rx="8" ry="8" style="stroke:#181818;stroke-width:0.5;"/><path d="M86.5,5795.17 L86.5,5822.17 M73.5,5803.17 L99.5,5803.17 M86.5,5822.17 L73.5,5837.17 M86.5,5822.17 L99.5,5837.17 " fill="none" style="stroke:#181818;stroke-width:0.5;"/><text fill="#000000" font-family="sans-serif" font-size="14" lengthAdjust="spacing" textLength="111" x="31" y="5853.2032">Gestor de tarefas</text></g><!--MD5=[a7ee2f456deb7d80d2223ae29fae1480]
entity utente--><g id="elem_utente"><ellipse cx="86.5" cy="4792.17" fill="#F1F1F1" rx="8" ry="8" style="stroke:#181818;stroke-width:0.5;"/><path d="M86.5,4800.17 L86.5,4827.17 M73.5,4808.17 L99.5,4808.17 M86.5,4827.17 L73.5,4842.17 M86.5,4827.17 L99.5,4842.17 " fill="none" style="stroke:#181818;stroke-width:0.5;"/><text fill="#000000" font-family="sans-serif" font-size="14" lengthAdjust="spacing" textLength="41" x="66" y="4858.2032">Utente</text></g><!--MD5=[00215306fccc713fea5009867920006c]
entity ator--><g id="elem_ator"><ellipse cx="86.5" cy="2635.17" fill="#F1F1F1" rx="8" ry="8" style="stroke:#181818;stroke-width:0.5;"/><path d="M86.5,2643.17 L86.5,2670.17 M73.5,2651.17 L99.5,2651.17 M86.5,2670.17 L73.5,2685.17 M86.5,2670.17 L99.5,2685.17 " fill="none" style="stroke:#181818;stroke-width:0.5;"/><text fill="#000000" font-family="sans-serif" font-size="14" lengthAdjust="spacing" textLength="26" x="73.5" y="2701.2032">Ator</text></g><!--MD5=[1c5ad13aafd501287d5c5f7c4417cbfa]
entity arquiteto--><g id="elem_arquiteto"><ellipse cx="86.5" cy="514.17" fill="#F1F1F1" rx="8" ry="8" style="stroke:#181818;stroke-width:0.5;"/><path d="M86.5,522.17 L86.5,549.17 M73.5,530.17 L99.5,530.17 M86.5,549.17 L73.5,564.17 M86.5,549.17 L99.5,564.17 " fill="none" style="stroke:#181818;stroke-width:0.5;"/><text fill="#000000" font-family="sans-serif" font-size="14" lengthAdjust="spacing" textLength="139" x="17" y="580.2032">Arquitecto de Solução</text></g><g id="elem_UC680"><ellipse cx="1366.4243" cy="6566.8549" fill="#F1F1F1" rx="403.9243" ry="83.1849" style="stroke:#181818;stroke-width:0.5;"/><text fill="#000000" font-family="sans-serif" font-size="14" lengthAdjust="spacing" textLength="785" x="973.9243" y="6570.5834">Como administrador da organização quero um plano de recuperação de desastre que satisfaça o MBCO definido no sprint B</text></g><g id="elem_UC690"><ellipse cx="1366.4225" cy="6824.5545" fill="#F1F1F1" rx="684.9225" ry="139.3845" style="stroke:#181818;stroke-width:0.5;"/><text fill="#000000" font-family="sans-serif" font-size="14" lengthAdjust="spacing" textLength="1349" x="691.9225" y="6828.283">Como administrador da organização quero que me seja apresentada de forma justificada a ou as alterações a realizar na infraestrutura por forma a assegurar um MTD (Maximum Tolerable Downtime) de 20 minutos</text></g><g id="elem_UC840"><ellipse cx="1366.3531" cy="7229.4406" fill="#F1F1F1" rx="1139.3531" ry="230.2706" style="stroke:#181818;stroke-width:0.5;"/><text fill="#000000" font-family="sans-serif" font-size="14" lengthAdjust="spacing" textLength="2259" x="236.8531" y="7233.1691">Como administrador de sistemas quero que seja realizada uma cópia de segurança da(s) DB(s) para um ambiente de Cloud através de um script que a renomeie para o formato &lt;nome_da_db&gt;_yyyymmdd sendo &lt;nome_da_db&gt; o nome da base de dados, yyyy o ano de realização da cópia, mm o mês de realização da cópia e dd o dia da realização da cópia</text></g><g id="elem_UC850"><ellipse cx="1366.5249" cy="7687.875" fill="#F1F1F1" rx="949.0249" ry="192.205" style="stroke:#181818;stroke-width:0.5;"/><text fill="#000000" font-family="sans-serif" font-size="14" lengthAdjust="spacing" textLength="1878" x="427.5249" y="7691.6035">Como administrador de sistemas quero que utilizando o Backup elaborado na US 840, seja criado um script quer faça a gestão dos ficheiros resultantes desse backup, no seguinte calendário. 1 Backup por mês no último ano, 1 backup por semana no último mês, 1 backup por dia na última semana</text></g><g id="elem_UC860"><ellipse cx="1366.2715" cy="8070.7243" fill="#F1F1F1" rx="765.7715" ry="155.5543" style="stroke:#181818;stroke-width:0.5;"/><text fill="#000000" font-family="sans-serif" font-size="14" lengthAdjust="spacing" textLength="1511" x="610.7715" y="8074.4528">Como administrador de sistemas quero que o processo da US da cópia de segurança da DB seja mantido no log do Linux, num contexto adequado, e alertado o administrador no acesso à consola se ocorrer uma falha grave neste processo</text></g><g id="elem_UC870"><ellipse cx="1366.3568" cy="8407.6414" fill="#F1F1F1" rx="717.8568" ry="145.9714" style="stroke:#181818;stroke-width:0.5;"/><text fill="#000000" font-family="sans-serif" font-size="14" lengthAdjust="spacing" textLength="1415" x="658.8568" y="8411.3699">Como administrador de sistemas quero que a cópia de segurança da US da cópia de segurança da DB tenha um tempo de vida não superior a 7 (sete) dias exceto no indicado na US de retenção das cópias mensais e anuais</text></g><g id="elem_UC880"><ellipse cx="1366.5535" cy="8716.5807" fill="#F1F1F1" rx="627.5535" ry="127.9107" style="stroke:#181818;stroke-width:0.5;"/><text fill="#000000" font-family="sans-serif" font-size="14" lengthAdjust="spacing" textLength="1234" x="749.5535" y="8720.3092">Como administrador da organização quero que me seja apresentado um BIA (Business Impact Analysis) da solução final, adaptando se e onde aplicável o(s) risco(s) identificados no sprint anterior</text></g><g id="elem_UC890"><ellipse cx="1366.6086" cy="8974.7917" fill="#F1F1F1" rx="463.6086" ry="95.1217" style="stroke:#181818;stroke-width:0.5;"/><text fill="#000000" font-family="sans-serif" font-size="14" lengthAdjust="spacing" textLength="905" x="914.1086" y="8978.5202">Como administrador da organização quero que seja implementada uma gestão de acessos que satisfaça os critérios apropriados de segurança</text></g><g id="elem_UC900"><ellipse cx="1366.4518" cy="9207.6604" fill="#F1F1F1" rx="500.4518" ry="102.4904" style="stroke:#181818;stroke-width:0.5;"/><text fill="#000000" font-family="sans-serif" font-size="14" lengthAdjust="spacing" textLength="979" x="876.9518" y="9211.3889">Como administrador da organização quero que seja implementado de forma justificada um sistema de clustering entre os sistemas que implementam o SPA</text></g><g id="elem_UC910"><ellipse cx="1366.5251" cy="9444.575" fill="#F1F1F1" rx="482.5251" ry="98.905" style="stroke:#181818;stroke-width:0.5;"/><text fill="#000000" font-family="sans-serif" font-size="14" lengthAdjust="spacing" textLength="943" x="895.0251" y="9448.3035">Como administrador de sistemas quero que o administrador tenha um acesso SSH à maquina virtual, apenas por certificado, sem recurso a password</text></g><g id="elem_UC920"><ellipse cx="1366.4228" cy="9682.6546" fill="#F1F1F1" rx="507.9228" ry="103.9846" style="stroke:#181818;stroke-width:0.5;"/><text fill="#000000" font-family="sans-serif" font-size="14" lengthAdjust="spacing" textLength="994" x="869.4228" y="9686.3831">Como administrador de sistemas quero que para agilização entre as várias equipas seja criada uma partilha pública de ficheiros, formato SMB/CIFS  ou NFS .</text></g><g id="elem_UC930"><ellipse cx="1366.5227" cy="10014.7745" fill="#F1F1F1" rx="951.0227" ry="192.6045" style="stroke:#181818;stroke-width:0.5;"/><text fill="#000000" font-family="sans-serif" font-size="14" lengthAdjust="spacing" textLength="1882" x="425.5227" y="10018.5031">Como administrador de sistemas temos de garantir que em caso de necessidade os backups foram efetuados corretamente. Para isso devemos automatizar a sua reposição, validando no final o funcionamento do sistema (Ex. Base de Dados - executar uma query SQL com sucesso após reposição)</text></g><g id="elem_UC460"><ellipse cx="1366.6916" cy="4063.9083" fill="#F1F1F1" rx="576.6916" ry="117.7383" style="stroke:#181818;stroke-width:0.5;"/><text fill="#000000" font-family="sans-serif" font-size="14" lengthAdjust="spacing" textLength="1132" x="800.6916" y="4067.6368">Como utente do sistema pretendo requisitar uma tarefa indicando os parâmetros necessários à sua execução, nomeadamente o ponto inicial e o término e qual a tarefa pretendida</text></g><g id="elem_UC470"><ellipse cx="1366.2945" cy="5584.7289" fill="#F1F1F1" rx="230.7945" ry="48.5589" style="stroke:#181818;stroke-width:0.5;"/><text fill="#000000" font-family="sans-serif" font-size="14" lengthAdjust="spacing" textLength="435" x="1148.7945" y="5588.4574">Como gestor de tarefas pretendo aprovar ou recusar uma requisição</text></g><g id="elem_UC480"><ellipse cx="1366.2944" cy="5730.8289" fill="#F1F1F1" rx="298.7944" ry="62.1589" style="stroke:#181818;stroke-width:0.5;"/><text fill="#000000" font-family="sans-serif" font-size="14" lengthAdjust="spacing" textLength="573" x="1079.7944" y="5734.5574">Como gestor de tarefas pretendo consultar as requisições de tarefas ainda não aprovadas</text></g><g id="elem_UC490"><ellipse cx="1366.6203" cy="5904.8941" fill="#F1F1F1" rx="374.1203" ry="77.2241" style="stroke:#181818;stroke-width:0.5;"/><text fill="#000000" font-family="sans-serif" font-size="14" lengthAdjust="spacing" textLength="725" x="1004.1203" y="5908.6226">Como gestor de tarefas pretendo pesquisar as requisições de tarefas por estado, por tipo de dispositivo, ou utente</text></g><g id="elem_UC500"><ellipse cx="1366.3801" cy="6077.846" fill="#F1F1F1" rx="291.3801" ry="60.676" style="stroke:#181818;stroke-width:0.5;"/><text fill="#000000" font-family="sans-serif" font-size="14" lengthAdjust="spacing" textLength="558" x="1087.3801" y="6081.5745">Como gestor de tarefas pretendo obter a sequencia de execução das tarefas aprovadas</text></g><g id="elem_UC10"><ellipse cx="1366.3168" cy="6235.4334" fill="#F1F1F1" rx="296.8168" ry="61.7634" style="stroke:#181818;stroke-width:0.5;"/><text fill="#000000" font-family="sans-serif" font-size="14" lengthAdjust="spacing" textLength="569" x="1081.8168" y="6239.1619">Como administrador pretendo criar um utilizador de sistema indicando as suas permissões</text></g><g id="elem_UC20"><ellipse cx="1366.4636" cy="4284.8627" fill="#F1F1F1" rx="331.4636" ry="68.6927" style="stroke:#181818;stroke-width:0.5;"/><text fill="#000000" font-family="sans-serif" font-size="14" lengthAdjust="spacing" textLength="639" x="1046.9636" y="4288.5912">Como potencial utente do sistema (ex., aluno, docente) pretendo registar-me como utente do sistema</text></g><g id="elem_UC30"><ellipse cx="1366.3395" cy="4449.5379" fill="#F1F1F1" rx="294.8395" ry="61.3679" style="stroke:#181818;stroke-width:0.5;"/><text fill="#000000" font-family="sans-serif" font-size="14" lengthAdjust="spacing" textLength="565" x="1083.8395" y="4453.2664">a.       Dar o meu consentimento ou não à recolha e tratamento dos meus dados pessoais</text></g><g id="elem_UC40"><ellipse cx="1366.5234" cy="4613.5747" fill="#F1F1F1" rx="325.0234" ry="67.4047" style="stroke:#181818;stroke-width:0.5;"/><text fill="#000000" font-family="sans-serif" font-size="14" lengthAdjust="spacing" textLength="626" x="1053.5234" y="4617.3032">b.       Que me seja informada a finalidade para a qual os dados pessoais são recolhidos e tratados</text></g><g id="elem_UC50"><ellipse cx="1366.2996" cy="4760.5299" fill="#F1F1F1" rx="207.2996" ry="43.8599" style="stroke:#181818;stroke-width:0.5;"/><text fill="#000000" font-family="sans-serif" font-size="14" lengthAdjust="spacing" textLength="387" x="1172.7996" y="4764.2584">c.       Conhecer e ter acesso ao responsável pelo tratamento</text></g><g id="elem_UC60"><ellipse cx="1366.253" cy="4884.4206" fill="#F1F1F1" rx="209.253" ry="44.2506" style="stroke:#181818;stroke-width:0.5;"/><text fill="#000000" font-family="sans-serif" font-size="14" lengthAdjust="spacing" textLength="391" x="1170.753" y="4888.1491">d.       Saber o período pelo qual os dados serão conservados</text></g><g id="elem_UC70"><ellipse cx="1366.2571" cy="5013.6214" fill="#F1F1F1" rx="232.7571" ry="48.9514" style="stroke:#181818;stroke-width:0.5;"/><text fill="#000000" font-family="sans-serif" font-size="14" lengthAdjust="spacing" textLength="439" x="1146.7571" y="5017.3499">e.       Conhecer os meus direitos enquanto titular de dados pessoais.</text></g><g id="elem_UC80"><ellipse cx="1366.546" cy="6390.6792" fill="#F1F1F1" rx="278.046" ry="58.0092" style="stroke:#181818;stroke-width:0.5;"/><text fill="#000000" font-family="sans-serif" font-size="14" lengthAdjust="spacing" textLength="531" x="1101.046" y="6394.4077">Como administrador do sistema pretendo aprovar ou recusar o registo de um utente</text></g><g id="elem_UC100"><ellipse cx="1366.5436" cy="5143.7787" fill="#F1F1F1" rx="218.5436" ry="46.1087" style="stroke:#181818;stroke-width:0.5;"/><text fill="#000000" font-family="sans-serif" font-size="14" lengthAdjust="spacing" textLength="410" x="1161.5436" y="5147.5072">Como utente do sistema pretendo retificar/alterar os meus dados</text></g><g id="elem_UC110"><ellipse cx="1366.6487" cy="5274.7997" fill="#F1F1F1" rx="238.6487" ry="50.1297" style="stroke:#181818;stroke-width:0.5;"/><text fill="#000000" font-family="sans-serif" font-size="14" lengthAdjust="spacing" textLength="451" x="1141.1487" y="5278.5283">Como utente do sistema pretendo uma cópia dos meus dados pessoais</text></g><g id="elem_US120"><ellipse cx="1366.376" cy="5430.8452" fill="#F1F1F1" rx="341.376" ry="70.6752" style="stroke:#181818;stroke-width:0.5;"/><text fill="#000000" font-family="sans-serif" font-size="14" lengthAdjust="spacing" textLength="659" x="1036.876" y="5434.5737">Como utente do sistema pretendo cancelar a minha conta garantindo que os meus dados são apagados</text></g><g id="elem_UC1300"><ellipse cx="1366.6404" cy="1259.6981" fill="#F1F1F1" rx="313.1404" ry="65.0281" style="stroke:#181818;stroke-width:0.5;"/><text fill="#000000" font-family="sans-serif" font-size="14" lengthAdjust="spacing" textLength="602" x="1065.6404" y="1263.4266">Como utilizador pretendo que o menu da aplicação se ajuste consoante o meu tipo de utilizador</text></g><g id="elem_UC1310"><ellipse cx="1366.2723" cy="122.7245" fill="#F1F1F1" rx="300.7723" ry="62.5545" style="stroke:#181818;stroke-width:0.5;"/><text fill="#000000" font-family="sans-serif" font-size="14" lengthAdjust="spacing" textLength="577" x="1077.7723" y="126.453">Como arquiteto da solução pretendo que todos os serviços de backend sejam autenticados</text></g><g id="elem_UC1320"><ellipse cx="1366.5838" cy="316.8868" fill="#F1F1F1" rx="469.0838" ry="96.2168" style="stroke:#181818;stroke-width:0.5;"/><text fill="#000000" font-family="sans-serif" font-size="14" lengthAdjust="spacing" textLength="916" x="908.5838" y="320.6153">Como arquiteto da solução pretendo que todos os serviços de backend validem as permissões do utilizador para executar determinada operação</text></g><g id="elem_UC720"><ellipse cx="1366.5748" cy="544.785" fill="#F1F1F1" rx="471.0748" ry="96.615" style="stroke:#181818;stroke-width:0.5;"/><text fill="#000000" font-family="sans-serif" font-size="14" lengthAdjust="spacing" textLength="920" x="906.5748" y="548.5135">como arquiteto da solução pretendo que a informação sobre tarefas seja partilhada entre os módulos de Admnistração de dados e Pleaneamento</text></g><g id="elem_UC740"><ellipse cx="1366.717" cy="792.7134" fill="#F1F1F1" rx="568.217" ry="116.0434" style="stroke:#181818;stroke-width:0.5;"/><text fill="#000000" font-family="sans-serif" font-size="14" lengthAdjust="spacing" textLength="1115" x="809.217" y="796.4419">como arquiteto da solução pretendo que a informação sobre percursos de um robot para a execução de tarefas seja partilhada entre os módulos de Planeamento e visualização</text></g><g id="elem_UC750"><ellipse cx="1366.3549" cy="1051.841" fill="#F1F1F1" rx="526.3549" ry="107.671" style="stroke:#181818;stroke-width:0.5;"/><text fill="#000000" font-family="sans-serif" font-size="14" lengthAdjust="spacing" textLength="1031" x="850.8549" y="1055.5695">Como arquiteto da solução pretendo a utilização de um módulo de IAM  (ex., Azure, auth0, Google, Linkedin) para gestão de identidades e permissões (role-based)</text></g><g id="elem_UC1410"><ellipse cx="1366.4309" cy="1498.7562" fill="#F1F1F1" rx="680.9309" ry="138.5862" style="stroke:#181818;stroke-width:0.5;"/><text fill="#000000" font-family="sans-serif" font-size="14" lengthAdjust="spacing" textLength="1341" x="695.9309" y="1502.4847">seja gerado um plano de atendimento das tarefas indicadas que indique uma sequência de execução das tarefas que seja criada através da geração de todas as sequências e escolha da que durar menos tempo.</text></g><g id="elem_UC1420"><ellipse cx="1366.4021" cy="1777.7504" fill="#F1F1F1" rx="513.4021" ry="105.0804" style="stroke:#181818;stroke-width:0.5;"/><text fill="#000000" font-family="sans-serif" font-size="14" lengthAdjust="spacing" textLength="1005" x="863.9021" y="1781.4789">deverá ser feito o estudo da complexidade da solução ao requisito 1410, permitindo concluir até que dimensão de nº de tarefas se pode usar essa abordagem.</text></g><g id="elem_UC1430"><ellipse cx="1366.3496" cy="2025.6399" fill="#F1F1F1" rx="527.8496" ry="107.9699" style="stroke:#181818;stroke-width:0.5;"/><text fill="#000000" font-family="sans-serif" font-size="14" lengthAdjust="spacing" textLength="1034" x="849.3496" y="2029.3684">seja gerado um plano de atendimento das tarefas indicadas que indique uma sequência de execução das tarefas que seja criada através de um Algoritmo Genético</text></g><g id="elem_UC1440"><ellipse cx="1366.551" cy="2356.6802" fill="#F1F1F1" rx="925.551" ry="187.5102" style="stroke:#181818;stroke-width:0.5;"/><text fill="#000000" font-family="sans-serif" font-size="14" lengthAdjust="spacing" textLength="1831" x="451.051" y="2360.4087">efetuar um estudo do estado da arte na geração de trajetórias de robots. Poderão combinar pesquisa bibliográfica própria com ferramentas de IA Generativa (por exemplo ChatGPT), indicando os prompts utilizados e deixando bem claro o que foi produzido via ferramentas de IA Generativa.</text></g><g id="elem_UC607"><ellipse cx="1366.3313" cy="2665.5363" fill="#F1F1F1" rx="419.8313" ry="86.3663" style="stroke:#181818;stroke-width:0.5;"/><text fill="#000000" font-family="sans-serif" font-size="14" lengthAdjust="spacing" textLength="817" x="957.8313" y="2669.2648">Ao navegar interactivamente e ao chegar a uma passagem entre edifícios, deve transitar automaticamente para o piso adjacente.</text></g><g id="elem_UC608"><ellipse cx="1366.6201" cy="2881.794" fill="#F1F1F1" rx="461.1201" ry="94.624" style="stroke:#181818;stroke-width:0.5;"/><text fill="#000000" font-family="sans-serif" font-size="14" lengthAdjust="spacing" textLength="900" x="916.6201" y="2885.5225">Ao navegar interactivamente e ao entrar num elevador, deve ser possível escolher o piso a que se pretende aceder e transitar para esse piso.</text></g><g id="elem_UC609"><ellipse cx="1366.6102" cy="3134.692" fill="#F1F1F1" rx="605.6102" ry="123.522" style="stroke:#181818;stroke-width:0.5;"/><text fill="#000000" font-family="sans-serif" font-size="14" lengthAdjust="spacing" textLength="1190" x="771.6102" y="3138.4206">Animar o movimento automático do robot de um dado ponto de partida a um dado ponto de chegada, de acordo com a informação disponibilizada pelo módulo de planeamento de percurso.</text></g><g id="elem_UC610"><ellipse cx="1366.7169" cy="3383.8134" fill="#F1F1F1" rx="441.2169" ry="90.6434" style="stroke:#181818;stroke-width:0.5;"/><text fill="#000000" font-family="sans-serif" font-size="14" lengthAdjust="spacing" textLength="860" x="936.7169" y="3387.5419">Ao navegar de forma automática com base no planeamento de percurso, a passagem entre edifícios deve ter feedback visual adequado</text></g><g id="elem_UC611"><ellipse cx="1366.7296" cy="3599.8159" fill="#F1F1F1" rx="438.7296" ry="90.1459" style="stroke:#181818;stroke-width:0.5;"/><text fill="#000000" font-family="sans-serif" font-size="14" lengthAdjust="spacing" textLength="855" x="939.2296" y="3603.5444">Ao navegar de forma automática com base no planeamento de percurso, a utilização de elevadores deve ter feedback visual adequado</text></g><g id="elem_UC612"><ellipse cx="1366.6554" cy="3817.8011" fill="#F1F1F1" rx="453.6554" ry="93.1311" style="stroke:#181818;stroke-width:0.5;"/><text fill="#000000" font-family="sans-serif" font-size="14" lengthAdjust="spacing" textLength="885" x="924.1554" y="3821.5296">Exibir uma tip flutuante que identifique a sala, gabinete ou elevador a que pertence a célula apontada em cada momento pelo cursor do rato</text></g><!--MD5=[47f93fe7b2a4dfa4931259322aa0bf66]
link ator to UC607--><g id="link_ator_UC607"><path d="M100.15,2665.67 C178.44,2665.67 604.59,2665.67 941.01,2665.67 " fill="none" id="ator-to-UC607" style="stroke:#181818;stroke-width:1.0;"/><polygon fill="#181818" points="946.45,2665.67,937.45,2661.67,941.45,2665.67,937.45,2669.67,946.45,2665.67" style="stroke:#181818;stroke-width:1.0;"/></g><!--MD5=[ef75474a544a683325aef9dca633c509]
link ator to UC608--><g id="link_ator_UC608"><path d="M100.22,2679.08 C123.09,2702.2 173.76,2749.06 227,2769.67 C439.83,2852.06 690.98,2883.05 903.16,2892.19 " fill="none" id="ator-to-UC608" style="stroke:#181818;stroke-width:1.0;"/><polygon fill="#181818" points="908.17,2892.4,899.3501,2888.0172,903.1746,2892.1853,899.0065,2896.0098,908.17,2892.4" style="stroke:#181818;stroke-width:1.0;"/></g><!--MD5=[a6e9faff700958a8643b0af96a188a80]
link ator to UC609--><g id="link_ator_UC609"><path d="M91.7,2704.89 C101.5,2775.34 132.74,2922.62 227,2993.67 C385.92,3113.47 594.25,3161.23 789.19,3174.93 " fill="none" id="ator-to-UC609" style="stroke:#181818;stroke-width:1.0;"/><polygon fill="#181818" points="794.37,3175.29,785.6656,3170.682,789.3818,3174.947,785.1168,3178.6631,794.37,3175.29" style="stroke:#181818;stroke-width:1.0;"/></g><!--MD5=[f20e192baec4074126c879379c68558a]
link ator to UC610--><g id="link_ator_UC610"><path d="M90.62,2705.06 C101.21,2827.75 140.04,3199.36 227,3275.67 C446.07,3467.92 788.28,3475.19 1040.35,3446.42 " fill="none" id="ator-to-UC610" style="stroke:#181818;stroke-width:1.0;"/><polygon fill="#181818" points="1045.55,3445.82,1036.1511,3442.877,1040.5829,3446.3926,1037.0673,3450.8243,1045.55,3445.82" style="stroke:#181818;stroke-width:1.0;"/></g><!--MD5=[68329d46863404513b357a28a47abec7]
link ator to UC611--><g id="link_ator_UC611"><path d="M88.08,2704.88 C91.13,2854.03 110.17,3383.05 227,3491.67 C444.43,3693.83 796.29,3696.67 1051.36,3664.07 " fill="none" id="ator-to-UC611" style="stroke:#181818;stroke-width:1.0;"/><polygon fill="#181818" points="1056.61,3663.39,1047.1703,3660.5807,1051.6515,3664.033,1048.1992,3668.5142,1056.61,3663.39" style="stroke:#181818;stroke-width:1.0;"/></g><!--MD5=[6ea07ecd7abddcf1911e40f3056ad321]
link ator to UC612--><g id="link_ator_UC612"><path d="M89.89,2704.67 C101.34,2885.49 153.08,3636.42 227,3707.67 C438.57,3911.6 785.97,3916.52 1041.47,3884.37 " fill="none" id="ator-to-UC612" style="stroke:#181818;stroke-width:1.0;"/><polygon fill="#181818" points="1046.73,3883.7,1037.2993,3880.8605,1041.7695,3884.3272,1038.3028,3888.7973,1046.73,3883.7" style="stroke:#181818;stroke-width:1.0;"/></g><!--MD5=[6cc6d712c9aa045877cc05532fe6c44c]
link ator to UC1410--><g id="link_ator_UC1410"><path d="M86.9,2626.6 C85.16,2458.04 87.42,1795.22 227,1655.67 C357.71,1524.99 542.89,1468.33 726.01,1449.22 " fill="none" id="ator-to-UC1410" style="stroke:#181818;stroke-width:1.0;"/><polygon fill="#181818" points="731.15,1448.7,721.7862,1445.6473,726.1765,1449.2145,722.6094,1453.6049,731.15,1448.7" style="stroke:#181818;stroke-width:1.0;"/></g><!--MD5=[d9ab07ff83d70ce9604ad0d67bf233bc]
link ator to UC1420--><g id="link_ator_UC1420"><path d="M88.7,2626.24 C93.91,2484.05 119.36,2000.75 227,1900.67 C420.68,1720.6 720.47,1694.45 963.82,1710.89 " fill="none" id="ator-to-UC1420" style="stroke:#181818;stroke-width:1.0;"/><polygon fill="#181818" points="968.83,1711.23,960.1256,1706.622,963.8418,1710.887,959.5768,1714.6031,968.83,1711.23" style="stroke:#181818;stroke-width:1.0;"/></g><!--MD5=[6889c6405c4f42fd776a9bbd91a3f819]
link ator to UC1430--><g id="link_ator_UC1430"><path d="M92.46,2626.41 C107.07,2517.33 153.6,2214.51 227,2151.67 C416.52,1989.43 693.69,1955.94 927.09,1963.98 " fill="none" id="ator-to-UC1430" style="stroke:#181818;stroke-width:1.0;"/><polygon fill="#181818" points="932.25,1964.16,923.4051,1959.8278,927.2535,1963.9739,923.1073,1967.8222,932.25,1964.16" style="stroke:#181818;stroke-width:1.0;"/></g><!--MD5=[f4221b4f3cf5f946f350489d43618498]
link ator to UC1440--><g id="link_ator_UC1440"><path d="M100.04,2653.05 C123.01,2630.74 174.35,2584.52 227,2561.67 C332.41,2515.93 447.56,2480.4 562.85,2452.8 " fill="none" id="ator-to-UC1440" style="stroke:#181818;stroke-width:1.0;"/><polygon fill="#181818" points="567.99,2451.57,558.308,2449.7646,563.1261,2452.7287,560.162,2457.5468,567.99,2451.57" style="stroke:#181818;stroke-width:1.0;"/></g><!--MD5=[27117a870bc22364b21f9407e938e0ea]
link arquiteto to UC1310--><g id="link_arquiteto_UC1310"><path d="M90.51,505.63 C98.45,432.38 126.9,275.17 227,202.67 C498.54,6 908.52,34.37 1155.29,76.21 " fill="none" id="arquiteto-to-UC1310" style="stroke:#181818;stroke-width:1.0;"/><polygon fill="#181818" points="1160.36,77.07,1152.1631,71.6101,1155.4315,76.2272,1150.8145,79.4957,1160.36,77.07" style="stroke:#181818;stroke-width:1.0;"/></g><!--MD5=[1b6a2b93c2fa4ccead650d6cbacca99d]
link arquiteto to UC1320--><g id="link_arquiteto_UC1320"><path d="M123.11,505.42 C149.16,479.48 186.83,447.3 227,430.67 C436.43,343.98 685.36,311.92 896.96,303.01 " fill="none" id="arquiteto-to-UC1320" style="stroke:#181818;stroke-width:1.0;"/><polygon fill="#181818" points="902.27,302.79,893.1173,299.1529,897.274,302.9898,893.4371,307.1465,902.27,302.79" style="stroke:#181818;stroke-width:1.0;"/></g><!--MD5=[12a9afde18b7950b1e14ae3c18c3b5d7]
link arquiteto to UC720--><g id="link_arquiteto_UC720"><path d="M156.21,544.67 C293.83,544.67 613.76,544.67 890,544.67 " fill="none" id="arquiteto-to-UC720" style="stroke:#181818;stroke-width:1.0;"/><polygon fill="#181818" points="895.28,544.67,886.28,540.67,890.28,544.67,886.28,548.67,895.28,544.67" style="stroke:#181818;stroke-width:1.0;"/></g><!--MD5=[307a26a718104801f5e71519633f40a1]
link arquiteto to UC740--><g id="link_arquiteto_UC740"><path d="M123.2,583.7 C149.29,609.54 186.98,641.69 227,658.67 C402.85,733.26 606.87,770.75 793.21,788.48 " fill="none" id="arquiteto-to-UC740" style="stroke:#181818;stroke-width:1.0;"/><polygon fill="#181818" points="798.44,788.98,789.8565,784.1505,793.4622,788.5093,789.1034,792.115,798.44,788.98" style="stroke:#181818;stroke-width:1.0;"/></g><!--MD5=[1ee89aed8b16e6f298000e2e2fe9cbba]
link arquiteto to UC750--><g id="link_arquiteto_UC750"><path d="M89.01,583.91 C94.36,662.85 118.5,840.58 227,925.67 C417.19,1074.82 683.42,1110.74 910.6,1107.34 " fill="none" id="arquiteto-to-UC750" style="stroke:#181818;stroke-width:1.0;"/><polygon fill="#181818" points="915.63,1107.26,906.5738,1103.389,910.6305,1107.3314,906.6881,1111.3882,915.63,1107.26" style="stroke:#181818;stroke-width:1.0;"/></g><!--MD5=[c87a040b1ba01fc7aee01523d8eb00f4]
link ator to UC1300--><g id="link_ator_UC1300"><path d="M88.7,2626.33 C95.5,2416.42 132.21,1434.45 227,1342.67 C342.14,1231.19 766.21,1227.44 1062.91,1239.8 " fill="none" id="ator-to-UC1300" style="stroke:#181818;stroke-width:1.0;"/><polygon fill="#181818" points="1068.14,1240.02,1059.3071,1235.6635,1063.144,1239.8202,1058.9873,1243.6571,1068.14,1240.02" style="stroke:#181818;stroke-width:1.0;"/></g><!--MD5=[9d77b193b7a0d39a49a4ce556cc6a880]
link utente to UC20--><g id="link_utente_UC20"><path d="M93.88,4783.35 C110.96,4683.33 160.96,4423.36 227,4370.67 C484.38,4165.33 887.08,4190.25 1138.15,4233.08 " fill="none" id="utente-to-UC20" style="stroke:#181818;stroke-width:1.0;"/><polygon fill="#181818" points="1143.31,4233.96,1135.1131,4228.5001,1138.3815,4233.1172,1133.7645,4236.3857,1143.31,4233.96" style="stroke:#181818;stroke-width:1.0;"/></g><!--MD5=[ea6266d083c92500a2413516c3ca9ee5]
link utente to UC30--><g id="link_utente_UC30"><path d="M93.32,4783.61 C105.33,4718.32 139.48,4588.35 227,4528.67 C502.76,4340.61 908.61,4365.85 1153.92,4405.1 " fill="none" id="utente-to-UC30" style="stroke:#181818;stroke-width:1.0;"/><polygon fill="#181818" points="1158.96,4405.91,1150.7172,4400.5197,1154.0246,4405.1089,1149.4354,4408.4163,1158.96,4405.91" style="stroke:#181818;stroke-width:1.0;"/></g><!--MD5=[95f91b4804db23b9a3294519bd8192d1]
link utente to UC40--><g id="link_utente_UC40"><path d="M107.03,4797.57 C131.5,4768.24 176.42,4721 227,4699.67 C494.43,4586.91 828.38,4575.01 1065.28,4585.47 " fill="none" id="utente-to-UC40" style="stroke:#181818;stroke-width:1.0;"/><polygon fill="#181818" points="1070.51,4585.71,1061.7021,4581.3032,1065.5152,4585.4817,1061.3367,4589.2948,1070.51,4585.71" style="stroke:#181818;stroke-width:1.0;"/></g><!--MD5=[e1f040c92aa12f6b25b1be38715533ae]
link utente to UC50--><g id="link_utente_UC50"><path d="M107.06,4821.72 C223.65,4816.06 832.79,4786.51 1158.9,4770.69 " fill="none" id="utente-to-UC50" style="stroke:#181818;stroke-width:1.0;"/><polygon fill="#181818" points="1164.16,4770.44,1154.9765,4766.8813,1159.1659,4770.6826,1155.3647,4774.8719,1164.16,4770.44" style="stroke:#181818;stroke-width:1.0;"/></g><!--MD5=[d47d2c61da29d5f85071d137e9de9b97]
link utente to UC60--><g id="link_utente_UC60"><path d="M107.06,4823.62 C223.41,4829.26 830.35,4858.71 1156.93,4874.55 " fill="none" id="utente-to-UC60" style="stroke:#181818;stroke-width:1.0;"/><polygon fill="#181818" points="1162.2,4874.81,1153.4053,4870.3769,1157.2059,4874.5667,1153.016,4878.3674,1162.2,4874.81" style="stroke:#181818;stroke-width:1.0;"/></g><!--MD5=[804100575f087598e477e9546afd4090]
link utente to UC70--><g id="link_utente_UC70"><path d="M107.14,4848.37 C131.55,4878.11 176.26,4925.65 227,4946.67 C534.79,5074.16 929.8,5063.01 1164.42,5040.38 " fill="none" id="utente-to-UC70" style="stroke:#181818;stroke-width:1.0;"/><polygon fill="#181818" points="1169.59,5039.88,1160.2446,5036.7715,1164.6136,5040.3648,1161.0203,5044.7338,1169.59,5039.88" style="stroke:#181818;stroke-width:1.0;"/></g><!--MD5=[5470a7416ad628dac3c4616d90335423]
link utente to UC460--><g id="link_utente_UC460"><path d="M90.49,4783.35 C100.77,4659.05 139.05,4278.09 227,4198.67 C398.58,4043.74 648.83,4001.6 871.04,4001.8 " fill="none" id="utente-to-UC460" style="stroke:#181818;stroke-width:1.0;"/><polygon fill="#181818" points="876.28,4001.82,867.28,3997.82,871.28,4001.82,867.28,4005.82,876.28,4001.82" style="stroke:#181818;stroke-width:1.0;"/></g><!--MD5=[3657c1a021d1302edcdf5250f4915f11]
link utente to UC100--><g id="link_utente_UC100"><path d="M95.99,4861.95 C111.04,4920.97 148.52,5030.9 227,5080.67 C375.17,5174.64 864.04,5168.68 1150.72,5156.12 " fill="none" id="utente-to-UC100" style="stroke:#181818;stroke-width:1.0;"/><polygon fill="#181818" points="1155.77,5155.9,1146.607,5152.289,1150.7746,5156.1141,1146.9495,5160.2817,1155.77,5155.9" style="stroke:#181818;stroke-width:1.0;"/></g><!--MD5=[c399bc2afdc732d854c7aada31aaf8ce]
link utente to UC110--><g id="link_utente_UC110"><path d="M88.46,4861.86 C92.76,4942.01 115.03,5124.13 227,5207.67 C365.29,5310.85 842.97,5304.59 1133.83,5290.09 " fill="none" id="utente-to-UC110" style="stroke:#181818;stroke-width:1.0;"/><polygon fill="#181818" points="1138.95,5289.83,1129.7564,5286.2975,1133.9566,5290.0868,1130.1673,5294.287,1138.95,5289.83" style="stroke:#181818;stroke-width:1.0;"/></g><!--MD5=[2c2fc5e8a9172e05c499dada31a704a3]
link utente to US120--><g id="link_utente_US120"><path d="M92.18,4861.72 C106.21,4971.7 151.67,5280.13 227,5342.67 C479.22,5552.08 880.63,5527.67 1133.26,5484.14 " fill="none" id="utente-to-US120" style="stroke:#181818;stroke-width:1.0;"/><polygon fill="#181818" points="1138.46,5483.24,1128.9077,5480.8412,1133.5339,5484.0967,1130.2785,5488.7229,1138.46,5483.24" style="stroke:#181818;stroke-width:1.0;"/></g><!--MD5=[7175895a71a5fe55fd5eb9d7a181c56c]
link administrador to UC10--><g id="link_administrador_UC10"><path d="M130.02,6311.07 C275.03,6302.22 758.72,6272.7 1076.13,6253.33 " fill="none" id="administrador-to-UC10" style="stroke:#181818;stroke-width:1.0;"/><polygon fill="#181818" points="1081.26,6253.02,1072.036,6249.5678,1076.269,6253.3203,1072.5165,6257.5533,1081.26,6253.02" style="stroke:#181818;stroke-width:1.0;"/></g><!--MD5=[fa00e3ce9fb064c1accb5bc203d366b1]
link administrador to UC80--><g id="link_administrador_UC80"><path d="M130.02,6316.23 C277.78,6325.13 777.17,6355.22 1093.98,6374.31 " fill="none" id="administrador-to-UC80" style="stroke:#181818;stroke-width:1.0;"/><polygon fill="#181818" points="1099.1,6374.62,1090.3557,6370.0882,1094.109,6374.3205,1089.8766,6378.0738,1099.1,6374.62" style="stroke:#181818;stroke-width:1.0;"/></g><!--MD5=[ce0a4533a60f2021020cb1e8eec4c836]
link admin to UC680--><g id="link_admin_UC680"><path d="M87.41,8522.28 C87.22,8262.78 92.14,6804.56 227,6667.67 C449.35,6441.97 837.22,6458.52 1097.65,6502.93 " fill="none" id="admin-to-UC680" style="stroke:#181818;stroke-width:1.0;"/><polygon fill="#181818" points="1102.62,6503.79,1094.4257,6498.3262,1097.692,6502.9448,1093.0733,6506.211,1102.62,6503.79" style="stroke:#181818;stroke-width:1.0;"/></g><!--MD5=[7ad6219970037985c308ecb6d6a598a5]
link admin to UC690--><g id="link_admin_UC690"><path d="M88.1,8522.33 C92.02,8289.35 117.4,7096.78 227,6981.67 C356.5,6845.67 544.66,6788.45 730.85,6770.46 " fill="none" id="admin-to-UC690" style="stroke:#181818;stroke-width:1.0;"/><polygon fill="#181818" points="736.08,6769.97,726.7426,6766.8375,731.1023,6770.442,727.4978,6774.8018,736.08,6769.97" style="stroke:#181818;stroke-width:1.0;"/></g><!--MD5=[c750684072e970dcbe4ef25ccfd57e48]
link admin to UC840--><g id="link_admin_UC840"><path d="M89.89,8522.57 C101.56,8337.76 154.8,7557.46 227,7478.67 C273.63,7427.79 328.04,7386.04 387.35,7351.91 " fill="none" id="admin-to-UC840" style="stroke:#181818;stroke-width:1.0;"/><polygon fill="#181818" points="391.99,7349.25,382.192,7350.2492,387.6505,7351.7338,386.166,7357.1923,391.99,7349.25" style="stroke:#181818;stroke-width:1.0;"/></g><!--MD5=[34079a5ed2865aec718b751a1929e3e3]
link admin to UC850--><g id="link_admin_UC850"><path d="M90.15,8522.39 C99.66,8393.39 136.47,7986 227,7897.67 C293.45,7832.84 372.98,7784.57 458.72,7748.99 " fill="none" id="admin-to-UC850" style="stroke:#181818;stroke-width:1.0;"/><polygon fill="#181818" points="463.59,7746.98,453.7452,7746.6973,458.9645,7748.8787,456.7832,7754.0981,463.59,7746.98" style="stroke:#181818;stroke-width:1.0;"/></g><!--MD5=[450b28b95d939517b06d322470e0d436]
link admin to UC860--><g id="link_admin_UC860"><path d="M92.54,8522.64 C103.58,8454.38 136.57,8313.98 227,8244.67 C334.03,8162.63 463.69,8111.74 596.63,8081.29 " fill="none" id="admin-to-UC860" style="stroke:#181818;stroke-width:1.0;"/><polygon fill="#181818" points="601.76,8080.12,592.1012,8078.1945,596.8821,8081.2182,593.8584,8085.9991,601.76,8080.12" style="stroke:#181818;stroke-width:1.0;"/></g><!--MD5=[7c682de8e8d782f076dbf1cdc5d24bea]
link admin to UC870--><g id="link_admin_UC870"><path d="M167.44,8552.04 C285.09,8537.86 515.62,8510.08 743.31,8482.64 " fill="none" id="admin-to-UC870" style="stroke:#181818;stroke-width:1.0;"/><polygon fill="#181818" points="748.34,8482.04,738.9246,8479.1504,743.3762,8482.6408,739.8859,8487.0925,748.34,8482.04" style="stroke:#181818;stroke-width:1.0;"/></g><!--MD5=[5cf6459a043eaa5d8ea0456d9431e570]
link admin to UC880--><g id="link_admin_UC880"><path d="M167.44,8571.37 C298.58,8587.27 569.97,8620.19 821.34,8650.67 " fill="none" id="admin-to-UC880" style="stroke:#181818;stroke-width:1.0;"/><polygon fill="#181818" points="826.53,8651.3,818.0741,8646.2504,821.566,8650.7009,817.1156,8654.1928,826.53,8651.3" style="stroke:#181818;stroke-width:1.0;"/></g><!--MD5=[fc717241746e396152882ff3e75ec74d]
link admin to UC890--><g id="link_admin_UC890"><path d="M93.11,8600.83 C104.86,8667.04 138.71,8799.98 227,8862.67 C441.71,9015.12 739.4,9039.7 976.52,9027.97 " fill="none" id="admin-to-UC890" style="stroke:#181818;stroke-width:1.0;"/><polygon fill="#181818" points="981.76,9027.71,972.5765,9024.1513,976.7659,9027.9526,972.9647,9032.1419,981.76,9027.71" style="stroke:#181818;stroke-width:1.0;"/></g><!--MD5=[981d03674fd20cce24ddef7b20e16436]
link admin to UC900--><g id="link_admin_UC900"><path d="M92.2,8601.06 C106.27,8712.01 151.84,9023.29 227,9087.67 C426.57,9258.61 723.67,9284.99 964.33,9270.54 " fill="none" id="admin-to-UC900" style="stroke:#181818;stroke-width:1.0;"/><polygon fill="#181818" points="969.64,9270.21,960.4166,9266.7562,964.649,9270.5095,960.8957,9274.7418,969.64,9270.21" style="stroke:#181818;stroke-width:1.0;"/></g><!--MD5=[f3a3f29a37d50416569f9f2c1d8e30ad]
link admin to UC910--><g id="link_admin_UC910"><path d="M88.66,8600.68 C93.73,8742.49 118.85,9227.61 227,9327.67 C430.79,9516.21 751.29,9533.79 1000.38,9510.87 " fill="none" id="admin-to-UC910" style="stroke:#181818;stroke-width:1.0;"/><polygon fill="#181818" points="1005.51,9510.39,996.1734,9507.255,1000.5322,9510.8607,996.9265,9515.2195,1005.51,9510.39" style="stroke:#181818;stroke-width:1.0;"/></g><!--MD5=[825a547dd0c6258cf2d1b0b7dbb7332d]
link admin to UC920--><g id="link_admin_UC920"><path d="M86.85,8600.74 C84.94,8768.56 86.63,9425.82 227,9561.67 C421.61,9750.01 731.56,9772.15 978.96,9751.65 " fill="none" id="admin-to-UC920" style="stroke:#181818;stroke-width:1.0;"/><polygon fill="#181818" points="984.05,9751.22,974.7497,9747.979,979.0672,9751.634,975.4121,9755.9515,984.05,9751.22" style="stroke:#181818;stroke-width:1.0;"/></g><!--MD5=[59ee1d7ab9c63710426b133d5e72849d]
link admin to UC930--><g id="link_admin_UC930"><path d="M89.16,8600.77 C98.04,8801.9 142.76,9714.26 227,9804.67 C289.47,9871.71 365.79,9921.54 449.06,9958.15 " fill="none" id="admin-to-UC930" style="stroke:#181818;stroke-width:1.0;"/><polygon fill="#181818" points="454.05,9960.32,447.3805,9953.0731,449.4617,9958.3332,444.2016,9960.4143,454.05,9960.32" style="stroke:#181818;stroke-width:1.0;"/></g><!--MD5=[dab399ab058dcbb2363d4a58d649692d]
link tarefa to UC470--><g id="link_tarefa_UC470"><path d="M107.86,5778.4 C130.86,5738.61 172.33,5679.12 227,5651.67 C534.16,5497.43 948.26,5521.56 1183.02,5553.08 " fill="none" id="tarefa-to-UC470" style="stroke:#181818;stroke-width:1.0;"/><polygon fill="#181818" points="1188.19,5553.78,1179.8083,5548.6082,1183.2352,5553.1089,1178.7346,5556.5358,1188.19,5553.78" style="stroke:#181818;stroke-width:1.0;"/></g><!--MD5=[c3a9c93f1cfc25d8fec9530506a0ce80]
link tarefa to UC480--><g id="link_tarefa_UC480"><path d="M142.01,5813.96 C300.22,5803.19 767.9,5771.35 1077.05,5750.31 " fill="none" id="tarefa-to-UC480" style="stroke:#181818;stroke-width:1.0;"/><polygon fill="#181818" points="1082.04,5749.97,1072.7868,5746.5969,1077.0518,5750.313,1073.3356,5754.578,1082.04,5749.97" style="stroke:#181818;stroke-width:1.0;"/></g><!--MD5=[64cb338490c392886a42756a7837da46]
link tarefa to UC490--><g id="link_tarefa_UC490"><path d="M142.01,5821.38 C288.48,5831.35 700.19,5859.38 1005.79,5880.18 " fill="none" id="tarefa-to-UC490" style="stroke:#181818;stroke-width:1.0;"/><polygon fill="#181818" points="1011.19,5880.55,1002.4847,5875.9437,1006.2017,5880.2079,1001.9374,5883.9249,1011.19,5880.55" style="stroke:#181818;stroke-width:1.0;"/></g><!--MD5=[23497702bb7f086e6e0c5e2dc9549992]
link tarefa to UC500--><g id="link_tarefa_UC500"><path d="M105.12,5856.97 C126.9,5900.36 168.42,5968.23 227,5999.67 C509.38,6151.24 889.47,6142.4 1131.04,6115.36 " fill="none" id="tarefa-to-UC500" style="stroke:#181818;stroke-width:1.0;"/><polygon fill="#181818" points="1136.01,6114.8,1126.6205,6111.8272,1131.0411,6115.3569,1127.5115,6119.7775,1136.01,6114.8" style="stroke:#181818;stroke-width:1.0;"/></g><!--MD5=[c5a85ac7a6ec052be604ab4045b823cb]
@startuml
left to right direction
actor "Administrador de Sistema" as admin
actor "Administrador" as administrador
actor "Gestor de tarefas" as tarefa
actor "Utente" as utente
actor "Ator" as ator
actor "Arquitecto de Solução" as arquiteto


usecase "Como administrador da organização quero um plano de recuperação de desastre que satisfaça o MBCO definido no sprint B" as UC680
usecase "Como administrador da organização quero que me seja apresentada de forma justificada a ou as alterações a realizar na infraestrutura por forma a assegurar um MTD (Maximum Tolerable Downtime) de 20 minutos" as UC690
usecase "Como administrador de sistemas quero que seja realizada uma cópia de segurança da(s) DB(s) para um ambiente de Cloud através de um script que a renomeie para o formato <nome_da_db>_yyyymmdd sendo <nome_da_db> o nome da base de dados, yyyy o ano de realização da cópia, mm o mês de realização da cópia e dd o dia da realização da cópia" as UC840
usecase "Como administrador de sistemas quero que utilizando o Backup elaborado na US 840, seja criado um script quer faça a gestão dos ficheiros resultantes desse backup, no seguinte calendário. 1 Backup por mês no último ano, 1 backup por semana no último mês, 1 backup por dia na última semana" as UC850
usecase "Como administrador de sistemas quero que o processo da US da cópia de segurança da DB seja mantido no log do Linux, num contexto adequado, e alertado o administrador no acesso à consola se ocorrer uma falha grave neste processo" as UC860
usecase "Como administrador de sistemas quero que a cópia de segurança da US da cópia de segurança da DB tenha um tempo de vida não superior a 7 (sete) dias exceto no indicado na US de retenção das cópias mensais e anuais" as UC870
usecase "Como administrador da organização quero que me seja apresentado um BIA (Business Impact Analysis) da solução final, adaptando se e onde aplicável o(s) risco(s) identificados no sprint anterior" as UC880
usecase "Como administrador da organização quero que seja implementada uma gestão de acessos que satisfaça os critérios apropriados de segurança" as UC890
usecase "Como administrador da organização quero que seja implementado de forma justificada um sistema de clustering entre os sistemas que implementam o SPA" as UC900
usecase "Como administrador de sistemas quero que o administrador tenha um acesso SSH à maquina virtual, apenas por certificado, sem recurso a password" as UC910
usecase "Como administrador de sistemas quero que para agilização entre as várias equipas seja criada uma partilha pública de ficheiros, formato SMB/CIFS  ou NFS ." as UC920
usecase "Como administrador de sistemas temos de garantir que em caso de necessidade os backups foram efetuados corretamente. Para isso devemos automatizar a sua reposição, validando no final o funcionamento do sistema (Ex. Base de Dados - executar uma query SQL com sucesso após reposição)" as UC930

usecase "Como utente do sistema pretendo requisitar uma tarefa indicando os parâmetros necessários à sua execução, nomeadamente o ponto inicial e o término e qual a tarefa pretendida" as UC460

usecase "Como gestor de tarefas pretendo aprovar ou recusar uma requisição" as UC470
usecase "Como gestor de tarefas pretendo consultar as requisições de tarefas ainda não aprovadas" as UC480
usecase "Como gestor de tarefas pretendo pesquisar as requisições de tarefas por estado, por tipo de dispositivo, ou utente" as UC490
usecase "Como gestor de tarefas pretendo obter a sequencia de execução das tarefas aprovadas" as UC500

usecase "Como administrador pretendo criar um utilizador de sistema indicando as suas permissões" as UC10

usecase "Como potencial utente do sistema (ex., aluno, docente) pretendo registar-me como utente do sistema" as UC20
usecase "a.       Dar o meu consentimento ou não à recolha e tratamento dos meus dados pessoais" as UC30
usecase "b.       Que me seja informada a finalidade para a qual os dados pessoais são recolhidos e tratados" as UC40
usecase "c.       Conhecer e ter acesso ao responsável pelo tratamento" as UC50
usecase "d.       Saber o período pelo qual os dados serão conservados" as UC60
usecase "e.       Conhecer os meus direitos enquanto titular de dados pessoais." as UC70
usecase "Como administrador do sistema pretendo aprovar ou recusar o registo de um utente" as UC80
usecase "Como utente do sistema pretendo retificar/alterar os meus dados" as UC100
usecase "Como utente do sistema pretendo uma cópia dos meus dados pessoais" as UC110
usecase "Como utente do sistema pretendo cancelar a minha conta garantindo que os meus dados são apagados" as US120




usecase "Como utilizador pretendo que o menu da aplicação se ajuste consoante o meu tipo de utilizador" as UC1300
usecase "Como arquiteto da solução pretendo que todos os serviços de backend sejam autenticados" as UC1310
usecase "Como arquiteto da solução pretendo que todos os serviços de backend validem as permissões do utilizador para executar determinada operação" as UC1320
usecase "como arquiteto da solução pretendo que a informação sobre tarefas seja partilhada entre os módulos de Admnistração de dados e Pleaneamento" as UC720
usecase "como arquiteto da solução pretendo que a informação sobre percursos de um robot para a execução de tarefas seja partilhada entre os módulos de Planeamento e visualização" as UC740
usecase "Como arquiteto da solução pretendo a utilização de um módulo de IAM  (ex., Azure, auth0, Google, Linkedin) para gestão de identidades e permissões (role-based)" as UC750

usecase "seja gerado um plano de atendimento das tarefas indicadas que indique uma sequência de execução das tarefas que seja criada através da geração de todas as sequências e escolha da que durar menos tempo." as UC1410
usecase "deverá ser feito o estudo da complexidade da solução ao requisito 1410, permitindo concluir até que dimensão de nº de tarefas se pode usar essa abordagem." as UC1420
usecase "seja gerado um plano de atendimento das tarefas indicadas que indique uma sequência de execução das tarefas que seja criada através de um Algoritmo Genético" as UC1430
usecase "efetuar um estudo do estado da arte na geração de trajetórias de robots. Poderão combinar pesquisa bibliográfica própria com ferramentas de IA Generativa (por exemplo ChatGPT), indicando os prompts utilizados e deixando bem claro o que foi produzido via ferramentas de IA Generativa." as UC1440

usecase "Ao navegar interactivamente e ao chegar a uma passagem entre edifícios, deve transitar automaticamente para o piso adjacente." as UC607
usecase "Ao navegar interactivamente e ao entrar num elevador, deve ser possível escolher o piso a que se pretende aceder e transitar para esse piso." as UC608
usecase "Animar o movimento automático do robot de um dado ponto de partida a um dado ponto de chegada, de acordo com a informação disponibilizada pelo módulo de planeamento de percurso." as UC609
usecase "Ao navegar de forma automática com base no planeamento de percurso, a passagem entre edifícios deve ter feedback visual adequado" as UC610
usecase "Ao navegar de forma automática com base no planeamento de percurso, a utilização de elevadores deve ter feedback visual adequado" as UC611
usecase "Exibir uma tip flutuante que identifique a sala, gabinete ou elevador a que pertence a célula apontada em cada momento pelo cursor do rato" as UC612


ator - -> UC607
ator - -> UC608
ator - -> UC609
ator - -> UC610
ator - -> UC611
ator - -> UC612


ator - -> UC1410
ator - -> UC1420
ator - -> UC1430
ator - -> UC1440


arquiteto - -> UC1310
arquiteto - -> UC1320
arquiteto - -> UC720
arquiteto - -> UC740
arquiteto - -> UC750

ator - -> UC1300

utente - -> UC20
utente - -> UC30
utente - -> UC40
utente - -> UC50
utente - -> UC60
utente - -> UC70
utente - -> UC460
utente - -> UC100
utente - -> UC110
utente - -> US120


administrador - -> UC10
administrador - -> UC80


admin - -> UC680
admin - -> UC690
admin - -> UC840
admin - -> UC850
admin - -> UC860
admin - -> UC870
admin - -> UC880
admin - -> UC890
admin - -> UC900
admin - -> UC910
admin - -> UC920
admin - -> UC930


tarefa - -> UC470
tarefa - -> UC480
tarefa - -> UC490
tarefa - -> UC500


@enduml

PlantUML version 1.2022.7(Mon Aug 22 18:01:30 WEST 2022)
(GPL source distribution)
Java Runtime: Java(TM) SE Runtime Environment
JVM: Java HotSpot(TM) 64-Bit Server VM
Default Encoding: UTF-8
Language: pt
Country: PT
--></g></svg>