<?xml version="1.0" encoding="UTF-8" standalone="no"?><svg xmlns="http://www.w3.org/2000/svg" xmlns:xlink="http://www.w3.org/1999/xlink" contentStyleType="text/css" height="448px" preserveAspectRatio="none" style="width:680px;height:448px;background:#FFFFFF;" version="1.1" viewBox="0 0 680 448" width="680px" zoomAndPan="magnify"><defs/><g><rect fill="none" height="27.6094" id="_title" style="stroke:none;stroke-width:1.0;" width="174" x="249.75" y="10"/><text fill="#000000" font-family="sans-serif" font-size="14" font-weight="bold" lengthAdjust="spacing" textLength="164" x="254.75" y="29.5332">&lt;&lt;Container (C4)&gt;&gt; SPA</text><rect fill="#FFFFFF" height="194.3672" style="stroke:#181818;stroke-width:1.0;" width="10" x="260.5" y="153.5703"/><rect fill="#FFFFFF" height="133.6641" style="stroke:#181818;stroke-width:1.0;" width="10" x="420.5" y="183.9219"/><line style="stroke:#181818;stroke-width:0.5;stroke-dasharray:5.0,5.0;" x1="63" x2="63" y1="121.2188" y2="365.9375"/><line style="stroke:#181818;stroke-width:0.5;stroke-dasharray:5.0,5.0;" x1="265" x2="265" y1="121.2188" y2="365.9375"/><line style="stroke:#181818;stroke-width:0.5;stroke-dasharray:5.0,5.0;" x1="425.5" x2="425.5" y1="121.2188" y2="365.9375"/><line style="stroke:#181818;stroke-width:0.5;stroke-dasharray:5.0,5.0;" x1="602.5" x2="602.5" y1="223.2266" y2="365.9375"/><text fill="#000000" font-family="sans-serif" font-size="14" lengthAdjust="spacing" textLength="111" x="5" y="118.1426">Gestor de tarefas</text><ellipse cx="63.5" cy="52.1094" fill="#E2E2F0" rx="8" ry="8" style="stroke:#181818;stroke-width:0.5;"/><path d="M63.5,60.1094 L63.5,87.1094 M50.5,68.1094 L76.5,68.1094 M63.5,87.1094 L50.5,102.1094 M63.5,87.1094 L76.5,102.1094 " fill="none" style="stroke:#181818;stroke-width:0.5;"/><text fill="#000000" font-family="sans-serif" font-size="14" lengthAdjust="spacing" textLength="111" x="5" y="379.4707">Gestor de tarefas</text><ellipse cx="63.5" cy="391.0469" fill="#E2E2F0" rx="8" ry="8" style="stroke:#181818;stroke-width:0.5;"/><path d="M63.5,399.0469 L63.5,426.0469 M50.5,407.0469 L76.5,407.0469 M63.5,426.0469 L50.5,441.0469 M63.5,426.0469 L76.5,441.0469 " fill="none" style="stroke:#181818;stroke-width:0.5;"/><rect fill="#E2E2F0" height="31.6094" rx="2.5" ry="2.5" style="stroke:#181818;stroke-width:0.5;" width="87" x="222" y="88.6094"/><text fill="#000000" font-family="sans-serif" font-size="14" lengthAdjust="spacing" textLength="73" x="229" y="110.1426">Component</text><rect fill="#E2E2F0" height="31.6094" rx="2.5" ry="2.5" style="stroke:#181818;stroke-width:0.5;" width="87" x="222" y="364.9375"/><text fill="#000000" font-family="sans-serif" font-size="14" lengthAdjust="spacing" textLength="73" x="229" y="386.4707">Component</text><rect fill="#E2E2F0" height="31.6094" rx="2.5" ry="2.5" style="stroke:#181818;stroke-width:0.5;" width="84" x="383.5" y="88.6094"/><text fill="#000000" font-family="sans-serif" font-size="14" lengthAdjust="spacing" textLength="70" x="390.5" y="110.1426">ServiceInfo</text><rect fill="#E2E2F0" height="31.6094" rx="2.5" ry="2.5" style="stroke:#181818;stroke-width:0.5;" width="84" x="383.5" y="364.9375"/><text fill="#000000" font-family="sans-serif" font-size="14" lengthAdjust="spacing" textLength="70" x="390.5" y="386.4707">ServiceInfo</text><rect fill="#E2E2F0" height="31.6094" rx="2.5" ry="2.5" style="stroke:#181818;stroke-width:0.5;" width="82" x="561.5" y="364.9375"/><text fill="#000000" font-family="sans-serif" font-size="14" lengthAdjust="spacing" textLength="68" x="568.5" y="386.4707">DataModel</text><rect fill="#FFFFFF" height="194.3672" style="stroke:#181818;stroke-width:1.0;" width="10" x="260.5" y="153.5703"/><rect fill="#FFFFFF" height="133.6641" style="stroke:#181818;stroke-width:1.0;" width="10" x="420.5" y="183.9219"/><polygon fill="#181818" points="248.5,149.5703,258.5,153.5703,248.5,157.5703,252.5,153.5703" style="stroke:#181818;stroke-width:1.0;"/><line style="stroke:#181818;stroke-width:1.0;" x1="63.5" x2="254.5" y1="153.5703" y2="153.5703"/><text fill="#000000" font-family="sans-serif" font-size="13" font-weight="bold" lengthAdjust="spacing" textLength="7" x="70.5" y="148.7139">1</text><text fill="#000000" font-family="sans-serif" font-size="13" lengthAdjust="spacing" textLength="167" x="81.5" y="148.7139">insere a informação da tarefa</text><polygon fill="#181818" points="408.5,179.9219,418.5,183.9219,408.5,187.9219,412.5,183.9219" style="stroke:#181818;stroke-width:1.0;"/><line style="stroke:#181818;stroke-width:1.0;" x1="270.5" x2="414.5" y1="183.9219" y2="183.9219"/><text fill="#000000" font-family="sans-serif" font-size="13" font-weight="bold" lengthAdjust="spacing" textLength="7" x="277.5" y="179.0654">2</text><text fill="#000000" font-family="sans-serif" font-size="13" lengthAdjust="spacing" textLength="120" x="288.5" y="179.0654">criarTarefa(tarefaInfo)</text><polygon fill="#181818" points="549.5,210.2734,559.5,214.2734,549.5,218.2734,553.5,214.2734" style="stroke:#181818;stroke-width:1.0;"/><line style="stroke:#181818;stroke-width:1.0;" x1="430.5" x2="555.5" y1="214.2734" y2="214.2734"/><text fill="#000000" font-family="sans-serif" font-size="13" font-weight="bold" lengthAdjust="spacing" textLength="7" x="437.5" y="209.417">3</text><text fill="#000000" font-family="sans-serif" font-size="13" lengthAdjust="spacing" textLength="96" x="448.5" y="209.417">create(tarefaInfo)</text><rect fill="#E2E2F0" height="31.6094" rx="2.5" ry="2.5" style="stroke:#181818;stroke-width:0.5;" width="82" x="561.5" y="191.9219"/><text fill="#000000" font-family="sans-serif" font-size="14" lengthAdjust="spacing" textLength="68" x="568.5" y="213.4551">DataModel</text><ellipse cx="666" cy="256.1328" fill="none" rx="4" ry="4" style="stroke:#181818;stroke-width:1.5;"/><polygon fill="#181818" points="649,252.8828,659,256.8828,649,260.8828,653,256.8828" style="stroke:#181818;stroke-width:1.0;"/><line style="stroke:#181818;stroke-width:1.0;" x1="430.5" x2="655" y1="256.8828" y2="256.8828"/><text fill="#000000" font-family="sans-serif" font-size="13" font-weight="bold" lengthAdjust="spacing" textLength="7" x="437.5" y="252.0264">4</text><text fill="#000000" font-family="sans-serif" font-size="13" lengthAdjust="spacing" textLength="201" x="448.5" y="252.0264">POST criarTarefa(tarefaDataModel)</text><polygon fill="#181818" points="441.5,283.2344,431.5,287.2344,441.5,291.2344,437.5,287.2344" style="stroke:#181818;stroke-width:1.0;"/><line style="stroke:#181818;stroke-width:1.0;stroke-dasharray:2.0,2.0;" x1="435.5" x2="673.5" y1="287.2344" y2="287.2344"/><text fill="#000000" font-family="sans-serif" font-size="13" font-weight="bold" lengthAdjust="spacing" textLength="7" x="447.5" y="282.3779">5</text><text fill="#000000" font-family="sans-serif" font-size="13" lengthAdjust="spacing" textLength="50" x="458.5" y="282.3779">resposta</text><polygon fill="#181818" points="281.5,313.5859,271.5,317.5859,281.5,321.5859,277.5,317.5859" style="stroke:#181818;stroke-width:1.0;"/><line style="stroke:#181818;stroke-width:1.0;stroke-dasharray:2.0,2.0;" x1="275.5" x2="424.5" y1="317.5859" y2="317.5859"/><text fill="#000000" font-family="sans-serif" font-size="13" font-weight="bold" lengthAdjust="spacing" textLength="7" x="287.5" y="312.7295">6</text><text fill="#000000" font-family="sans-serif" font-size="13" lengthAdjust="spacing" textLength="50" x="298.5" y="312.7295">resposta</text><polygon fill="#181818" points="74.5,343.9375,64.5,347.9375,74.5,351.9375,70.5,347.9375" style="stroke:#181818;stroke-width:1.0;"/><line style="stroke:#181818;stroke-width:1.0;stroke-dasharray:2.0,2.0;" x1="68.5" x2="264.5" y1="347.9375" y2="347.9375"/><text fill="#000000" font-family="sans-serif" font-size="13" font-weight="bold" lengthAdjust="spacing" textLength="7" x="80.5" y="343.0811">7</text><text fill="#000000" font-family="sans-serif" font-size="13" lengthAdjust="spacing" textLength="50" x="91.5" y="343.0811">resposta</text><!--MD5=[fadbb80dc07fbf4164b4eae629bac911]
@startuml
autonumber

title <<Container (C4)>> SPA

actor "Gestor de tarefas" as user
participant "Component" as component
participant "ServiceInfo" as service
participant "DataModel" as dataModel



user -> component: insere a informação da tarefa
activate component
component -> service: criarTarefa(tarefaInfo) 
activate service
service -> dataModel **: create(tarefaInfo)
service ->o] : POST criarTarefa(tarefaDataModel)
service <- - : resposta
return resposta
return resposta












@enduml

PlantUML version 1.2022.7(Mon Aug 22 18:01:30 BST 2022)
(GPL source distribution)
Java Runtime: OpenJDK Runtime Environment
JVM: OpenJDK 64-Bit Server VM
Default Encoding: Cp1252
Language: pt
Country: PT
--></g></svg>