<?xml version="1.0" encoding="UTF-8" standalone="no"?><svg xmlns="http://www.w3.org/2000/svg" xmlns:xlink="http://www.w3.org/1999/xlink" contentStyleType="text/css" height="323px" preserveAspectRatio="none" style="width:566px;height:323px;background:#FFFFFF;" version="1.1" viewBox="0 0 566 323" width="566px" zoomAndPan="magnify"><defs/><g><rect fill="#FFFFFF" height="140.2422" style="stroke:#181818;stroke-width:1.0;" width="10" x="23" y="92.6094"/><rect fill="#FFFFFF" height="117.8906" style="stroke:#181818;stroke-width:1.0;" width="10" x="470" y="114.9609"/><rect fill="none" height="94.8906" style="stroke:#000000;stroke-width:1.5;" width="556" x="3" y="129.9609"/><line style="stroke:#181818;stroke-width:0.5;stroke-dasharray:5.0,5.0;" x1="28" x2="28" y1="82.6094" y2="241.8516"/><line style="stroke:#181818;stroke-width:0.5;stroke-dasharray:5.0,5.0;" x1="475" x2="475" y1="82.6094" y2="241.8516"/><text fill="#000000" font-family="sans-serif" font-size="14" lengthAdjust="spacing" textLength="26" x="12" y="79.5332">Ator</text><ellipse cx="28" cy="13.5" fill="#E2E2F0" rx="8" ry="8" style="stroke:#181818;stroke-width:0.5;"/><path d="M28,21.5 L28,48.5 M15,29.5 L41,29.5 M28,48.5 L15,63.5 M28,48.5 L41,63.5 " fill="none" style="stroke:#181818;stroke-width:0.5;"/><text fill="#000000" font-family="sans-serif" font-size="14" lengthAdjust="spacing" textLength="26" x="12" y="255.3848">Ator</text><ellipse cx="28" cy="266.9609" fill="#E2E2F0" rx="8" ry="8" style="stroke:#181818;stroke-width:0.5;"/><path d="M28,274.9609 L28,301.9609 M15,282.9609 L41,282.9609 M28,301.9609 L15,316.9609 M28,301.9609 L41,316.9609 " fill="none" style="stroke:#181818;stroke-width:0.5;"/><rect fill="#E2E2F0" height="49.2188" rx="2.5" ry="2.5" style="stroke:#181818;stroke-width:0.5;" width="148" x="401" y="32.3906"/><text fill="#000000" font-family="sans-serif" font-size="14" font-style="italic" lengthAdjust="spacing" textLength="94" x="428" y="53.9238">«System (C4)»</text><text fill="#000000" font-family="sans-serif" font-size="14" lengthAdjust="spacing" textLength="134" x="408" y="71.5332">SistemaRobDroneGo</text><rect fill="#E2E2F0" height="49.2188" rx="2.5" ry="2.5" style="stroke:#181818;stroke-width:0.5;" width="148" x="401" y="240.8516"/><text fill="#000000" font-family="sans-serif" font-size="14" font-style="italic" lengthAdjust="spacing" textLength="94" x="428" y="262.3848">«System (C4)»</text><text fill="#000000" font-family="sans-serif" font-size="14" lengthAdjust="spacing" textLength="134" x="408" y="279.9941">SistemaRobDroneGo</text><rect fill="#FFFFFF" height="140.2422" style="stroke:#181818;stroke-width:1.0;" width="10" x="23" y="92.6094"/><rect fill="#FFFFFF" height="117.8906" style="stroke:#181818;stroke-width:1.0;" width="10" x="470" y="114.9609"/><polygon fill="#181818" points="458,110.9609,468,114.9609,458,118.9609,462,114.9609" style="stroke:#181818;stroke-width:1.0;"/><line style="stroke:#181818;stroke-width:1.0;" x1="33" x2="464" y1="114.9609" y2="114.9609"/><text fill="#000000" font-family="sans-serif" font-size="13" font-weight="bold" lengthAdjust="spacing" textLength="7" x="40" y="110.1045">1</text><text fill="#000000" font-family="sans-serif" font-size="13" lengthAdjust="spacing" textLength="407" x="51" y="110.1045">criar edifício e insere a informação(descricao, nome, codigo,dimensao)</text><path d="M3,129.9609 L64,129.9609 L64,138.3125 L54,148.3125 L3,148.3125 L3,129.9609 " fill="#EEEEEE" style="stroke:#000000;stroke-width:1.5;"/><rect fill="none" height="94.8906" style="stroke:#000000;stroke-width:1.5;" width="556" x="3" y="129.9609"/><text fill="#000000" font-family="sans-serif" font-size="13" font-weight="bold" lengthAdjust="spacing" textLength="16" x="18" y="144.4561">alt</text><polygon fill="#181818" points="11,166.6641,1,170.6641,11,174.6641,7,170.6641" style="stroke:#181818;stroke-width:1.0;"/><line style="stroke:#181818;stroke-width:1.0;stroke-dasharray:2.0,2.0;" x1="5" x2="469" y1="170.6641" y2="170.6641"/><text fill="#000000" font-family="sans-serif" font-size="13" font-weight="bold" lengthAdjust="spacing" textLength="7" x="17" y="165.8076">2</text><text fill="#000000" font-family="sans-serif" font-size="13" lengthAdjust="spacing" textLength="19" x="28" y="165.8076">OK</text><line style="stroke:#000000;stroke-width:1.0;stroke-dasharray:2.0,2.0;" x1="3" x2="559" y1="179.6641" y2="179.6641"/><text fill="#000000" font-family="sans-serif" font-size="11" font-weight="bold" lengthAdjust="spacing" textLength="41" x="8" y="191.083">["Erro"]</text><polygon fill="#181818" points="11,212.8516,1,216.8516,11,220.8516,7,216.8516" style="stroke:#181818;stroke-width:1.0;"/><line style="stroke:#181818;stroke-width:1.0;stroke-dasharray:2.0,2.0;" x1="5" x2="469" y1="216.8516" y2="216.8516"/><text fill="#000000" font-family="sans-serif" font-size="13" font-weight="bold" lengthAdjust="spacing" textLength="7" x="17" y="211.9951">3</text><text fill="#000000" font-family="sans-serif" font-size="13" lengthAdjust="spacing" textLength="24" x="28" y="211.9951">Erro</text><!--MD5=[212788e2a2a84a6fdb3040f3038aca90]
@startuml
autonumber
actor "Ator" as actor
participant SistemaRobDroneGo as sistema <<System (C4)>>

activate actor
actor -> sistema: criar edifício e insere a informação(descricao, nome, codigo,dimensao)
activate sistema
alt
<- - sistema: OK
else "Erro"
<- - sistema: Erro
end alt
@enduml

PlantUML version 1.2022.7(Mon Aug 22 18:01:30 BST 2022)
(GPL source distribution)
Java Runtime: OpenJDK Runtime Environment
JVM: OpenJDK 64-Bit Server VM
Default Encoding: Cp1252
Language: en
Country: US
--></g></svg>