<?xml version="1.0" encoding="UTF-8" standalone="no"?><svg xmlns="http://www.w3.org/2000/svg" xmlns:xlink="http://www.w3.org/1999/xlink" contentStyleType="text/css" height="409px" preserveAspectRatio="none" style="width:1481px;height:409px;background:#FFFFFF;" version="1.1" viewBox="0 0 1481 409" width="1481px" zoomAndPan="magnify"><defs/><g><rect fill="#FFFFFF" height="194.3672" style="stroke:#181818;stroke-width:1.0;" width="10" x="758.5" y="114.9609"/><rect fill="#FFFFFF" height="133.6641" style="stroke:#181818;stroke-width:1.0;" width="10" x="1130.5" y="145.3125"/><line style="stroke:#181818;stroke-width:0.5;stroke-dasharray:5.0,5.0;" x1="58" x2="58" y1="82.6094" y2="327.3281"/><line style="stroke:#181818;stroke-width:0.5;stroke-dasharray:5.0,5.0;" x1="763" x2="763" y1="82.6094" y2="327.3281"/><line style="stroke:#181818;stroke-width:0.5;stroke-dasharray:5.0,5.0;" x1="1135.5" x2="1135.5" y1="82.6094" y2="327.3281"/><line style="stroke:#181818;stroke-width:0.5;stroke-dasharray:5.0,5.0;" x1="1430.5" x2="1430.5" y1="184.6172" y2="327.3281"/><text fill="#000000" font-family="sans-serif" font-size="14" lengthAdjust="spacing" textLength="101" x="5" y="79.5332">Gestor de Frota</text><ellipse cx="58.5" cy="13.5" fill="#E2E2F0" rx="8" ry="8" style="stroke:#181818;stroke-width:0.5;"/><path d="M58.5,21.5 L58.5,48.5 M45.5,29.5 L71.5,29.5 M58.5,48.5 L45.5,63.5 M58.5,48.5 L71.5,63.5 " fill="none" style="stroke:#181818;stroke-width:0.5;"/><text fill="#000000" font-family="sans-serif" font-size="14" lengthAdjust="spacing" textLength="101" x="5" y="340.8613">Gestor de Frota</text><ellipse cx="58.5" cy="352.4375" fill="#E2E2F0" rx="8" ry="8" style="stroke:#181818;stroke-width:0.5;"/><path d="M58.5,360.4375 L58.5,387.4375 M45.5,368.4375 L71.5,368.4375 M58.5,387.4375 L45.5,402.4375 M58.5,387.4375 L71.5,402.4375 " fill="none" style="stroke:#181818;stroke-width:0.5;"/><rect fill="#E2E2F0" height="31.6094" rx="2.5" ry="2.5" style="stroke:#181818;stroke-width:0.5;" width="143" x="692" y="50"/><text fill="#000000" font-family="sans-serif" font-size="14" lengthAdjust="spacing" textLength="129" x="699" y="71.5332">adicionar-dispositivo</text><rect fill="#E2E2F0" height="31.6094" rx="2.5" ry="2.5" style="stroke:#181818;stroke-width:0.5;" width="143" x="692" y="326.3281"/><text fill="#000000" font-family="sans-serif" font-size="14" lengthAdjust="spacing" textLength="129" x="699" y="347.8613">adicionar-dispositivo</text><rect fill="#E2E2F0" height="31.6094" rx="2.5" ry="2.5" style="stroke:#181818;stroke-width:0.5;" width="82" x="1094.5" y="50"/><text fill="#000000" font-family="sans-serif" font-size="14" lengthAdjust="spacing" textLength="68" x="1101.5" y="71.5332">serviceInfo</text><rect fill="#E2E2F0" height="31.6094" rx="2.5" ry="2.5" style="stroke:#181818;stroke-width:0.5;" width="82" x="1094.5" y="326.3281"/><text fill="#000000" font-family="sans-serif" font-size="14" lengthAdjust="spacing" textLength="68" x="1101.5" y="347.8613">serviceInfo</text><rect fill="#E2E2F0" height="31.6094" rx="2.5" ry="2.5" style="stroke:#181818;stroke-width:0.5;" width="80" x="1390.5" y="326.3281"/><text fill="#000000" font-family="sans-serif" font-size="14" lengthAdjust="spacing" textLength="66" x="1397.5" y="347.8613">dataModel</text><rect fill="#FFFFFF" height="194.3672" style="stroke:#181818;stroke-width:1.0;" width="10" x="758.5" y="114.9609"/><rect fill="#FFFFFF" height="133.6641" style="stroke:#181818;stroke-width:1.0;" width="10" x="1130.5" y="145.3125"/><polygon fill="#181818" points="746.5,110.9609,756.5,114.9609,746.5,118.9609,750.5,114.9609" style="stroke:#181818;stroke-width:1.0;"/><line style="stroke:#181818;stroke-width:1.0;" x1="58.5" x2="752.5" y1="114.9609" y2="114.9609"/><text fill="#000000" font-family="sans-serif" font-size="13" font-weight="bold" lengthAdjust="spacing" textLength="7" x="65.5" y="110.1045">1</text><text fill="#000000" font-family="sans-serif" font-size="13" lengthAdjust="spacing" textLength="670" x="76.5" y="110.1045">Adicionar um novo robot à frota e insere a informação (codigo, nickname, IdTipoDispositivo, numeroSerie, descrição)</text><polygon fill="#181818" points="1118.5,141.3125,1128.5,145.3125,1118.5,149.3125,1122.5,145.3125" style="stroke:#181818;stroke-width:1.0;"/><line style="stroke:#181818;stroke-width:1.0;" x1="768.5" x2="1124.5" y1="145.3125" y2="145.3125"/><text fill="#000000" font-family="sans-serif" font-size="13" font-weight="bold" lengthAdjust="spacing" textLength="7" x="775.5" y="140.4561">2</text><text fill="#000000" font-family="sans-serif" font-size="13" lengthAdjust="spacing" textLength="332" x="786.5" y="140.4561">adicionarDispositivoAFrota(codigo,numeroPiso,descricao)</text><polygon fill="#181818" points="1378.5,171.6641,1388.5,175.6641,1378.5,179.6641,1382.5,175.6641" style="stroke:#181818;stroke-width:1.0;"/><line style="stroke:#181818;stroke-width:1.0;" x1="1140.5" x2="1384.5" y1="175.6641" y2="175.6641"/><text fill="#000000" font-family="sans-serif" font-size="13" font-weight="bold" lengthAdjust="spacing" textLength="7" x="1147.5" y="170.8076">3</text><text fill="#000000" font-family="sans-serif" font-size="13" lengthAdjust="spacing" textLength="215" x="1158.5" y="170.8076">create(codigo,numeroPiso,descricao)</text><rect fill="#E2E2F0" height="31.6094" rx="2.5" ry="2.5" style="stroke:#181818;stroke-width:0.5;" width="80" x="1390.5" y="153.3125"/><text fill="#000000" font-family="sans-serif" font-size="14" lengthAdjust="spacing" textLength="66" x="1397.5" y="174.8457">dataModel</text><ellipse cx="1467" cy="217.5234" fill="none" rx="4" ry="4" style="stroke:#181818;stroke-width:1.5;"/><polygon fill="#181818" points="1450,214.2734,1460,218.2734,1450,222.2734,1454,218.2734" style="stroke:#181818;stroke-width:1.0;"/><line style="stroke:#181818;stroke-width:1.0;" x1="1140.5" x2="1456" y1="218.2734" y2="218.2734"/><text fill="#000000" font-family="sans-serif" font-size="13" font-weight="bold" lengthAdjust="spacing" textLength="7" x="1147.5" y="213.417">4</text><text fill="#000000" font-family="sans-serif" font-size="13" lengthAdjust="spacing" textLength="224" x="1158.5" y="213.417">POST adicionarDispositivoAFrota(piso)</text><polygon fill="#181818" points="1151.5,244.625,1141.5,248.625,1151.5,252.625,1147.5,248.625" style="stroke:#181818;stroke-width:1.0;"/><line style="stroke:#181818;stroke-width:1.0;stroke-dasharray:2.0,2.0;" x1="1145.5" x2="1474.5" y1="248.625" y2="248.625"/><text fill="#000000" font-family="sans-serif" font-size="13" font-weight="bold" lengthAdjust="spacing" textLength="7" x="1157.5" y="243.7686">5</text><text fill="#000000" font-family="sans-serif" font-size="13" lengthAdjust="spacing" textLength="50" x="1168.5" y="243.7686">resposta</text><polygon fill="#181818" points="779.5,274.9766,769.5,278.9766,779.5,282.9766,775.5,278.9766" style="stroke:#181818;stroke-width:1.0;"/><line style="stroke:#181818;stroke-width:1.0;stroke-dasharray:2.0,2.0;" x1="773.5" x2="1134.5" y1="278.9766" y2="278.9766"/><text fill="#000000" font-family="sans-serif" font-size="13" font-weight="bold" lengthAdjust="spacing" textLength="7" x="785.5" y="274.1201">6</text><text fill="#000000" font-family="sans-serif" font-size="13" lengthAdjust="spacing" textLength="50" x="796.5" y="274.1201">resposta</text><polygon fill="#181818" points="69.5,305.3281,59.5,309.3281,69.5,313.3281,65.5,309.3281" style="stroke:#181818;stroke-width:1.0;"/><line style="stroke:#181818;stroke-width:1.0;stroke-dasharray:2.0,2.0;" x1="63.5" x2="762.5" y1="309.3281" y2="309.3281"/><text fill="#000000" font-family="sans-serif" font-size="13" font-weight="bold" lengthAdjust="spacing" textLength="7" x="75.5" y="304.4717">7</text><text fill="#000000" font-family="sans-serif" font-size="13" lengthAdjust="spacing" textLength="50" x="86.5" y="304.4717">resposta</text><!--MD5=[57357993dd2bf096197db1c5a8eb4325]
@startuml
autonumber

actor "Gestor de Frota" as ator
participant "adicionar-dispositivo" as component
participant "serviceInfo" as serviceInfo
participant "dataModel" as dataModel


ator -> component: Adicionar um novo robot à frota e insere a informação (codigo, nickname, IdTipoDispositivo, numeroSerie, descrição)
activate component
component -> serviceInfo: adicionarDispositivoAFrota(codigo,numeroPiso,descricao)
activate serviceInfo
serviceInfo -> dataModel **: create(codigo,numeroPiso,descricao)
serviceInfo ->o]: POST adicionarDispositivoAFrota(piso)
serviceInfo<- - : resposta
return resposta
return resposta
 
@enduml

PlantUML version 1.2022.7(Mon Aug 22 18:01:30 WEST 2022)
(GPL source distribution)
Java Runtime: Java(TM) SE Runtime Environment
JVM: Java HotSpot(TM) 64-Bit Server VM
Default Encoding: UTF-8
Language: pt
Country: PT
--></g></svg>