<?xml version="1.0" encoding="UTF-8" standalone="no"?><svg xmlns="http://www.w3.org/2000/svg" xmlns:xlink="http://www.w3.org/1999/xlink" contentStyleType="text/css" height="399px" preserveAspectRatio="none" style="width:407px;height:399px;background:#FFFFFF;" version="1.1" viewBox="0 0 407 399" width="407px" zoomAndPan="magnify"><defs/><g><rect fill="#FFFFFF" height="193.1094" style="stroke:#181818;stroke-width:1.0;" width="10" x="332" y="114.9609"/><rect fill="none" height="79.0547" style="stroke:#000000;stroke-width:1.5;" width="391" x="10" y="190.6641"/><line style="stroke:#181818;stroke-width:0.5;stroke-dasharray:5.0,5.0;" x1="81" x2="81" y1="82.6094" y2="317.0703"/><line style="stroke:#181818;stroke-width:0.5;stroke-dasharray:5.0,5.0;" x1="337" x2="337" y1="82.6094" y2="317.0703"/><text fill="#000000" font-family="sans-serif" font-size="14" lengthAdjust="spacing" textLength="116" x="20" y="79.5332">Gestor de Tarefas</text><ellipse cx="81" cy="13.5" fill="#E2E2F0" rx="8" ry="8" style="stroke:#181818;stroke-width:0.5;"/><path d="M81,21.5 L81,48.5 M68,29.5 L94,29.5 M81,48.5 L68,63.5 M81,48.5 L94,63.5 " fill="none" style="stroke:#181818;stroke-width:0.5;"/><text fill="#000000" font-family="sans-serif" font-size="14" lengthAdjust="spacing" textLength="116" x="20" y="330.6035">Gestor de Tarefas</text><ellipse cx="81" cy="342.1797" fill="#E2E2F0" rx="8" ry="8" style="stroke:#181818;stroke-width:0.5;"/><path d="M81,350.1797 L81,377.1797 M68,358.1797 L94,358.1797 M81,377.1797 L68,392.1797 M81,377.1797 L94,392.1797 " fill="none" style="stroke:#181818;stroke-width:0.5;"/><rect fill="#E2E2F0" height="49.2188" rx="2.5" ry="2.5" style="stroke:#181818;stroke-width:0.5;" width="108" x="283" y="32.3906"/><text fill="#000000" font-family="sans-serif" font-size="14" font-style="italic" lengthAdjust="spacing" textLength="94" x="290" y="53.9238">«System (C4)»</text><text fill="#000000" font-family="sans-serif" font-size="14" lengthAdjust="spacing" textLength="84" x="295" y="71.5332">RobDroneGo</text><rect fill="#E2E2F0" height="49.2188" rx="2.5" ry="2.5" style="stroke:#181818;stroke-width:0.5;" width="108" x="283" y="316.0703"/><text fill="#000000" font-family="sans-serif" font-size="14" font-style="italic" lengthAdjust="spacing" textLength="94" x="290" y="337.6035">«System (C4)»</text><text fill="#000000" font-family="sans-serif" font-size="14" lengthAdjust="spacing" textLength="84" x="295" y="355.2129">RobDroneGo</text><rect fill="#FFFFFF" height="193.1094" style="stroke:#181818;stroke-width:1.0;" width="10" x="332" y="114.9609"/><polygon fill="#181818" points="320,110.9609,330,114.9609,320,118.9609,324,114.9609" style="stroke:#181818;stroke-width:1.0;"/><line style="stroke:#181818;stroke-width:1.0;" x1="81" x2="326" y1="114.9609" y2="114.9609"/><text fill="#000000" font-family="sans-serif" font-size="13" font-weight="bold" lengthAdjust="spacing" textLength="7" x="88" y="110.1045">1</text><text fill="#000000" font-family="sans-serif" font-size="13" lengthAdjust="spacing" textLength="209" x="99" y="110.1045">quero alterar o estado de uma tarefa</text><polygon fill="#181818" points="92,141.3125,82,145.3125,92,149.3125,88,145.3125" style="stroke:#181818;stroke-width:1.0;"/><line style="stroke:#181818;stroke-width:1.0;" x1="86" x2="331" y1="145.3125" y2="145.3125"/><text fill="#000000" font-family="sans-serif" font-size="13" font-weight="bold" lengthAdjust="spacing" textLength="7" x="98" y="140.4561">2</text><text fill="#000000" font-family="sans-serif" font-size="13" lengthAdjust="spacing" textLength="214" x="109" y="140.4561">demonstra lista de tarefas pendentes</text><polygon fill="#181818" points="320,171.6641,330,175.6641,320,179.6641,324,175.6641" style="stroke:#181818;stroke-width:1.0;"/><line style="stroke:#181818;stroke-width:1.0;" x1="81" x2="326" y1="175.6641" y2="175.6641"/><text fill="#000000" font-family="sans-serif" font-size="13" font-weight="bold" lengthAdjust="spacing" textLength="7" x="88" y="170.8076">3</text><text fill="#000000" font-family="sans-serif" font-size="13" lengthAdjust="spacing" textLength="216" x="99" y="170.8076">escolhe a tarefa e seleciona o estado</text><path d="M10,190.6641 L71,190.6641 L71,199.0156 L61,209.0156 L10,209.0156 L10,190.6641 " fill="#EEEEEE" style="stroke:#000000;stroke-width:1.5;"/><rect fill="none" height="79.0547" style="stroke:#000000;stroke-width:1.5;" width="391" x="10" y="190.6641"/><text fill="#000000" font-family="sans-serif" font-size="13" font-weight="bold" lengthAdjust="spacing" textLength="16" x="25" y="205.1592">alt</text><text fill="#000000" font-family="sans-serif" font-size="11" font-weight="bold" lengthAdjust="spacing" textLength="50" x="86" y="204.083">[aprovar]</text><polygon fill="#181818" points="92,227.3672,82,231.3672,92,235.3672,88,231.3672" style="stroke:#181818;stroke-width:1.0;"/><line style="stroke:#181818;stroke-width:1.0;" x1="86" x2="331" y1="231.3672" y2="231.3672"/><text fill="#000000" font-family="sans-serif" font-size="13" font-weight="bold" lengthAdjust="spacing" textLength="7" x="98" y="226.5107">4</text><text fill="#000000" font-family="sans-serif" font-size="13" lengthAdjust="spacing" textLength="161" x="109" y="226.5107">pede para escolher um robo</text><polygon fill="#181818" points="320,257.7188,330,261.7188,320,265.7188,324,261.7188" style="stroke:#181818;stroke-width:1.0;"/><line style="stroke:#181818;stroke-width:1.0;" x1="81" x2="326" y1="261.7188" y2="261.7188"/><text fill="#000000" font-family="sans-serif" font-size="13" font-weight="bold" lengthAdjust="spacing" textLength="7" x="88" y="256.8623">5</text><text fill="#000000" font-family="sans-serif" font-size="13" lengthAdjust="spacing" textLength="96" x="99" y="256.8623">escolhe um robo</text><polygon fill="#181818" points="92,295.0703,82,299.0703,92,303.0703,88,299.0703" style="stroke:#181818;stroke-width:1.0;"/><line style="stroke:#181818;stroke-width:1.0;" x1="86" x2="331" y1="299.0703" y2="299.0703"/><text fill="#000000" font-family="sans-serif" font-size="13" font-weight="bold" lengthAdjust="spacing" textLength="7" x="98" y="294.2139">6</text><text fill="#000000" font-family="sans-serif" font-size="13" lengthAdjust="spacing" textLength="50" x="109" y="294.2139">resposta</text><!--MD5=[21cc237deb9645057f9d10ebcf6e6ffd]
@startuml
autonumber

actor "Gestor de Tarefas" as ator
participant RobDroneGo as sistema <<System (C4)>>

ator -> sistema: quero alterar o estado de uma tarefa
activate sistema
sistema-> ator: demonstra lista de tarefas pendentes

ator -> sistema: escolhe a tarefa e seleciona o estado
alt aprovar
sistema -> ator: pede para escolher um robo
ator -> sistema: escolhe um robo
end 
sistema -> ator: resposta
@enduml

PlantUML version 1.2022.7(Mon Aug 22 18:01:30 WEST 2022)
(GPL source distribution)
Java Runtime: Java(TM) SE Runtime Environment
JVM: Java HotSpot(TM) 64-Bit Server VM
Default Encoding: UTF-8
Language: pt
Country: PT
--></g></svg>