<?xml version="1.0" encoding="UTF-8" standalone="no"?><svg xmlns="http://www.w3.org/2000/svg" xmlns:xlink="http://www.w3.org/1999/xlink" contentStyleType="text/css" height="554px" preserveAspectRatio="none" style="width:1252px;height:554px;background:#FFFFFF;" version="1.1" viewBox="0 0 1252 554" width="1252px" zoomAndPan="magnify"><defs/><g><rect fill="#FFFFFF" height="394.2188" style="stroke:#181818;stroke-width:1.0;" width="10" x="110" y="87.5703"/><rect fill="#FFFFFF" height="333.5156" style="stroke:#181818;stroke-width:1.0;" width="10" x="384" y="117.9219"/><rect fill="#FFFFFF" height="272.8125" style="stroke:#181818;stroke-width:1.0;" width="10" x="661" y="148.2734"/><rect fill="#FFFFFF" height="30.3516" style="stroke:#181818;stroke-width:1.0;" width="10" x="869" y="178.625"/><rect fill="#FFFFFF" height="30.3516" style="stroke:#181818;stroke-width:1.0;" width="10" x="961.5" y="239.3281"/><rect fill="#FFFFFF" height="90.7031" style="stroke:#181818;stroke-width:1.0;" width="10" x="1066.5" y="300.0313"/><rect fill="#FFFFFF" height="30" style="stroke:#181818;stroke-width:1.0;" width="10" x="1189.5" y="330.3828"/><line style="stroke:#181818;stroke-width:0.5;stroke-dasharray:5.0,5.0;" x1="115" x2="115" y1="55.2188" y2="499.7891"/><line style="stroke:#181818;stroke-width:0.5;stroke-dasharray:5.0,5.0;" x1="389" x2="389" y1="55.2188" y2="499.7891"/><line style="stroke:#181818;stroke-width:0.5;stroke-dasharray:5.0,5.0;" x1="665.5" x2="665.5" y1="55.2188" y2="499.7891"/><line style="stroke:#181818;stroke-width:0.5;stroke-dasharray:5.0,5.0;" x1="873.5" x2="873.5" y1="55.2188" y2="499.7891"/><line style="stroke:#181818;stroke-width:0.5;stroke-dasharray:5.0,5.0;" x1="966.5" x2="966.5" y1="55.2188" y2="499.7891"/><line style="stroke:#181818;stroke-width:0.5;stroke-dasharray:5.0,5.0;" x1="1071.5" x2="1071.5" y1="55.2188" y2="499.7891"/><line style="stroke:#181818;stroke-width:0.5;stroke-dasharray:5.0,5.0;" x1="1194.5" x2="1194.5" y1="55.2188" y2="499.7891"/><rect fill="#E2E2F0" height="49.2188" rx="2.5" ry="2.5" style="stroke:#181818;stroke-width:0.5;" width="112" x="59" y="5"/><text fill="#000000" font-family="sans-serif" font-size="14" lengthAdjust="spacing" textLength="37" x="94.5" y="26.5332">route:</text><text fill="#000000" font-family="sans-serif" font-size="14" lengthAdjust="spacing" textLength="94" x="70" y="44.1426">ElevadorRoute</text><rect fill="#E2E2F0" height="49.2188" rx="2.5" ry="2.5" style="stroke:#181818;stroke-width:0.5;" width="112" x="59" y="498.7891"/><text fill="#000000" font-family="sans-serif" font-size="14" lengthAdjust="spacing" textLength="37" x="94.5" y="520.3223">route:</text><text fill="#000000" font-family="sans-serif" font-size="14" lengthAdjust="spacing" textLength="94" x="70" y="537.9316">ElevadorRoute</text><rect fill="#E2E2F0" height="49.2188" rx="2.5" ry="2.5" style="stroke:#181818;stroke-width:0.5;" width="136" x="321" y="5"/><text fill="#000000" font-family="sans-serif" font-size="14" lengthAdjust="spacing" textLength="63" x="355.5" y="26.5332">controller:</text><text fill="#000000" font-family="sans-serif" font-size="14" lengthAdjust="spacing" textLength="118" x="332" y="44.1426">ElevadorController</text><rect fill="#E2E2F0" height="49.2188" rx="2.5" ry="2.5" style="stroke:#181818;stroke-width:0.5;" width="136" x="321" y="498.7891"/><text fill="#000000" font-family="sans-serif" font-size="14" lengthAdjust="spacing" textLength="63" x="355.5" y="520.3223">controller:</text><text fill="#000000" font-family="sans-serif" font-size="14" lengthAdjust="spacing" textLength="118" x="332" y="537.9316">ElevadorController</text><rect fill="#E2E2F0" height="49.2188" rx="2.5" ry="2.5" style="stroke:#181818;stroke-width:0.5;" width="121" x="605.5" y="5"/><text fill="#000000" font-family="sans-serif" font-size="14" lengthAdjust="spacing" textLength="49" x="639.5" y="26.5332">service:</text><text fill="#000000" font-family="sans-serif" font-size="14" lengthAdjust="spacing" textLength="103" x="616.5" y="44.1426">ElevadorService</text><rect fill="#E2E2F0" height="49.2188" rx="2.5" ry="2.5" style="stroke:#181818;stroke-width:0.5;" width="121" x="605.5" y="498.7891"/><text fill="#000000" font-family="sans-serif" font-size="14" lengthAdjust="spacing" textLength="49" x="639.5" y="520.3223">service:</text><text fill="#000000" font-family="sans-serif" font-size="14" lengthAdjust="spacing" textLength="103" x="616.5" y="537.9316">ElevadorService</text><rect fill="#E2E2F0" height="49.2188" rx="2.5" ry="2.5" style="stroke:#181818;stroke-width:0.5;" width="97" x="825.5" y="5"/><text fill="#000000" font-family="sans-serif" font-size="14" lengthAdjust="spacing" textLength="33" x="855.5" y="26.5332">repo:</text><text fill="#000000" font-family="sans-serif" font-size="14" lengthAdjust="spacing" textLength="79" x="836.5" y="44.1426">EdificioRepo</text><rect fill="#E2E2F0" height="49.2188" rx="2.5" ry="2.5" style="stroke:#181818;stroke-width:0.5;" width="97" x="825.5" y="498.7891"/><text fill="#000000" font-family="sans-serif" font-size="14" lengthAdjust="spacing" textLength="33" x="855.5" y="520.3223">repo:</text><text fill="#000000" font-family="sans-serif" font-size="14" lengthAdjust="spacing" textLength="79" x="836.5" y="537.9316">EdificioRepo</text><rect fill="#E2E2F0" height="49.2188" rx="2.5" ry="2.5" style="stroke:#181818;stroke-width:0.5;" width="68" x="932.5" y="5"/><text fill="#000000" font-family="sans-serif" font-size="14" lengthAdjust="spacing" textLength="50" x="939.5" y="26.5332">domain:</text><text fill="#000000" font-family="sans-serif" font-size="14" lengthAdjust="spacing" textLength="45" x="946" y="44.1426">Edificio</text><rect fill="#E2E2F0" height="49.2188" rx="2.5" ry="2.5" style="stroke:#181818;stroke-width:0.5;" width="68" x="932.5" y="498.7891"/><text fill="#000000" font-family="sans-serif" font-size="14" lengthAdjust="spacing" textLength="50" x="939.5" y="520.3223">domain:</text><text fill="#000000" font-family="sans-serif" font-size="14" lengthAdjust="spacing" textLength="45" x="946" y="537.9316">Edificio</text><rect fill="#E2E2F0" height="49.2188" rx="2.5" ry="2.5" style="stroke:#181818;stroke-width:0.5;" width="122" x="1010.5" y="5"/><text fill="#000000" font-family="sans-serif" font-size="14" lengthAdjust="spacing" textLength="31" x="1054" y="26.5332">map:</text><text fill="#000000" font-family="sans-serif" font-size="14" lengthAdjust="spacing" textLength="104" x="1021.5" y="44.1426">ElevadorMapper</text><rect fill="#E2E2F0" height="49.2188" rx="2.5" ry="2.5" style="stroke:#181818;stroke-width:0.5;" width="122" x="1010.5" y="498.7891"/><text fill="#000000" font-family="sans-serif" font-size="14" lengthAdjust="spacing" textLength="31" x="1054" y="520.3223">map:</text><text fill="#000000" font-family="sans-serif" font-size="14" lengthAdjust="spacing" textLength="104" x="1021.5" y="537.9316">ElevadorMapper</text><rect fill="#E2E2F0" height="49.2188" rx="2.5" ry="2.5" style="stroke:#181818;stroke-width:0.5;" width="104" x="1142.5" y="5"/><text fill="#000000" font-family="sans-serif" font-size="14" lengthAdjust="spacing" textLength="24" x="1180.5" y="26.5332">dto:</text><text fill="#000000" font-family="sans-serif" font-size="14" lengthAdjust="spacing" textLength="86" x="1153.5" y="44.1426">ElevadorDTO</text><rect fill="#E2E2F0" height="49.2188" rx="2.5" ry="2.5" style="stroke:#181818;stroke-width:0.5;" width="104" x="1142.5" y="498.7891"/><text fill="#000000" font-family="sans-serif" font-size="14" lengthAdjust="spacing" textLength="24" x="1180.5" y="520.3223">dto:</text><text fill="#000000" font-family="sans-serif" font-size="14" lengthAdjust="spacing" textLength="86" x="1153.5" y="537.9316">ElevadorDTO</text><rect fill="#FFFFFF" height="394.2188" style="stroke:#181818;stroke-width:1.0;" width="10" x="110" y="87.5703"/><rect fill="#FFFFFF" height="333.5156" style="stroke:#181818;stroke-width:1.0;" width="10" x="384" y="117.9219"/><rect fill="#FFFFFF" height="272.8125" style="stroke:#181818;stroke-width:1.0;" width="10" x="661" y="148.2734"/><rect fill="#FFFFFF" height="30.3516" style="stroke:#181818;stroke-width:1.0;" width="10" x="869" y="178.625"/><rect fill="#FFFFFF" height="30.3516" style="stroke:#181818;stroke-width:1.0;" width="10" x="961.5" y="239.3281"/><rect fill="#FFFFFF" height="90.7031" style="stroke:#181818;stroke-width:1.0;" width="10" x="1066.5" y="300.0313"/><rect fill="#FFFFFF" height="30" style="stroke:#181818;stroke-width:1.0;" width="10" x="1189.5" y="330.3828"/><ellipse cx="7.5" cy="86.8203" fill="none" rx="4" ry="4" style="stroke:#181818;stroke-width:1.5;"/><polygon fill="#181818" points="98,83.5703,108,87.5703,98,91.5703,102,87.5703" style="stroke:#181818;stroke-width:1.0;"/><line style="stroke:#181818;stroke-width:1.0;" x1="12" x2="104" y1="87.5703" y2="87.5703"/><text fill="#000000" font-family="sans-serif" font-size="13" font-weight="bold" lengthAdjust="spacing" textLength="7" x="15" y="82.7139">1</text><text fill="#000000" font-family="sans-serif" font-size="13" lengthAdjust="spacing" textLength="58" x="26" y="82.7139">GET(json)</text><polygon fill="#181818" points="372,113.9219,382,117.9219,372,121.9219,376,117.9219" style="stroke:#181818;stroke-width:1.0;"/><line style="stroke:#181818;stroke-width:1.0;" x1="120" x2="378" y1="117.9219" y2="117.9219"/><text fill="#000000" font-family="sans-serif" font-size="13" font-weight="bold" lengthAdjust="spacing" textLength="7" x="127" y="113.0654">2</text><text fill="#000000" font-family="sans-serif" font-size="13" lengthAdjust="spacing" textLength="234" x="138" y="113.0654">listarElevadoresDoEdificio(req, res, next)</text><polygon fill="#181818" points="649,144.2734,659,148.2734,649,152.2734,653,148.2734" style="stroke:#181818;stroke-width:1.0;"/><line style="stroke:#181818;stroke-width:1.0;" x1="394" x2="655" y1="148.2734" y2="148.2734"/><text fill="#000000" font-family="sans-serif" font-size="13" font-weight="bold" lengthAdjust="spacing" textLength="7" x="401" y="143.417">3</text><text fill="#000000" font-family="sans-serif" font-size="13" lengthAdjust="spacing" textLength="237" x="412" y="143.417">listarElevadoresDoEdificio(codigoEdificio)</text><polygon fill="#181818" points="857,174.625,867,178.625,857,182.625,861,178.625" style="stroke:#181818;stroke-width:1.0;"/><line style="stroke:#181818;stroke-width:1.0;" x1="671" x2="863" y1="178.625" y2="178.625"/><text fill="#000000" font-family="sans-serif" font-size="13" font-weight="bold" lengthAdjust="spacing" textLength="7" x="678" y="173.7686">4</text><text fill="#000000" font-family="sans-serif" font-size="13" lengthAdjust="spacing" textLength="168" x="689" y="173.7686">findByDomain(codigoEdificio)</text><polygon fill="#181818" points="682,204.9766,672,208.9766,682,212.9766,678,208.9766" style="stroke:#181818;stroke-width:1.0;"/><line style="stroke:#181818;stroke-width:1.0;stroke-dasharray:2.0,2.0;" x1="676" x2="873" y1="208.9766" y2="208.9766"/><text fill="#000000" font-family="sans-serif" font-size="13" font-weight="bold" lengthAdjust="spacing" textLength="7" x="688" y="204.1201">5</text><text fill="#000000" font-family="sans-serif" font-size="13" lengthAdjust="spacing" textLength="40" x="699" y="204.1201">edificio</text><polygon fill="#181818" points="949.5,235.3281,959.5,239.3281,949.5,243.3281,953.5,239.3281" style="stroke:#181818;stroke-width:1.0;"/><line style="stroke:#181818;stroke-width:1.0;" x1="671" x2="955.5" y1="239.3281" y2="239.3281"/><text fill="#000000" font-family="sans-serif" font-size="13" font-weight="bold" lengthAdjust="spacing" textLength="7" x="678" y="234.4717">6</text><text fill="#000000" font-family="sans-serif" font-size="13" lengthAdjust="spacing" textLength="90" x="689" y="234.4717">returnElevador()</text><polygon fill="#181818" points="682,265.6797,672,269.6797,682,273.6797,678,269.6797" style="stroke:#181818;stroke-width:1.0;"/><line style="stroke:#181818;stroke-width:1.0;stroke-dasharray:2.0,2.0;" x1="676" x2="965.5" y1="269.6797" y2="269.6797"/><text fill="#000000" font-family="sans-serif" font-size="13" font-weight="bold" lengthAdjust="spacing" textLength="7" x="688" y="264.8232">7</text><text fill="#000000" font-family="sans-serif" font-size="13" lengthAdjust="spacing" textLength="47" x="699" y="264.8232">elevador</text><polygon fill="#181818" points="1054.5,296.0313,1064.5,300.0313,1054.5,304.0313,1058.5,300.0313" style="stroke:#181818;stroke-width:1.0;"/><line style="stroke:#181818;stroke-width:1.0;" x1="671" x2="1060.5" y1="300.0313" y2="300.0313"/><text fill="#000000" font-family="sans-serif" font-size="13" font-weight="bold" lengthAdjust="spacing" textLength="7" x="678" y="295.1748">8</text><text fill="#000000" font-family="sans-serif" font-size="13" lengthAdjust="spacing" textLength="92" x="689" y="295.1748">toDTO(elevador)</text><polygon fill="#181818" points="1177.5,326.3828,1187.5,330.3828,1177.5,334.3828,1181.5,330.3828" style="stroke:#181818;stroke-width:1.0;"/><line style="stroke:#181818;stroke-width:1.0;" x1="1076.5" x2="1183.5" y1="330.3828" y2="330.3828"/><text fill="#000000" font-family="sans-serif" font-size="13" font-weight="bold" lengthAdjust="spacing" textLength="7" x="1083.5" y="325.5264">9</text><text fill="#000000" font-family="sans-serif" font-size="13" lengthAdjust="spacing" textLength="44" x="1094.5" y="325.5264">create()</text><polygon fill="#181818" points="682,386.7344,672,390.7344,682,394.7344,678,390.7344" style="stroke:#181818;stroke-width:1.0;"/><line style="stroke:#181818;stroke-width:1.0;stroke-dasharray:2.0,2.0;" x1="676" x2="1070.5" y1="390.7344" y2="390.7344"/><text fill="#000000" font-family="sans-serif" font-size="13" font-weight="bold" lengthAdjust="spacing" textLength="14" x="688" y="385.8779">10</text><text fill="#000000" font-family="sans-serif" font-size="13" lengthAdjust="spacing" textLength="73" x="706" y="385.8779">elevadorDTO</text><polygon fill="#181818" points="405,417.0859,395,421.0859,405,425.0859,401,421.0859" style="stroke:#181818;stroke-width:1.0;"/><line style="stroke:#181818;stroke-width:1.0;stroke-dasharray:2.0,2.0;" x1="399" x2="665" y1="421.0859" y2="421.0859"/><text fill="#000000" font-family="sans-serif" font-size="13" font-weight="bold" lengthAdjust="spacing" textLength="14" x="411" y="416.2295">11</text><text fill="#000000" font-family="sans-serif" font-size="13" lengthAdjust="spacing" textLength="73" x="429" y="416.2295">elevadorDTO</text><polygon fill="#181818" points="131,447.4375,121,451.4375,131,455.4375,127,451.4375" style="stroke:#181818;stroke-width:1.0;"/><line style="stroke:#181818;stroke-width:1.0;stroke-dasharray:2.0,2.0;" x1="125" x2="388" y1="451.4375" y2="451.4375"/><text fill="#000000" font-family="sans-serif" font-size="13" font-weight="bold" lengthAdjust="spacing" textLength="14" x="137" y="446.5811">12</text><text fill="#000000" font-family="sans-serif" font-size="13" lengthAdjust="spacing" textLength="73" x="155" y="446.5811">elevadorDTO</text><polygon fill="#181818" points="16.5,477.7891,6.5,481.7891,16.5,485.7891,12.5,481.7891" style="stroke:#181818;stroke-width:1.0;"/><line style="stroke:#181818;stroke-width:1.0;stroke-dasharray:2.0,2.0;" x1="14.5" x2="114" y1="481.7891" y2="481.7891"/><text fill="#000000" font-family="sans-serif" font-size="13" font-weight="bold" lengthAdjust="spacing" textLength="14" x="17" y="476.9326">13</text><text fill="#000000" font-family="sans-serif" font-size="13" lengthAdjust="spacing" textLength="73" x="35" y="476.9326">elevadorDTO</text><!--MD5=[df342529cdff7224bc84dff714b0299f]
@startuml
autonumber

participant "route: \n ElevadorRoute" as route
participant "controller: \n ElevadorController" as ctrl
participant "service: \n ElevadorService" as service
participant "repo: \n EdificioRepo" as edRepo
participant "domain: \n Edificio" as edificio
participant "map: \n ElevadorMapper" as mapper
participant "dto: \n ElevadorDTO" as resDTO

[o-> route: GET(json)
activate route
route -> ctrl: listarElevadoresDoEdificio(req, res, next)
activate ctrl
ctrl -> service: listarElevadoresDoEdificio(codigoEdificio) 
activate service
service -> edRepo: findByDomain(codigoEdificio)
activate edRepo
return edificio
service -> edificio: returnElevador()
activate edificio
return elevador
service -> mapper : toDTO(elevador)
activate mapper
mapper -> resDTO : create()
activate resDTO
deactivate resDTO
return elevadorDTO
return elevadorDTO
return elevadorDTO
return elevadorDTO













@enduml

PlantUML version 1.2022.7(Mon Aug 22 18:01:30 BST 2022)
(GPL source distribution)
Java Runtime: OpenJDK Runtime Environment
JVM: OpenJDK 64-Bit Server VM
Default Encoding: Cp1252
Language: pt
Country: PT
--></g></svg>